NotoSansBengali-Regular.ufo
<glyph name="exclam.beng" format="2">
  <advance width="383"/>
  <unicode hex="0021"/>
  <outline>
    <contour>
      <point x="181" y="201" type="line"/>
      <point x="238" y="201" type="line"/>
      <point x="263" y="714" type="line"/>
      <point x="156" y="714" type="line"/>
    </contour>
    <contour>
      <point x="147" y="54" type="curve" smooth="yes"/>
      <point x="147" y="6"/>
      <point x="174" y="-14"/>
      <point x="209" y="-14" type="curve" smooth="yes"/>
      <point x="242" y="-14"/>
      <point x="271" y="6"/>
      <point x="271" y="54" type="curve" smooth="yes"/>
      <point x="271" y="103"/>
      <point x="242" y="121"/>
      <point x="209" y="121" type="curve" smooth="yes"/>
      <point x="174" y="121"/>
      <point x="147" y="103"/>
    </contour>
  </outline>
</glyph>
<glyph name="numbersign.beng" format="2">
  <advance width="653"/>
  <unicode hex="0023"/>
  <outline>
    <contour>
      <point x="159" y="176" type="line"/>
      <point x="126" y="0" type="line"/>
      <point x="195" y="0" type="line"/>
      <point x="229" y="176" type="line"/>
      <point x="369" y="176" type="line"/>
      <point x="334" y="0" type="line"/>
      <point x="404" y="0" type="line"/>
      <point x="438" y="176" type="line"/>
      <point x="584" y="176" type="line"/>
      <point x="584" y="242" type="line"/>
      <point x="451" y="242" type="line"/>
      <point x="480" y="394" type="line"/>
      <point x="619" y="394" type="line"/>
      <point x="619" y="459" type="line"/>
      <point x="493" y="459" type="line"/>
      <point x="527" y="632" type="line"/>
      <point x="458" y="632" type="line"/>
      <point x="424" y="459" type="line"/>
      <point x="284" y="459" type="line"/>
      <point x="317" y="632" type="line"/>
      <point x="247" y="632" type="line"/>
      <point x="213" y="459" type="line"/>
      <point x="70" y="459" type="line"/>
      <point x="70" y="394" type="line"/>
      <point x="202" y="394" type="line"/>
      <point x="171" y="242" type="line"/>
      <point x="34" y="242" type="line"/>
      <point x="34" y="176" type="line"/>
    </contour>
    <contour>
      <point x="381" y="242" type="line"/>
      <point x="242" y="242" type="line"/>
      <point x="271" y="394" type="line"/>
      <point x="411" y="394" type="line"/>
    </contour>
  </outline>
</glyph>
<glyph name="percent.beng" format="2">
  <advance width="828"/>
  <unicode hex="0025"/>
  <outline>
    <contour>
      <point x="569" y="622" type="line"/>
      <point x="183" y="0" type="line"/>
      <point x="261" y="0" type="line"/>
      <point x="646" y="622" type="line"/>
    </contour>
    <contour>
      <point x="202" y="271" type="curve" smooth="yes"/>
      <point x="304" y="271"/>
      <point x="349" y="338"/>
      <point x="349" y="452" type="curve" smooth="yes"/>
      <point x="349" y="566"/>
      <point x="298" y="632"/>
      <point x="202" y="632" type="curve" smooth="yes"/>
      <point x="101" y="632"/>
      <point x="57" y="566"/>
      <point x="57" y="452" type="curve" smooth="yes"/>
      <point x="57" y="338"/>
      <point x="107" y="271"/>
    </contour>
    <contour>
      <point x="201" y="334" type="curve" smooth="yes"/>
      <point x="150" y="334"/>
      <point x="129" y="374"/>
      <point x="129" y="452" type="curve" smooth="yes"/>
      <point x="129" y="530"/>
      <point x="150" y="569"/>
      <point x="201" y="569" type="curve" smooth="yes"/>
      <point x="251" y="569"/>
      <point x="276" y="530"/>
      <point x="276" y="452" type="curve" smooth="yes"/>
      <point x="276" y="374"/>
      <point x="251" y="334"/>
    </contour>
    <contour>
      <point x="624" y="-10" type="curve" smooth="yes"/>
      <point x="726" y="-10"/>
      <point x="770" y="59"/>
      <point x="770" y="171" type="curve" smooth="yes"/>
      <point x="770" y="285"/>
      <point x="721" y="352"/>
      <point x="624" y="352" type="curve" smooth="yes"/>
      <point x="523" y="352"/>
      <point x="479" y="285"/>
      <point x="479" y="171" type="curve" smooth="yes"/>
      <point x="479" y="59"/>
      <point x="528" y="-10"/>
    </contour>
    <contour>
      <point x="624" y="55" type="curve" smooth="yes"/>
      <point x="573" y="55"/>
      <point x="552" y="93"/>
      <point x="552" y="171" type="curve" smooth="yes"/>
      <point x="552" y="250"/>
      <point x="573" y="289"/>
      <point x="624" y="289" type="curve" smooth="yes"/>
      <point x="674" y="289"/>
      <point x="699" y="250"/>
      <point x="699" y="171" type="curve" smooth="yes"/>
      <point x="699" y="94"/>
      <point x="674" y="55"/>
    </contour>
  </outline>
</glyph>
<glyph name="parenleft.beng" format="2">
  <advance width="419"/>
  <unicode hex="0028"/>
  <outline>
    <contour>
      <point x="256" y="-135" type="curve"/>
      <point x="338" y="-135" type="line"/>
      <point x="245" y="0"/>
      <point x="197" y="161"/>
      <point x="197" y="331" type="curve" smooth="yes"/>
      <point x="197" y="497"/>
      <point x="247" y="661"/>
      <point x="337" y="792" type="curve"/>
      <point x="256" y="792" type="line"/>
      <point x="158" y="667"/>
      <point x="111" y="504"/>
      <point x="111" y="332" type="curve" smooth="yes"/>
      <point x="111" y="163"/>
      <point x="158" y="-7"/>
    </contour>
  </outline>
</glyph>
<glyph name="parenright.beng" format="2">
  <advance width="419"/>
  <unicode hex="0029"/>
  <outline>
    <contour>
      <point x="82" y="-135" type="curve"/>
      <point x="163" y="-135" type="line"/>
      <point x="261" y="-10"/>
      <point x="308" y="153"/>
      <point x="308" y="324" type="curve" smooth="yes"/>
      <point x="308" y="494"/>
      <point x="261" y="664"/>
      <point x="163" y="792" type="curve"/>
      <point x="81" y="792" type="line"/>
      <point x="174" y="657"/>
      <point x="222" y="496"/>
      <point x="222" y="325" type="curve" smooth="yes"/>
      <point x="222" y="156"/>
      <point x="172" y="-4"/>
    </contour>
  </outline>
</glyph>
<glyph name="plus.beng" format="2">
  <advance width="592"/>
  <unicode hex="002B"/>
  <outline>
    <contour>
      <point x="259" y="286" type="line"/>
      <point x="259" y="97" type="line"/>
      <point x="332" y="97" type="line"/>
      <point x="332" y="286" type="line"/>
      <point x="521" y="286" type="line"/>
      <point x="521" y="359" type="line"/>
      <point x="332" y="359" type="line"/>
      <point x="332" y="548" type="line"/>
      <point x="259" y="548" type="line"/>
      <point x="259" y="359" type="line"/>
      <point x="70" y="359" type="line"/>
      <point x="70" y="286" type="line"/>
    </contour>
  </outline>
</glyph>
<glyph name="comma.beng" format="2">
  <advance width="263"/>
  <unicode hex="002C"/>
  <outline>
    <contour>
      <point x="190" y="116" type="line"/>
      <point x="93" y="116" type="line"/>
      <point x="83" y="47"/>
      <point x="66" y="-40"/>
      <point x="46" y="-119" type="curve"/>
      <point x="113" y="-119" type="line"/>
      <point x="146" y="-46"/>
      <point x="179" y="34"/>
      <point x="197" y="105" type="curve"/>
    </contour>
  </outline>
</glyph>
<glyph name="hyphen.beng" format="2">
  <advance width="340"/>
  <unicode hex="002D"/>
  <outline>
    <contour>
      <point x="49" y="338" type="line"/>
      <point x="49" y="256" type="line"/>
      <point x="291" y="256" type="line"/>
      <point x="291" y="338" type="line"/>
    </contour>
  </outline>
</glyph>
<glyph name="slash.beng" format="2">
  <advance width="449"/>
  <unicode hex="002F"/>
  <outline>
    <contour>
      <point x="315" y="792" type="line"/>
      <point x="52" y="-125" type="line"/>
      <point x="135" y="-125" type="line"/>
      <point x="397" y="792" type="line"/>
    </contour>
  </outline>
</glyph>
<glyph name="one.beng" format="2">
  <advance width="551"/>
  <unicode hex="0031"/>
  <outline>
    <contour>
      <point x="261" y="0" type="line"/>
      <point x="347" y="0" type="line"/>
      <point x="347" y="714" type="line"/>
      <point x="274" y="714" type="line"/>
      <point x="87" y="568" type="line"/>
      <point x="134" y="508" type="line"/>
      <point x="206" y="567" type="line" smooth="yes"/>
      <point x="233" y="590"/>
      <point x="243" y="599"/>
      <point x="265" y="622" type="curve"/>
      <point x="264" y="578"/>
      <point x="261" y="502"/>
      <point x="261" y="446" type="curve" smooth="yes"/>
    </contour>
  </outline>
</glyph>
<glyph name="five.beng" format="2">
  <advance width="551"/>
  <unicode hex="0035"/>
  <outline>
    <contour>
      <point x="238" y="-10" type="curve" smooth="yes"/>
      <point x="405" y="-10"/>
      <point x="495" y="80"/>
      <point x="495" y="229" type="curve" smooth="yes"/>
      <point x="495" y="366"/>
      <point x="395" y="438"/>
      <point x="266" y="438" type="curve" smooth="yes"/>
      <point x="224" y="438"/>
      <point x="185" y="433"/>
      <point x="164" y="428" type="curve"/>
      <point x="183" y="633" type="line"/>
      <point x="443" y="633" type="line"/>
      <point x="443" y="714" type="line"/>
      <point x="106" y="714" type="line"/>
      <point x="79" y="378" type="line"/>
      <point x="123" y="350" type="line"/>
      <point x="150" y="355"/>
      <point x="201" y="363"/>
      <point x="236" y="363" type="curve" smooth="yes"/>
      <point x="345" y="363"/>
      <point x="404" y="313"/>
      <point x="404" y="219" type="curve" smooth="yes"/>
      <point x="404" y="114"/>
      <point x="343" y="66"/>
      <point x="240" y="66" type="curve" smooth="yes"/>
      <point x="185" y="66"/>
      <point x="107" y="83"/>
      <point x="64" y="113" type="curve"/>
      <point x="64" y="29" type="line"/>
      <point x="107" y="2"/>
      <point x="171" y="-10"/>
    </contour>
  </outline>
</glyph>
<glyph name="semicolon.beng" format="2">
  <advance width="294"/>
  <unicode hex="003B"/>
  <outline>
    <contour>
      <point x="190" y="116" type="line"/>
      <point x="93" y="116" type="line"/>
      <point x="83" y="47"/>
      <point x="66" y="-40"/>
      <point x="46" y="-119" type="curve"/>
      <point x="113" y="-119" type="line"/>
      <point x="146" y="-46"/>
      <point x="179" y="34"/>
      <point x="197" y="105" type="curve"/>
    </contour>
    <contour>
      <point x="147" y="414" type="curve" smooth="yes"/>
      <point x="181" y="414"/>
      <point x="209" y="434"/>
      <point x="209" y="482" type="curve" smooth="yes"/>
      <point x="209" y="533"/>
      <point x="181" y="550"/>
      <point x="147" y="550" type="curve" smooth="yes"/>
      <point x="112" y="550"/>
      <point x="85" y="533"/>
      <point x="85" y="482" type="curve" smooth="yes"/>
      <point x="85" y="434"/>
      <point x="112" y="414"/>
    </contour>
  </outline>
</glyph>
<glyph name="less.beng" format="2">
  <advance width="592"/>
  <unicode hex="003C"/>
  <outline>
    <contour>
      <point x="70" y="284" type="line"/>
      <point x="521" y="77" type="line"/>
      <point x="521" y="155" type="line"/>
      <point x="162" y="313" type="line"/>
      <point x="521" y="490" type="line"/>
      <point x="521" y="568" type="line"/>
      <point x="70" y="333" type="line"/>
    </contour>
  </outline>
</glyph>
<glyph name="equal.beng" format="2">
  <advance width="592"/>
  <unicode hex="003D"/>
  <outline>
    <contour>
      <point x="70" y="459" type="line"/>
      <point x="70" y="386" type="line"/>
      <point x="521" y="386" type="line"/>
      <point x="521" y="459" type="line"/>
    </contour>
    <contour>
      <point x="70" y="259" type="line"/>
      <point x="70" y="186" type="line"/>
      <point x="521" y="186" type="line"/>
      <point x="521" y="259" type="line"/>
    </contour>
  </outline>
</glyph>
<glyph name="greater.beng" format="2">
  <advance width="592"/>
  <unicode hex="003E"/>
  <outline>
    <contour>
      <point x="70" y="155" type="line"/>
      <point x="70" y="77" type="line"/>
      <point x="521" y="284" type="line"/>
      <point x="521" y="333" type="line"/>
      <point x="70" y="568" type="line"/>
      <point x="70" y="490" type="line"/>
      <point x="429" y="313" type="line"/>
    </contour>
  </outline>
</glyph>
<glyph name="bracketleft.beng" format="2">
  <advance width="415"/>
  <unicode hex="005B"/>
  <outline>
    <contour>
      <point x="140" y="792" type="line"/>
      <point x="140" y="-135" type="line"/>
      <point x="334" y="-135" type="line"/>
      <point x="334" y="-65" type="line"/>
      <point x="220" y="-65" type="line"/>
      <point x="220" y="722" type="line"/>
      <point x="334" y="722" type="line"/>
      <point x="334" y="792" type="line"/>
    </contour>
  </outline>
</glyph>
<glyph name="backslash.beng" format="2">
  <advance width="449"/>
  <unicode hex="005C"/>
  <outline>
    <contour>
      <point x="52" y="792" type="line"/>
      <point x="315" y="-135" type="line"/>
      <point x="397" y="-135" type="line"/>
      <point x="134" y="792" type="line"/>
    </contour>
  </outline>
</glyph>
<glyph name="bracketright.beng" format="2">
  <advance width="415"/>
  <unicode hex="005D"/>
  <outline>
    <contour>
      <point x="81" y="-65" type="line"/>
      <point x="81" y="-135" type="line"/>
      <point x="275" y="-135" type="line"/>
      <point x="275" y="782" type="line"/>
      <point x="81" y="782" type="line"/>
      <point x="81" y="712" type="line"/>
      <point x="194" y="712" type="line"/>
      <point x="194" y="-65" type="line"/>
    </contour>
  </outline>
</glyph>
<glyph name="asciicircum.beng" format="2">
  <advance width="592"/>
  <unicode hex="005E"/>
  <outline>
    <contour>
      <point x="273" y="719" type="line"/>
      <point x="49" y="268" type="line"/>
      <point x="128" y="268" type="line"/>
      <point x="298" y="627" type="line"/>
      <point x="463" y="268" type="line"/>
      <point x="541" y="268" type="line"/>
      <point x="323" y="719" type="line"/>
    </contour>
  </outline>
</glyph>
<glyph name="braceleft.beng" format="2">
  <advance width="391"/>
  <unicode hex="007B"/>
  <outline>
    <contour>
      <point x="44" y="365" type="curve"/>
      <point x="44" y="291" type="line"/>
      <point x="124" y="291"/>
      <point x="167" y="266"/>
      <point x="167" y="201" type="curve" smooth="yes"/>
      <point x="167" y="6" type="line" smooth="yes"/>
      <point x="167" y="-94"/>
      <point x="239" y="-133"/>
      <point x="337" y="-135" type="curve"/>
      <point x="337" y="-63" type="line"/>
      <point x="282" y="-61"/>
      <point x="248" y="-49"/>
      <point x="248" y="13" type="curve" smooth="yes"/>
      <point x="248" y="206" type="line" smooth="yes"/>
      <point x="248" y="274"/>
      <point x="211" y="312"/>
      <point x="142" y="325" type="curve"/>
      <point x="142" y="330" type="line"/>
      <point x="211" y="344"/>
      <point x="248" y="383"/>
      <point x="248" y="450" type="curve" smooth="yes"/>
      <point x="248" y="645" type="line" smooth="yes"/>
      <point x="248" y="706"/>
      <point x="282" y="719"/>
      <point x="337" y="720" type="curve"/>
      <point x="337" y="792" type="line"/>
      <point x="239" y="790"/>
      <point x="167" y="751"/>
      <point x="167" y="651" type="curve" smooth="yes"/>
      <point x="167" y="455" type="line" smooth="yes"/>
      <point x="167" y="390"/>
      <point x="124" y="365"/>
    </contour>
  </outline>
</glyph>
<glyph name="bar.beng" format="2">
  <advance width="540"/>
  <unicode hex="007C"/>
  <outline>
    <contour>
      <point x="234" y="792" type="line"/>
      <point x="234" y="-135" type="line"/>
      <point x="306" y="-135" type="line"/>
      <point x="306" y="792" type="line"/>
    </contour>
  </outline>
</glyph>
<glyph name="braceright.beng" format="2">
  <advance width="455"/>
  <unicode hex="007D"/>
  <outline>
    <contour>
      <point x="374" y="291" type="curve"/>
      <point x="374" y="365" type="line"/>
      <point x="294" y="365"/>
      <point x="252" y="390"/>
      <point x="252" y="455" type="curve" smooth="yes"/>
      <point x="252" y="651" type="line" smooth="yes"/>
      <point x="252" y="751"/>
      <point x="179" y="790"/>
      <point x="81" y="792" type="curve"/>
      <point x="81" y="720" type="line"/>
      <point x="137" y="719"/>
      <point x="170" y="706"/>
      <point x="170" y="645" type="curve" smooth="yes"/>
      <point x="170" y="450" type="line" smooth="yes"/>
      <point x="170" y="383"/>
      <point x="206" y="344"/>
      <point x="276" y="330" type="curve"/>
      <point x="276" y="325" type="line"/>
      <point x="206" y="312"/>
      <point x="170" y="274"/>
      <point x="170" y="206" type="curve" smooth="yes"/>
      <point x="170" y="13" type="line" smooth="yes"/>
      <point x="170" y="-49"/>
      <point x="137" y="-61"/>
      <point x="81" y="-63" type="curve"/>
      <point x="81" y="-135" type="line"/>
      <point x="179" y="-133"/>
      <point x="252" y="-94"/>
      <point x="252" y="6" type="curve" smooth="yes"/>
      <point x="252" y="201" type="line" smooth="yes"/>
      <point x="252" y="266"/>
      <point x="294" y="291"/>
    </contour>
  </outline>
</glyph>
<glyph name="asciitilde.beng" format="2">
  <advance width="592"/>
  <unicode hex="007E"/>
  <outline>
    <contour>
      <point x="70" y="335" type="curve"/>
      <point x="70" y="256" type="line"/>
      <point x="102" y="289"/>
      <point x="145" y="315"/>
      <point x="181" y="315" type="curve" smooth="yes"/>
      <point x="211" y="315"/>
      <point x="231" y="309"/>
      <point x="279" y="288" type="curve" smooth="yes"/>
      <point x="340" y="262"/>
      <point x="362" y="257"/>
      <point x="400" y="257" type="curve" smooth="yes"/>
      <point x="448" y="257"/>
      <point x="489" y="275"/>
      <point x="521" y="310" type="curve"/>
      <point x="521" y="389" type="line"/>
      <point x="490" y="356"/>
      <point x="447" y="330"/>
      <point x="410" y="330" type="curve" smooth="yes"/>
      <point x="382" y="330"/>
      <point x="361" y="336"/>
      <point x="312" y="357" type="curve" smooth="yes"/>
      <point x="251" y="383"/>
      <point x="229" y="388"/>
      <point x="191" y="388" type="curve" smooth="yes"/>
      <point x="143" y="388"/>
      <point x="103" y="371"/>
    </contour>
  </outline>
</glyph>
<glyph name="multiply.beng" format="2">
  <advance width="592"/>
  <unicode hex="00D7"/>
  <outline>
    <contour>
      <point x="295" y="270" type="line"/>
      <point x="452" y="115" type="line"/>
      <point x="502" y="165" type="line"/>
      <point x="346" y="321" type="line"/>
      <point x="503" y="478" type="line"/>
      <point x="452" y="528" type="line"/>
      <point x="295" y="373" type="line"/>
      <point x="140" y="528" type="line"/>
      <point x="89" y="477" type="line"/>
      <point x="244" y="321" type="line"/>
      <point x="90" y="167" type="line"/>
      <point x="140" y="116" type="line"/>
    </contour>
  </outline>
</glyph>
<glyph name="divide.beng" format="2">
  <advance width="592"/>
  <unicode hex="00F7"/>
  <outline>
    <contour>
      <point x="70" y="359" type="line"/>
      <point x="70" y="286" type="line"/>
      <point x="521" y="286" type="line"/>
      <point x="521" y="359" type="line"/>
    </contour>
    <contour>
      <point x="295" y="95" type="curve" smooth="yes"/>
      <point x="325" y="95"/>
      <point x="351" y="113"/>
      <point x="351" y="156" type="curve" smooth="yes"/>
      <point x="351" y="201"/>
      <point x="325" y="217"/>
      <point x="295" y="217" type="curve" smooth="yes"/>
      <point x="264" y="217"/>
      <point x="239" y="201"/>
      <point x="239" y="156" type="curve" smooth="yes"/>
      <point x="239" y="113"/>
      <point x="264" y="95"/>
    </contour>
    <contour>
      <point x="295" y="436" type="curve" smooth="yes"/>
      <point x="325" y="436"/>
      <point x="351" y="454"/>
      <point x="351" y="497" type="curve" smooth="yes"/>
      <point x="351" y="542"/>
      <point x="325" y="558"/>
      <point x="295" y="558" type="curve" smooth="yes"/>
      <point x="264" y="558"/>
      <point x="239" y="542"/>
      <point x="239" y="497" type="curve" smooth="yes"/>
      <point x="239" y="454"/>
      <point x="264" y="436"/>
    </contour>
  </outline>
</glyph>
<glyph name="uni0952" format="2">
  <unicode hex="0952"/>
  <outline>
    <contour>
      <point x="-443" y="-187" type="line"/>
      <point x="-67" y="-187" type="line"/>
      <point x="-67" y="-116" type="line"/>
      <point x="-443" y="-116" type="line"/>
    </contour>
  </outline>
</glyph>
<glyph name="dandadeva" format="2">
  <advance width="379"/>
  <unicode hex="0964"/>
  <outline>
    <contour>
      <point x="194" y="0" type="line"/>
      <point x="275" y="0" type="line"/>
      <point x="275" y="622" type="line"/>
      <point x="194" y="622" type="line"/>
    </contour>
  </outline>
</glyph>
<glyph name="dbldandadeva" format="2">
  <advance width="599"/>
  <unicode hex="0965"/>
  <outline>
    <contour>
      <point x="414" y="0" type="line"/>
      <point x="495" y="0" type="line"/>
      <point x="495" y="622" type="line"/>
      <point x="414" y="622" type="line"/>
    </contour>
    <contour>
      <point x="194" y="0" type="line"/>
      <point x="275" y="0" type="line"/>
      <point x="275" y="622" type="line"/>
      <point x="194" y="622" type="line"/>
    </contour>
  </outline>
</glyph>
<glyph name="uni0980" format="2">
  <advance width="540"/>
  <unicode hex="0980"/>
  <outline>
    <contour>
      <point x="349" y="290" type="curve"/>
      <point x="331" y="363" type="line"/>
      <point x="305" y="354"/>
      <point x="278" y="350"/>
      <point x="244" y="350" type="curve" smooth="yes"/>
      <point x="182" y="350"/>
      <point x="131" y="372"/>
      <point x="131" y="438" type="curve" smooth="yes"/>
      <point x="131" y="520"/>
      <point x="205" y="588"/>
      <point x="280" y="588" type="curve" smooth="yes"/>
      <point x="310" y="588"/>
      <point x="331" y="581"/>
      <point x="344" y="567" type="curve" smooth="yes"/>
      <point x="362" y="549"/>
      <point x="365" y="525"/>
      <point x="365" y="476" type="curve" smooth="yes"/>
      <point x="365" y="98" type="line" smooth="yes"/>
      <point x="365" y="-1"/>
      <point x="385" y="-47"/>
      <point x="519" y="-49" type="curve"/>
      <point x="526" y="29" type="line"/>
      <point x="458" y="30"/>
      <point x="444" y="35"/>
      <point x="444" y="108" type="curve" smooth="yes"/>
      <point x="444" y="493" type="line" smooth="yes"/>
      <point x="444" y="568"/>
      <point x="427" y="597"/>
      <point x="399" y="623" type="curve" smooth="yes"/>
      <point x="370" y="649"/>
      <point x="329" y="660"/>
      <point x="281" y="660" type="curve" smooth="yes"/>
      <point x="161" y="660"/>
      <point x="49" y="566"/>
      <point x="49" y="444" type="curve" smooth="yes"/>
      <point x="49" y="339"/>
      <point x="115" y="275"/>
      <point x="246" y="275" type="curve" smooth="yes"/>
      <point x="279" y="275"/>
      <point x="314" y="280"/>
    </contour>
  </outline>
</glyph>
<glyph name="candrabindubeng" format="2">
  <unicode hex="0981"/>
  <outline>
    <contour>
      <point x="42" y="861" type="curve"/>
      <point x="-28" y="870" type="line"/>
      <point x="-35" y="792"/>
      <point x="-69" y="751"/>
      <point x="-135" y="751" type="curve" smooth="yes"/>
      <point x="-206" y="751"/>
      <point x="-234" y="795"/>
      <point x="-241" y="869" type="curve"/>
      <point x="-310" y="860" type="line"/>
      <point x="-300" y="760"/>
      <point x="-247" y="685"/>
      <point x="-131" y="685" type="curve" smooth="yes"/>
      <point x="-18" y="685"/>
      <point x="33" y="760"/>
    </contour>
    <contour>
      <point x="-90" y="830" type="curve" smooth="yes"/>
      <point x="-90" y="858"/>
      <point x="-105" y="873"/>
      <point x="-135" y="873" type="curve" smooth="yes"/>
      <point x="-165" y="873"/>
      <point x="-178" y="854"/>
      <point x="-178" y="833" type="curve" smooth="yes"/>
      <point x="-178" y="806"/>
      <point x="-163" y="788"/>
      <point x="-134" y="788" type="curve" smooth="yes"/>
      <point x="-109" y="788"/>
      <point x="-90" y="803"/>
    </contour>
  </outline>
</glyph>
<glyph name="anusvarabeng" format="2">
  <advance width="438"/>
  <unicode hex="0982"/>
  <outline>
    <contour>
      <point x="123" y="314" type="curve"/>
      <point x="73" y="250" type="line"/>
      <point x="206" y="168"/>
      <point x="276" y="85"/>
      <point x="359" y="-41" type="curve"/>
      <point x="424" y="-8" type="line"/>
      <point x="359" y="110"/>
      <point x="249" y="238"/>
    </contour>
    <contour>
      <point x="78" y="486" type="curve" smooth="yes"/>
      <point x="78" y="402"/>
      <point x="139" y="349"/>
      <point x="219" y="349" type="curve" smooth="yes"/>
      <point x="299" y="349"/>
      <point x="360" y="403"/>
      <point x="360" y="486" type="curve" smooth="yes"/>
      <point x="360" y="568"/>
      <point x="299" y="622"/>
      <point x="219" y="622" type="curve" smooth="yes"/>
      <point x="139" y="622"/>
      <point x="78" y="568"/>
    </contour>
    <contour>
      <point x="147" y="486" type="curve" smooth="yes"/>
      <point x="147" y="529"/>
      <point x="177" y="557"/>
      <point x="219" y="557" type="curve" smooth="yes"/>
      <point x="261" y="557"/>
      <point x="291" y="531"/>
      <point x="291" y="486" type="curve" smooth="yes"/>
      <point x="291" y="442"/>
      <point x="261" y="414"/>
      <point x="219" y="414" type="curve" smooth="yes"/>
      <point x="177" y="414"/>
      <point x="147" y="441"/>
    </contour>
  </outline>
</glyph>
<glyph name="visargabeng" format="2">
  <advance width="438"/>
  <unicode hex="0983"/>
  <outline>
    <contour>
      <point x="78" y="486" type="curve" smooth="yes"/>
      <point x="78" y="402"/>
      <point x="139" y="349"/>
      <point x="219" y="349" type="curve" smooth="yes"/>
      <point x="299" y="349"/>
      <point x="360" y="403"/>
      <point x="360" y="486" type="curve" smooth="yes"/>
      <point x="360" y="568"/>
      <point x="299" y="622"/>
      <point x="219" y="622" type="curve" smooth="yes"/>
      <point x="139" y="622"/>
      <point x="78" y="568"/>
    </contour>
    <contour>
      <point x="147" y="486" type="curve" smooth="yes"/>
      <point x="147" y="529"/>
      <point x="177" y="557"/>
      <point x="219" y="557" type="curve" smooth="yes"/>
      <point x="261" y="557"/>
      <point x="291" y="529"/>
      <point x="291" y="486" type="curve" smooth="yes"/>
      <point x="291" y="442"/>
      <point x="261" y="414"/>
      <point x="219" y="414" type="curve" smooth="yes"/>
      <point x="177" y="414"/>
      <point x="147" y="441"/>
    </contour>
    <contour>
      <point x="78" y="137" type="curve" smooth="yes"/>
      <point x="78" y="54"/>
      <point x="139" y="0"/>
      <point x="219" y="0" type="curve" smooth="yes"/>
      <point x="299" y="0"/>
      <point x="360" y="54"/>
      <point x="360" y="137" type="curve" smooth="yes"/>
      <point x="360" y="220"/>
      <point x="299" y="273"/>
      <point x="219" y="273" type="curve" smooth="yes"/>
      <point x="139" y="273"/>
      <point x="78" y="219"/>
    </contour>
    <contour>
      <point x="147" y="137" type="curve" smooth="yes"/>
      <point x="147" y="180"/>
      <point x="177" y="208"/>
      <point x="219" y="208" type="curve" smooth="yes"/>
      <point x="261" y="208"/>
      <point x="291" y="181"/>
      <point x="291" y="137" type="curve" smooth="yes"/>
      <point x="291" y="93"/>
      <point x="261" y="65"/>
      <point x="219" y="65" type="curve" smooth="yes"/>
      <point x="177" y="65"/>
      <point x="147" y="93"/>
    </contour>
  </outline>
</glyph>
<glyph name="aabeng" format="2">
  <advance width="1158"/>
  <unicode hex="0986"/>
  <outline>
    <contour>
      <point x="898" y="622" type="line"/>
      <point x="-10" y="622" type="line"/>
      <point x="-10" y="551" type="line"/>
      <point x="721" y="551" type="line"/>
      <point x="721" y="194" type="line" smooth="yes"/>
      <point x="721" y="162"/>
      <point x="722" y="138"/>
      <point x="724" y="109" type="curve"/>
      <point x="695" y="161"/>
      <point x="633" y="217"/>
      <point x="582" y="246" type="curve"/>
      <point x="557" y="180" type="line"/>
      <point x="622" y="137"/>
      <point x="682" y="79"/>
      <point x="721" y="0" type="curve"/>
      <point x="798" y="0" type="line"/>
      <point x="798" y="551" type="line"/>
      <point x="898" y="551" type="line"/>
    </contour>
    <contour>
      <point x="376" y="91" type="curve" smooth="yes"/>
      <point x="531" y="91"/>
      <point x="606" y="185"/>
      <point x="606" y="294" type="curve" smooth="yes"/>
      <point x="606" y="415"/>
      <point x="530" y="500"/>
      <point x="413" y="500" type="curve" smooth="yes"/>
      <point x="340" y="500"/>
      <point x="271" y="462"/>
      <point x="271" y="388" type="curve" smooth="yes"/>
      <point x="271" y="367"/>
      <point x="275" y="344"/>
      <point x="285" y="316" type="curve"/>
      <point x="361" y="331" type="line"/>
      <point x="356" y="344"/>
      <point x="353" y="362"/>
      <point x="353" y="372" type="curve" smooth="yes"/>
      <point x="353" y="410"/>
      <point x="376" y="430"/>
      <point x="420" y="430" type="curve" smooth="yes"/>
      <point x="483" y="430"/>
      <point x="530" y="377"/>
      <point x="530" y="300" type="curve" smooth="yes"/>
      <point x="530" y="224"/>
      <point x="488" y="167"/>
      <point x="378" y="167" type="curve" smooth="yes"/>
      <point x="252" y="167"/>
      <point x="173" y="257"/>
      <point x="102" y="466" type="curve"/>
      <point x="29" y="442" type="line"/>
      <point x="121" y="174"/>
      <point x="239" y="91"/>
    </contour>
    <contour>
      <point x="344" y="465" type="curve"/>
      <point x="423" y="468" type="line"/>
      <point x="417" y="525"/>
      <point x="388" y="559"/>
      <point x="312" y="589" type="curve"/>
      <point x="267" y="601" type="line"/>
      <point x="243" y="556" type="line"/>
      <point x="306" y="542"/>
      <point x="337" y="508"/>
    </contour>
    <contour>
      <point x="1168" y="622" type="line"/>
      <point x="1062" y="622" type="line"/>
      <point x="1039" y="688" type="line"/>
      <point x="986" y="688" type="line"/>
      <point x="986" y="613" type="line" smooth="yes"/>
      <point x="986" y="596"/>
      <point x="988" y="566"/>
      <point x="990" y="559" type="curve"/>
      <point x="968" y="601"/>
      <point x="934" y="622"/>
      <point x="897" y="622" type="curve" smooth="yes"/>
      <point x="887" y="622" type="line"/>
      <point x="887" y="551" type="line"/>
      <point x="897" y="551" type="line" smooth="yes"/>
      <point x="936" y="551"/>
      <point x="963" y="531"/>
      <point x="986" y="479" type="curve"/>
      <point x="986" y="0" type="line"/>
      <point x="1063" y="0" type="line"/>
      <point x="1063" y="551" type="line"/>
      <point x="1168" y="551" type="line"/>
    </contour>
  </outline>
</glyph>
<glyph name="ibeng" format="2">
  <advance width="530"/>
  <unicode hex="0987"/>
  <outline>
    <contour>
      <point x="358" y="622" type="curve"/>
      <point x="430" y="622" type="line"/>
      <point x="428" y="677"/>
      <point x="417" y="712"/>
      <point x="394" y="734" type="curve" smooth="yes"/>
      <point x="365" y="762"/>
      <point x="328" y="771"/>
      <point x="257" y="771" type="curve" smooth="yes"/>
      <point x="200" y="771" type="line" smooth="yes"/>
      <point x="134" y="771"/>
      <point x="103" y="781"/>
      <point x="84" y="802" type="curve" smooth="yes"/>
      <point x="70" y="817"/>
      <point x="65" y="840"/>
      <point x="65" y="869" type="curve" smooth="yes"/>
      <point x="65" y="879"/>
      <point x="66" y="891"/>
      <point x="69" y="907" type="curve"/>
      <point x="-5" y="912" type="line"/>
      <point x="-8" y="893"/>
      <point x="-10" y="876"/>
      <point x="-10" y="859" type="curve" smooth="yes"/>
      <point x="-10" y="805"/>
      <point x="8" y="763"/>
      <point x="44" y="736" type="curve" smooth="yes"/>
      <point x="77" y="711"/>
      <point x="118" y="699"/>
      <point x="206" y="699" type="curve" smooth="yes"/>
      <point x="278" y="699" type="line" smooth="yes"/>
      <point x="334" y="699"/>
      <point x="356" y="677"/>
    </contour>
    <component base="habeng"/>
  </outline>
</glyph>
<glyph name="iibeng" format="2">
  <advance width="689"/>
  <unicode hex="0988"/>
  <outline>
    <contour>
      <point x="212" y="91" type="curve" smooth="yes"/>
      <point x="273" y="91"/>
      <point x="301" y="124"/>
      <point x="362" y="213" type="curve" smooth="yes"/>
      <point x="456" y="348"/>
      <point x="505" y="375"/>
      <point x="575" y="413" type="curve"/>
      <point x="537" y="401" type="line"/>
      <point x="506" y="347"/>
      <point x="495" y="287"/>
      <point x="495" y="217" type="curve" smooth="yes"/>
      <point x="495" y="139"/>
      <point x="510" y="68"/>
      <point x="533" y="-7" type="curve"/>
      <point x="608" y="10" type="line"/>
      <point x="584" y="83"/>
      <point x="573" y="137"/>
      <point x="573" y="201" type="curve" smooth="yes"/>
      <point x="573" y="286"/>
      <point x="588" y="344"/>
      <point x="625" y="413" type="curve"/>
      <point x="554" y="477" type="line"/>
      <point x="429" y="418"/>
      <point x="375" y="344"/>
      <point x="330" y="271" type="curve"/>
      <point x="383" y="285" type="line"/>
      <point x="384" y="291"/>
      <point x="385" y="303"/>
      <point x="385" y="311" type="curve" smooth="yes"/>
      <point x="385" y="423"/>
      <point x="319" y="500"/>
      <point x="202" y="500" type="curve" smooth="yes"/>
      <point x="132" y="500"/>
      <point x="63" y="469"/>
      <point x="63" y="393" type="curve" smooth="yes"/>
      <point x="63" y="374"/>
      <point x="67" y="348"/>
      <point x="80" y="320" type="curve"/>
      <point x="152" y="337" type="line"/>
      <point x="146" y="351"/>
      <point x="142" y="365"/>
      <point x="142" y="381" type="curve" smooth="yes"/>
      <point x="142" y="410"/>
      <point x="161" y="431"/>
      <point x="204" y="431" type="curve" smooth="yes"/>
      <point x="278" y="431"/>
      <point x="318" y="371"/>
      <point x="318" y="310" type="curve" smooth="yes"/>
      <point x="318" y="281"/>
      <point x="307" y="255"/>
      <point x="283" y="223" type="curve" smooth="yes"/>
      <point x="250" y="179"/>
      <point x="230" y="167"/>
      <point x="208" y="167" type="curve" smooth="yes"/>
      <point x="182" y="167"/>
      <point x="166" y="180"/>
      <point x="140" y="222" type="curve"/>
      <point x="82" y="185" type="line"/>
      <point x="122" y="121"/>
      <point x="164" y="91"/>
    </contour>
    <contour>
      <point x="699" y="622" type="line"/>
      <point x="-10" y="622" type="line"/>
      <point x="-10" y="551" type="line"/>
      <point x="699" y="551" type="line"/>
    </contour>
    <contour>
      <point x="148" y="465" type="curve"/>
      <point x="227" y="468" type="line"/>
      <point x="221" y="525"/>
      <point x="191" y="559"/>
      <point x="116" y="589" type="curve"/>
      <point x="70" y="601" type="line"/>
      <point x="46" y="556" type="line"/>
      <point x="109" y="542"/>
      <point x="141" y="508"/>
    </contour>
    <contour>
      <point x="478" y="622" type="curve"/>
      <point x="550" y="622" type="line"/>
      <point x="548" y="677"/>
      <point x="537" y="712"/>
      <point x="514" y="734" type="curve" smooth="yes"/>
      <point x="486" y="762"/>
      <point x="447" y="771"/>
      <point x="376" y="771" type="curve" smooth="yes"/>
      <point x="256" y="771" type="line" smooth="yes"/>
      <point x="190" y="771"/>
      <point x="159" y="781"/>
      <point x="140" y="802" type="curve" smooth="yes"/>
      <point x="126" y="817"/>
      <point x="121" y="840"/>
      <point x="121" y="869" type="curve" smooth="yes"/>
      <point x="121" y="879"/>
      <point x="122" y="891"/>
      <point x="125" y="907" type="curve"/>
      <point x="51" y="912" type="line"/>
      <point x="48" y="893"/>
      <point x="46" y="876"/>
      <point x="46" y="859" type="curve" smooth="yes"/>
      <point x="46" y="805"/>
      <point x="64" y="763"/>
      <point x="100" y="736" type="curve" smooth="yes"/>
      <point x="133" y="711"/>
      <point x="174" y="699"/>
      <point x="262" y="699" type="curve" smooth="yes"/>
      <point x="398" y="699" type="line" smooth="yes"/>
      <point x="454" y="699"/>
      <point x="476" y="677"/>
    </contour>
  </outline>
</glyph>
<glyph name="ubeng" format="2">
  <advance width="712"/>
  <unicode hex="0989"/>
  <outline>
    <contour>
      <point x="508" y="622" type="curve"/>
      <point x="580" y="622" type="line"/>
      <point x="578" y="677"/>
      <point x="567" y="712"/>
      <point x="544" y="734" type="curve" smooth="yes"/>
      <point x="515" y="762"/>
      <point x="478" y="771"/>
      <point x="407" y="771" type="curve" smooth="yes"/>
      <point x="283" y="771" type="line" smooth="yes"/>
      <point x="216" y="771"/>
      <point x="186" y="781"/>
      <point x="167" y="802" type="curve" smooth="yes"/>
      <point x="153" y="817"/>
      <point x="148" y="840"/>
      <point x="148" y="869" type="curve" smooth="yes"/>
      <point x="148" y="879"/>
      <point x="149" y="891"/>
      <point x="152" y="907" type="curve"/>
      <point x="78" y="912" type="line"/>
      <point x="75" y="893"/>
      <point x="73" y="876"/>
      <point x="73" y="859" type="curve" smooth="yes"/>
      <point x="73" y="805"/>
      <point x="91" y="763"/>
      <point x="127" y="736" type="curve" smooth="yes"/>
      <point x="160" y="711"/>
      <point x="201" y="699"/>
      <point x="288" y="699" type="curve" smooth="yes"/>
      <point x="428" y="699" type="line" smooth="yes"/>
      <point x="484" y="699"/>
      <point x="506" y="677"/>
    </contour>
    <component base="ddabeng"/>
  </outline>
</glyph>
<glyph name="uubeng" format="2">
  <advance width="853"/>
  <unicode hex="098A"/>
  <outline>
    <contour>
      <point x="863" y="622" type="line"/>
      <point x="-10" y="622" type="line"/>
      <point x="-10" y="551" type="line"/>
      <point x="419" y="551" type="line"/>
      <point x="419" y="393" type="line" smooth="yes"/>
      <point x="419" y="313"/>
      <point x="436" y="287"/>
      <point x="457" y="268" type="curve" smooth="yes"/>
      <point x="476" y="251"/>
      <point x="503" y="242"/>
      <point x="534" y="242" type="curve" smooth="yes"/>
      <point x="601" y="242"/>
      <point x="663" y="301"/>
      <point x="707" y="370" type="curve"/>
      <point x="680" y="368" type="line"/>
      <point x="699" y="345"/>
      <point x="720" y="305"/>
      <point x="720" y="244" type="curve" smooth="yes"/>
      <point x="720" y="166"/>
      <point x="668" y="100"/>
      <point x="555" y="100" type="curve" smooth="yes"/>
      <point x="411" y="100"/>
      <point x="341" y="209"/>
      <point x="274" y="461" type="curve"/>
      <point x="199" y="440" type="line"/>
      <point x="232" y="317"/>
      <point x="289" y="184"/>
      <point x="372" y="109" type="curve"/>
      <point x="369" y="106" type="line"/>
      <point x="223" y="192"/>
      <point x="156" y="312"/>
      <point x="104" y="458" type="curve"/>
      <point x="29" y="435" type="line"/>
      <point x="150" y="120"/>
      <point x="329" y="24"/>
      <point x="548" y="24" type="curve" smooth="yes"/>
      <point x="720" y="24"/>
      <point x="796" y="123"/>
      <point x="796" y="245" type="curve" smooth="yes"/>
      <point x="796" y="312"/>
      <point x="772" y="379"/>
      <point x="729" y="442" type="curve"/>
      <point x="669" y="433" type="line"/>
      <point x="612" y="350"/>
      <point x="571" y="316"/>
      <point x="533" y="316" type="curve" smooth="yes"/>
      <point x="507" y="316"/>
      <point x="496" y="333"/>
      <point x="496" y="372" type="curve" smooth="yes"/>
      <point x="496" y="551" type="line"/>
      <point x="863" y="551" type="line"/>
    </contour>
    <contour>
      <point x="649" y="622" type="curve"/>
      <point x="721" y="622" type="line"/>
      <point x="719" y="677"/>
      <point x="708" y="712"/>
      <point x="685" y="734" type="curve" smooth="yes"/>
      <point x="656" y="762"/>
      <point x="619" y="771"/>
      <point x="548" y="771" type="curve" smooth="yes"/>
      <point x="378" y="771" type="line" smooth="yes"/>
      <point x="312" y="771"/>
      <point x="281" y="781"/>
      <point x="262" y="802" type="curve" smooth="yes"/>
      <point x="248" y="817"/>
      <point x="243" y="840"/>
      <point x="243" y="869" type="curve" smooth="yes"/>
      <point x="243" y="880"/>
      <point x="244" y="892"/>
      <point x="247" y="907" type="curve"/>
      <point x="173" y="912" type="line"/>
      <point x="170" y="893"/>
      <point x="168" y="876"/>
      <point x="168" y="859" type="curve" smooth="yes"/>
      <point x="168" y="805"/>
      <point x="186" y="763"/>
      <point x="222" y="736" type="curve" smooth="yes"/>
      <point x="255" y="711"/>
      <point x="296" y="699"/>
      <point x="384" y="699" type="curve" smooth="yes"/>
      <point x="569" y="699" type="line" smooth="yes"/>
      <point x="625" y="699"/>
      <point x="647" y="677"/>
    </contour>
  </outline>
</glyph>
<glyph name="rvocalicbeng" format="2">
  <advance width="853"/>
  <unicode hex="098B"/>
  <outline>
    <contour>
      <point x="530" y="688" type="line"/>
      <point x="477" y="688" type="line"/>
      <point x="477" y="477" type="line"/>
      <point x="353" y="439"/>
      <point x="230" y="381"/>
      <point x="116" y="316" type="curve"/>
      <point x="155" y="224" type="line"/>
      <point x="298" y="202"/>
      <point x="421" y="106"/>
      <point x="477" y="0" type="curve"/>
      <point x="554" y="0" type="line"/>
      <point x="554" y="622" type="line"/>
    </contour>
    <contour>
      <point x="477" y="402" type="curve"/>
      <point x="477" y="187" type="line"/>
      <point x="477" y="154"/>
      <point x="479" y="131"/>
      <point x="480" y="108" type="curve"/>
      <point x="425" y="197"/>
      <point x="301" y="263"/>
      <point x="209" y="284" type="curve"/>
      <point x="292" y="331"/>
      <point x="391" y="374"/>
    </contour>
    <contour>
      <point x="417" y="455" type="curve"/>
      <point x="479" y="474" type="line"/>
      <point x="454" y="530"/>
      <point x="411" y="589"/>
      <point x="374" y="625" type="curve"/>
      <point x="320" y="573" type="line"/>
      <point x="360" y="545"/>
      <point x="396" y="496"/>
    </contour>
    <contour>
      <point x="183" y="430" type="curve" smooth="yes"/>
      <point x="271" y="430"/>
      <point x="335" y="493"/>
      <point x="378" y="574" type="curve"/>
      <point x="374" y="625" type="line"/>
      <point x="316" y="612" type="line"/>
      <point x="269" y="518"/>
      <point x="221" y="501"/>
      <point x="182" y="501" type="curve" smooth="yes"/>
      <point x="151" y="501"/>
      <point x="130" y="517"/>
      <point x="130" y="552" type="curve" smooth="yes"/>
      <point x="130" y="573"/>
      <point x="138" y="593"/>
      <point x="147" y="607" type="curve"/>
      <point x="71" y="628" type="line"/>
      <point x="59" y="608"/>
      <point x="49" y="579"/>
      <point x="49" y="548" type="curve" smooth="yes"/>
      <point x="49" y="474"/>
      <point x="102" y="430"/>
    </contour>
    <contour>
      <point x="738" y="688" type="line"/>
      <point x="685" y="688" type="line"/>
      <point x="685" y="257" type="line" smooth="yes"/>
      <point x="685" y="214"/>
      <point x="687" y="188"/>
      <point x="690" y="157" type="curve"/>
      <point x="697" y="160" type="line"/>
      <point x="673" y="215"/>
      <point x="603" y="286"/>
      <point x="546" y="318" type="curve"/>
      <point x="521" y="255" type="line"/>
      <point x="585" y="212"/>
      <point x="646" y="152"/>
      <point x="685" y="73" type="curve"/>
      <point x="762" y="73" type="line"/>
      <point x="762" y="622" type="line"/>
    </contour>
  </outline>
</glyph>
<glyph name="lvocalicbeng" format="2">
  <advance width="639"/>
  <unicode hex="098C"/>
  <outline>
    <contour>
      <point x="204" y="315" type="curve" smooth="yes"/>
      <point x="107" y="315"/>
      <point x="56" y="271"/>
      <point x="56" y="207" type="curve" smooth="yes"/>
      <point x="56" y="182"/>
      <point x="62" y="159"/>
      <point x="73" y="135" type="curve"/>
      <point x="148" y="152" type="line"/>
      <point x="141" y="165"/>
      <point x="137" y="183"/>
      <point x="137" y="196" type="curve" smooth="yes"/>
      <point x="137" y="224"/>
      <point x="157" y="245"/>
      <point x="207" y="245" type="curve" smooth="yes"/>
      <point x="264" y="245"/>
      <point x="292" y="214"/>
      <point x="292" y="169" type="curve" smooth="yes"/>
      <point x="292" y="120"/>
      <point x="257" y="89"/>
      <point x="196" y="68" type="curve"/>
      <point x="219" y="0" type="line"/>
      <point x="238" y="0" type="line" smooth="yes"/>
      <point x="426" y="0"/>
      <point x="594" y="58"/>
      <point x="594" y="222" type="curve" smooth="yes"/>
      <point x="594" y="323"/>
      <point x="551" y="395"/>
      <point x="341" y="464" type="curve" smooth="yes"/>
      <point x="163" y="522"/>
      <point x="144" y="549"/>
      <point x="144" y="588" type="curve" smooth="yes"/>
      <point x="144" y="609"/>
      <point x="159" y="631"/>
      <point x="195" y="665" type="curve"/>
      <point x="141" y="706" type="line"/>
      <point x="93" y="663"/>
      <point x="63" y="622"/>
      <point x="63" y="576" type="curve" smooth="yes"/>
      <point x="63" y="496"/>
      <point x="114" y="458"/>
      <point x="298" y="394" type="curve" smooth="yes"/>
      <point x="472" y="333"/>
      <point x="512" y="293"/>
      <point x="512" y="221" type="curve" smooth="yes"/>
      <point x="512" y="135"/>
      <point x="437" y="85"/>
      <point x="312" y="72" type="curve"/>
      <point x="314" y="62" type="line"/>
      <point x="352" y="95"/>
      <point x="369" y="129"/>
      <point x="369" y="181" type="curve" smooth="yes"/>
      <point x="369" y="259"/>
      <point x="299" y="315"/>
    </contour>
  </outline>
</glyph>
<glyph name="ebeng" format="2">
  <advance width="758"/>
  <unicode hex="098F"/>
  <outline>
    <contour>
      <point x="511" y="628" type="curve" smooth="yes"/>
      <point x="374" y="628"/>
      <point x="254" y="499"/>
      <point x="254" y="392" type="curve" smooth="yes"/>
      <point x="254" y="309"/>
      <point x="311" y="270"/>
      <point x="376" y="270" type="curve" smooth="yes"/>
      <point x="405" y="270"/>
      <point x="427" y="273"/>
      <point x="441" y="278" type="curve"/>
      <point x="434" y="348" type="line"/>
      <point x="419" y="346"/>
      <point x="407" y="345"/>
      <point x="392" y="345" type="curve" smooth="yes"/>
      <point x="341" y="345"/>
      <point x="333" y="373"/>
      <point x="333" y="393" type="curve" smooth="yes"/>
      <point x="333" y="459"/>
      <point x="418" y="557"/>
      <point x="514" y="557" type="curve" smooth="yes"/>
      <point x="540" y="557"/>
      <point x="557" y="552"/>
      <point x="569" y="542" type="curve" smooth="yes"/>
      <point x="583" y="529"/>
      <point x="590" y="512"/>
      <point x="590" y="463" type="curve" smooth="yes"/>
      <point x="590" y="106" type="line"/>
      <point x="561" y="146"/>
      <point x="518" y="161"/>
      <point x="461" y="161" type="curve" smooth="yes"/>
      <point x="391" y="161"/>
      <point x="343" y="144"/>
      <point x="276" y="144" type="curve" smooth="yes"/>
      <point x="202" y="144"/>
      <point x="124" y="162"/>
      <point x="124" y="280" type="curve" smooth="yes"/>
      <point x="124" y="319"/>
      <point x="130" y="346"/>
      <point x="135" y="366" type="curve"/>
      <point x="58" y="377" type="line"/>
      <point x="52" y="348"/>
      <point x="46" y="310"/>
      <point x="46" y="278" type="curve" smooth="yes"/>
      <point x="46" y="97"/>
      <point x="182" y="70"/>
      <point x="272" y="70" type="curve" smooth="yes"/>
      <point x="359" y="70"/>
      <point x="409" y="87"/>
      <point x="481" y="87" type="curve" smooth="yes"/>
      <point x="541" y="87"/>
      <point x="575" y="60"/>
      <point x="592" y="0" type="curve"/>
      <point x="667" y="0" type="line"/>
      <point x="667" y="490" type="line" smooth="yes"/>
      <point x="667" y="545"/>
      <point x="651" y="573"/>
      <point x="626" y="594" type="curve" smooth="yes"/>
      <point x="600" y="616"/>
      <point x="565" y="628"/>
    </contour>
  </outline>
</glyph>
<glyph name="aibeng" format="2">
  <advance width="873"/>
  <unicode hex="0990"/>
  <outline>
    <contour>
      <point x="511" y="628" type="curve" smooth="yes"/>
      <point x="374" y="628"/>
      <point x="254" y="499"/>
      <point x="254" y="392" type="curve" smooth="yes"/>
      <point x="254" y="309"/>
      <point x="311" y="270"/>
      <point x="376" y="270" type="curve" smooth="yes"/>
      <point x="405" y="270"/>
      <point x="427" y="273"/>
      <point x="441" y="278" type="curve"/>
      <point x="434" y="348" type="line"/>
      <point x="419" y="346"/>
      <point x="407" y="345"/>
      <point x="392" y="345" type="curve" smooth="yes"/>
      <point x="341" y="345"/>
      <point x="333" y="373"/>
      <point x="333" y="393" type="curve" smooth="yes"/>
      <point x="333" y="459"/>
      <point x="418" y="557"/>
      <point x="514" y="557" type="curve" smooth="yes"/>
      <point x="540" y="557"/>
      <point x="557" y="552"/>
      <point x="569" y="542" type="curve" smooth="yes"/>
      <point x="583" y="529"/>
      <point x="590" y="512"/>
      <point x="590" y="463" type="curve" smooth="yes"/>
      <point x="590" y="106" type="line"/>
      <point x="561" y="146"/>
      <point x="518" y="161"/>
      <point x="461" y="161" type="curve" smooth="yes"/>
      <point x="391" y="161"/>
      <point x="343" y="144"/>
      <point x="276" y="144" type="curve" smooth="yes"/>
      <point x="202" y="144"/>
      <point x="124" y="162"/>
      <point x="124" y="280" type="curve" smooth="yes"/>
      <point x="124" y="319"/>
      <point x="130" y="346"/>
      <point x="135" y="366" type="curve"/>
      <point x="58" y="377" type="line"/>
      <point x="52" y="348"/>
      <point x="46" y="310"/>
      <point x="46" y="278" type="curve" smooth="yes"/>
      <point x="46" y="97"/>
      <point x="182" y="70"/>
      <point x="272" y="70" type="curve" smooth="yes"/>
      <point x="359" y="70"/>
      <point x="409" y="87"/>
      <point x="481" y="87" type="curve" smooth="yes"/>
      <point x="541" y="87"/>
      <point x="575" y="60"/>
      <point x="592" y="0" type="curve"/>
      <point x="667" y="0" type="line"/>
      <point x="667" y="490" type="line" smooth="yes"/>
      <point x="667" y="545"/>
      <point x="651" y="573"/>
      <point x="626" y="594" type="curve" smooth="yes"/>
      <point x="600" y="616"/>
      <point x="565" y="628"/>
    </contour>
    <contour>
      <point x="831" y="575" type="curve" smooth="yes"/>
      <point x="831" y="627"/>
      <point x="812" y="671"/>
      <point x="779" y="702" type="curve" smooth="yes"/>
      <point x="744" y="734"/>
      <point x="693" y="753"/>
      <point x="605" y="765" type="curve" smooth="yes"/>
      <point x="474" y="783" type="line" smooth="yes"/>
      <point x="437" y="788"/>
      <point x="414" y="798"/>
      <point x="400" y="814" type="curve" smooth="yes"/>
      <point x="386" y="831"/>
      <point x="380" y="851"/>
      <point x="380" y="878" type="curve" smooth="yes"/>
      <point x="380" y="888"/>
      <point x="381" y="903"/>
      <point x="383" y="913" type="curve"/>
      <point x="309" y="917" type="line"/>
      <point x="307" y="905"/>
      <point x="305" y="887"/>
      <point x="305" y="875" type="curve" smooth="yes"/>
      <point x="305" y="773"/>
      <point x="358" y="724"/>
      <point x="482" y="707" type="curve" smooth="yes"/>
      <point x="586" y="693" type="line" smooth="yes"/>
      <point x="658" y="683"/>
      <point x="695" y="670"/>
      <point x="720" y="649" type="curve" smooth="yes"/>
      <point x="741" y="630"/>
      <point x="753" y="606"/>
      <point x="753" y="573" type="curve" smooth="yes"/>
      <point x="753" y="506"/>
      <point x="705" y="471"/>
      <point x="657" y="449" type="curve"/>
      <point x="657" y="370" type="line"/>
      <point x="750" y="410"/>
      <point x="831" y="467"/>
    </contour>
  </outline>
</glyph>
<glyph name="obeng" format="2">
  <advance width="738"/>
  <unicode hex="0993"/>
  <outline>
    <contour>
      <point x="509" y="629" type="curve" smooth="yes"/>
      <point x="371" y="629"/>
      <point x="251" y="521"/>
      <point x="251" y="431" type="curve" smooth="yes"/>
      <point x="251" y="374"/>
      <point x="289" y="335"/>
      <point x="365" y="321" type="curve"/>
      <point x="386" y="395" type="line"/>
      <point x="339" y="402"/>
      <point x="331" y="418"/>
      <point x="331" y="439" type="curve" smooth="yes"/>
      <point x="331" y="484"/>
      <point x="413" y="558"/>
      <point x="509" y="558" type="curve" smooth="yes"/>
      <point x="562" y="558"/>
      <point x="591" y="531"/>
      <point x="591" y="482" type="curve" smooth="yes"/>
      <point x="591" y="419"/>
      <point x="538" y="383"/>
      <point x="449" y="354" type="curve"/>
      <point x="480" y="282" type="line"/>
      <point x="591" y="323"/>
      <point x="671" y="386"/>
      <point x="671" y="483" type="curve" smooth="yes"/>
      <point x="671" y="574"/>
      <point x="611" y="629"/>
    </contour>
    <contour>
      <point x="681" y="225" type="curve" smooth="yes"/>
      <point x="681" y="289"/>
      <point x="648" y="341"/>
      <point x="589" y="373" type="curve"/>
      <point x="509" y="338" type="line"/>
      <point x="562" y="315"/>
      <point x="600" y="280"/>
      <point x="600" y="228" type="curve" smooth="yes"/>
      <point x="600" y="152"/>
      <point x="539" y="118"/>
      <point x="455" y="118" type="curve" smooth="yes"/>
      <point x="286" y="118"/>
      <point x="183" y="242"/>
      <point x="103" y="529" type="curve"/>
      <point x="28" y="507" type="line"/>
      <point x="117" y="168"/>
      <point x="265" y="42"/>
      <point x="453" y="42" type="curve" smooth="yes"/>
      <point x="593" y="42"/>
      <point x="681" y="114"/>
    </contour>
  </outline>
</glyph>
<glyph name="aubeng" format="2">
  <advance width="874"/>
  <unicode hex="0994"/>
  <outline>
    <contour>
      <point x="509" y="629" type="curve" smooth="yes"/>
      <point x="371" y="629"/>
      <point x="251" y="521"/>
      <point x="251" y="431" type="curve" smooth="yes"/>
      <point x="251" y="374"/>
      <point x="289" y="335"/>
      <point x="365" y="321" type="curve"/>
      <point x="386" y="395" type="line"/>
      <point x="339" y="402"/>
      <point x="331" y="418"/>
      <point x="331" y="439" type="curve" smooth="yes"/>
      <point x="331" y="484"/>
      <point x="413" y="558"/>
      <point x="509" y="558" type="curve" smooth="yes"/>
      <point x="562" y="558"/>
      <point x="591" y="531"/>
      <point x="591" y="482" type="curve" smooth="yes"/>
      <point x="591" y="419"/>
      <point x="538" y="383"/>
      <point x="449" y="354" type="curve"/>
      <point x="480" y="282" type="line"/>
      <point x="546" y="307"/>
      <point x="601" y="338"/>
      <point x="635" y="381" type="curve"/>
      <point x="632" y="402" type="line"/>
      <point x="654" y="428"/>
      <point x="670" y="457"/>
      <point x="670" y="488" type="curve" smooth="yes"/>
      <point x="670" y="573"/>
      <point x="611" y="629"/>
    </contour>
    <contour>
      <point x="681" y="225" type="curve" smooth="yes"/>
      <point x="681" y="289"/>
      <point x="648" y="341"/>
      <point x="589" y="373" type="curve"/>
      <point x="509" y="338" type="line"/>
      <point x="562" y="315"/>
      <point x="600" y="280"/>
      <point x="600" y="228" type="curve" smooth="yes"/>
      <point x="600" y="152"/>
      <point x="539" y="118"/>
      <point x="455" y="118" type="curve" smooth="yes"/>
      <point x="286" y="118"/>
      <point x="183" y="242"/>
      <point x="103" y="529" type="curve"/>
      <point x="28" y="507" type="line"/>
      <point x="117" y="168"/>
      <point x="265" y="42"/>
      <point x="453" y="42" type="curve" smooth="yes"/>
      <point x="593" y="42"/>
      <point x="681" y="114"/>
    </contour>
    <contour>
      <point x="832" y="577" type="curve" smooth="yes"/>
      <point x="832" y="633"/>
      <point x="811" y="679"/>
      <point x="771" y="710" type="curve" smooth="yes"/>
      <point x="737" y="737"/>
      <point x="694" y="753"/>
      <point x="625" y="762" type="curve" smooth="yes"/>
      <point x="484" y="781" type="line" smooth="yes"/>
      <point x="436" y="788"/>
      <point x="414" y="798"/>
      <point x="400" y="814" type="curve" smooth="yes"/>
      <point x="386" y="831"/>
      <point x="380" y="851"/>
      <point x="380" y="878" type="curve" smooth="yes"/>
      <point x="380" y="888"/>
      <point x="381" y="901"/>
      <point x="383" y="913" type="curve"/>
      <point x="309" y="917" type="line"/>
      <point x="307" y="904"/>
      <point x="305" y="885"/>
      <point x="305" y="875" type="curve" smooth="yes"/>
      <point x="305" y="773"/>
      <point x="355" y="725"/>
      <point x="482" y="707" type="curve" smooth="yes"/>
      <point x="600" y="691" type="line" smooth="yes"/>
      <point x="659" y="683"/>
      <point x="700" y="670"/>
      <point x="724" y="646" type="curve" smooth="yes"/>
      <point x="743" y="627"/>
      <point x="754" y="604"/>
      <point x="754" y="570" type="curve" smooth="yes"/>
      <point x="754" y="508"/>
      <point x="704" y="466"/>
      <point x="651" y="439" type="curve"/>
      <point x="597" y="343" type="line"/>
      <point x="738" y="398"/>
      <point x="832" y="460"/>
    </contour>
  </outline>
</glyph>
<glyph name="kabeng" format="2">
  <advance width="807"/>
  <unicode hex="0995"/>
  <outline>
    <contour>
      <point x="817" y="622" type="line"/>
      <point x="-10" y="622" type="line"/>
      <point x="-10" y="551" type="line"/>
      <point x="415" y="551" type="line"/>
      <point x="415" y="475" type="line"/>
      <point x="437" y="517" type="line"/>
      <point x="291" y="472"/>
      <point x="166" y="414"/>
      <point x="37" y="339" type="curve"/>
      <point x="76" y="243" type="line"/>
      <point x="222" y="224"/>
      <point x="357" y="118"/>
      <point x="415" y="0" type="curve"/>
      <point x="492" y="0" type="line"/>
      <point x="492" y="473" type="line"/>
      <point x="492" y="489" type="line"/>
      <point x="492" y="551" type="line"/>
      <point x="817" y="551" type="line"/>
    </contour>
    <contour>
      <point x="415" y="467" type="line"/>
      <point x="415" y="189" type="line" smooth="yes"/>
      <point x="415" y="146"/>
      <point x="417" y="119"/>
      <point x="420" y="88" type="curve"/>
      <point x="428" y="90" type="line"/>
      <point x="379" y="194"/>
      <point x="242" y="282"/>
      <point x="130" y="304" type="curve"/>
      <point x="216" y="351"/>
      <point x="333" y="409"/>
      <point x="436" y="438" type="curve"/>
    </contour>
    <contour>
      <point x="761" y="288" type="curve" smooth="yes"/>
      <point x="761" y="410"/>
      <point x="635" y="496"/>
      <point x="482" y="513" type="curve"/>
      <point x="479" y="438" type="line"/>
      <point x="614" y="419"/>
      <point x="683" y="366"/>
      <point x="683" y="296" type="curve" smooth="yes"/>
      <point x="683" y="261"/>
      <point x="670" y="233"/>
      <point x="606" y="233" type="curve" smooth="yes"/>
      <point x="591" y="233"/>
      <point x="580" y="234"/>
      <point x="572" y="235" type="curve"/>
      <point x="566" y="163" type="line"/>
      <point x="584" y="159"/>
      <point x="604" y="158"/>
      <point x="625" y="158" type="curve" smooth="yes"/>
      <point x="725" y="158"/>
      <point x="761" y="222"/>
    </contour>
  </outline>
</glyph>
<glyph name="khabeng" format="2">
  <advance width="696"/>
  <unicode hex="0996"/>
  <outline>
    <contour>
      <point x="706" y="622" type="line"/>
      <point x="600" y="622" type="line"/>
      <point x="577" y="688" type="line"/>
      <point x="524" y="688" type="line"/>
      <point x="524" y="193" type="line" smooth="yes"/>
      <point x="524" y="157"/>
      <point x="524" y="127"/>
      <point x="526" y="97" type="curve"/>
      <point x="471" y="173"/>
      <point x="375" y="264"/>
      <point x="190" y="296" type="curve"/>
      <point x="142" y="331" type="line"/>
      <point x="166" y="238" type="line"/>
      <point x="336" y="208"/>
      <point x="448" y="110"/>
      <point x="524" y="0" type="curve"/>
      <point x="601" y="0" type="line"/>
      <point x="601" y="551" type="line"/>
      <point x="706" y="551" type="line"/>
    </contour>
    <contour>
      <point x="450" y="470" type="curve" smooth="yes"/>
      <point x="450" y="530"/>
      <point x="416" y="583"/>
      <point x="371" y="625" type="curve" smooth="yes"/>
      <point x="316" y="571" type="line"/>
      <point x="357" y="539"/>
      <point x="375" y="507"/>
      <point x="375" y="466" type="curve" smooth="yes"/>
      <point x="375" y="391"/>
      <point x="303" y="343"/>
      <point x="142" y="331" type="curve"/>
      <point x="162" y="285" type="line"/>
      <point x="209" y="276" type="line"/>
      <point x="347" y="292"/>
      <point x="450" y="353"/>
    </contour>
    <contour>
      <point x="182" y="430" type="curve" smooth="yes"/>
      <point x="269" y="430"/>
      <point x="333" y="487"/>
      <point x="373" y="575" type="curve"/>
      <point x="371" y="625" type="line"/>
      <point x="316" y="612" type="line"/>
      <point x="269" y="518"/>
      <point x="221" y="501"/>
      <point x="182" y="501" type="curve" smooth="yes"/>
      <point x="151" y="501"/>
      <point x="130" y="517"/>
      <point x="130" y="552" type="curve" smooth="yes"/>
      <point x="130" y="573"/>
      <point x="138" y="593"/>
      <point x="147" y="607" type="curve"/>
      <point x="71" y="628" type="line"/>
      <point x="59" y="608"/>
      <point x="49" y="579"/>
      <point x="49" y="548" type="curve" smooth="yes"/>
      <point x="49" y="474"/>
      <point x="101" y="430"/>
    </contour>
  </outline>
</glyph>
<glyph name="gabeng" format="2">
  <advance width="656"/>
  <unicode hex="0997"/>
  <outline>
    <contour>
      <point x="484" y="0" type="line"/>
      <point x="561" y="0" type="line"/>
      <point x="561" y="551" type="line"/>
      <point x="666" y="551" type="line"/>
      <point x="666" y="622" type="line"/>
      <point x="560" y="622" type="line"/>
      <point x="537" y="688" type="line"/>
      <point x="484" y="688" type="line"/>
      <point x="484" y="585" type="line" smooth="yes"/>
      <point x="484" y="545"/>
      <point x="486" y="501"/>
      <point x="489" y="483" type="curve"/>
      <point x="507" y="472" type="line"/>
      <point x="426" y="576"/>
      <point x="354" y="629"/>
      <point x="255" y="629" type="curve" smooth="yes"/>
      <point x="156" y="629"/>
      <point x="83" y="562"/>
      <point x="22" y="458" type="curve"/>
      <point x="103" y="392" type="line"/>
      <point x="137" y="409"/>
      <point x="165" y="417"/>
      <point x="200" y="417" type="curve" smooth="yes"/>
      <point x="243" y="417"/>
      <point x="266" y="394"/>
      <point x="266" y="365" type="curve" smooth="yes"/>
      <point x="266" y="312"/>
      <point x="204" y="275"/>
      <point x="131" y="245" type="curve"/>
      <point x="182" y="172" type="line"/>
      <point x="294" y="232"/>
      <point x="346" y="290"/>
      <point x="346" y="369" type="curve" smooth="yes"/>
      <point x="346" y="423"/>
      <point x="308" y="487"/>
      <point x="216" y="487" type="curve" smooth="yes"/>
      <point x="165" y="487"/>
      <point x="124" y="474"/>
      <point x="106" y="457" type="curve"/>
      <point x="120" y="465" type="line"/>
      <point x="153" y="513"/>
      <point x="192" y="556"/>
      <point x="263" y="556" type="curve" smooth="yes"/>
      <point x="348" y="556"/>
      <point x="412" y="495"/>
      <point x="505" y="362" type="curve"/>
      <point x="484" y="425" type="line"/>
    </contour>
  </outline>
</glyph>
<glyph name="ghabeng" format="2">
  <advance width="631"/>
  <unicode hex="0998"/>
  <outline>
    <contour>
      <point x="641" y="622" type="line"/>
      <point x="-10" y="622" type="line"/>
      <point x="-10" y="551" type="line"/>
      <point x="459" y="551" type="line"/>
      <point x="459" y="165" type="line" smooth="yes"/>
      <point x="459" y="140"/>
      <point x="460" y="114"/>
      <point x="461" y="92" type="curve"/>
      <point x="387" y="171"/>
      <point x="297" y="228"/>
      <point x="144" y="251" type="curve"/>
      <point x="157" y="234" type="line"/>
      <point x="215" y="279"/>
      <point x="302" y="338"/>
      <point x="374" y="381" type="curve"/>
      <point x="331" y="441" type="line"/>
      <point x="288" y="412"/>
      <point x="253" y="404"/>
      <point x="224" y="404" type="curve" smooth="yes"/>
      <point x="177" y="404"/>
      <point x="137" y="422"/>
      <point x="137" y="472" type="curve" smooth="yes"/>
      <point x="137" y="513"/>
      <point x="167" y="551"/>
      <point x="240" y="581" type="curve"/>
      <point x="171" y="616" type="line"/>
      <point x="95" y="568"/>
      <point x="56" y="529"/>
      <point x="56" y="469" type="curve" smooth="yes"/>
      <point x="56" y="390"/>
      <point x="119" y="343"/>
      <point x="234" y="343" type="curve" smooth="yes"/>
      <point x="246" y="343"/>
      <point x="259" y="345"/>
      <point x="276" y="350" type="curve"/>
      <point x="219" y="358" type="line"/>
      <point x="170" y="328"/>
      <point x="127" y="300"/>
      <point x="83" y="266" type="curve"/>
      <point x="118" y="179" type="line"/>
      <point x="270" y="169"/>
      <point x="396" y="85"/>
      <point x="459" y="0" type="curve"/>
      <point x="536" y="0" type="line"/>
      <point x="536" y="551" type="line"/>
      <point x="641" y="551" type="line"/>
    </contour>
  </outline>
</glyph>
<glyph name="ngabeng" format="2">
  <advance width="723"/>
  <unicode hex="0999"/>
  <outline>
    <contour>
      <point x="419" y="9" type="curve" smooth="yes"/>
      <point x="583" y="9"/>
      <point x="667" y="99"/>
      <point x="667" y="215" type="curve" smooth="yes"/>
      <point x="667" y="275"/>
      <point x="647" y="334"/>
      <point x="616" y="383" type="curve"/>
      <point x="546" y="380" type="line"/>
      <point x="482" y="308"/>
      <point x="445" y="282"/>
      <point x="399" y="282" type="curve" smooth="yes"/>
      <point x="367" y="282"/>
      <point x="357" y="304"/>
      <point x="357" y="337" type="curve" smooth="yes"/>
      <point x="357" y="438" type="line" smooth="yes"/>
      <point x="357" y="508"/>
      <point x="392" y="563"/>
      <point x="455" y="563" type="curve" smooth="yes"/>
      <point x="488" y="563"/>
      <point x="509" y="547"/>
      <point x="509" y="520" type="curve" smooth="yes"/>
      <point x="509" y="489"/>
      <point x="487" y="464"/>
      <point x="432" y="464" type="curve" smooth="yes"/>
      <point x="314" y="464"/>
      <point x="243" y="541"/>
      <point x="179" y="623" type="curve"/>
      <point x="118" y="582" type="line"/>
      <point x="185" y="487"/>
      <point x="292" y="398"/>
      <point x="431" y="398" type="curve" smooth="yes"/>
      <point x="511" y="398"/>
      <point x="584" y="439"/>
      <point x="584" y="519" type="curve" smooth="yes"/>
      <point x="584" y="592"/>
      <point x="529" y="629"/>
      <point x="456" y="629" type="curve" smooth="yes"/>
      <point x="364" y="629"/>
      <point x="284" y="567"/>
      <point x="284" y="443" type="curve" smooth="yes"/>
      <point x="284" y="352" type="line" smooth="yes"/>
      <point x="284" y="279"/>
      <point x="301" y="252"/>
      <point x="324" y="233" type="curve" smooth="yes"/>
      <point x="343" y="217"/>
      <point x="371" y="209"/>
      <point x="402" y="209" type="curve" smooth="yes"/>
      <point x="456" y="209"/>
      <point x="519" y="239"/>
      <point x="594" y="333" type="curve"/>
      <point x="548" y="347" type="line"/>
      <point x="585" y="289"/>
      <point x="592" y="254"/>
      <point x="592" y="217" type="curve" smooth="yes"/>
      <point x="592" y="135"/>
      <point x="525" y="85"/>
      <point x="418" y="85" type="curve" smooth="yes"/>
      <point x="269" y="85"/>
      <point x="179" y="178"/>
      <point x="105" y="461" type="curve"/>
      <point x="29" y="440" type="line"/>
      <point x="117" y="110"/>
      <point x="242" y="9"/>
    </contour>
  </outline>
</glyph>
<glyph name="cabeng" format="2">
  <advance width="567"/>
  <unicode hex="099A"/>
  <outline>
    <contour>
      <point x="577" y="622" type="line"/>
      <point x="-10" y="622" type="line"/>
      <point x="-10" y="551" type="line"/>
      <point x="95" y="551" type="line"/>
      <point x="95" y="191" type="line" smooth="yes"/>
      <point x="95" y="117"/>
      <point x="110" y="88"/>
      <point x="132" y="63" type="curve" smooth="yes"/>
      <point x="154" y="40"/>
      <point x="189" y="24"/>
      <point x="238" y="24" type="curve" smooth="yes"/>
      <point x="308" y="24"/>
      <point x="364" y="51"/>
      <point x="415" y="95" type="curve" smooth="yes"/>
      <point x="473" y="145"/>
      <point x="517" y="224"/>
      <point x="517" y="306" type="curve" smooth="yes"/>
      <point x="517" y="351"/>
      <point x="502" y="384"/>
      <point x="472" y="403" type="curve" smooth="yes"/>
      <point x="451" y="416"/>
      <point x="427" y="423"/>
      <point x="377" y="423" type="curve" smooth="yes"/>
      <point x="361" y="423" type="line" smooth="yes"/>
      <point x="253" y="423"/>
      <point x="212" y="462"/>
      <point x="171" y="534" type="curve"/>
      <point x="161" y="447" type="line"/>
      <point x="177" y="418"/>
      <point x="204" y="394"/>
      <point x="235" y="377" type="curve" smooth="yes"/>
      <point x="270" y="359"/>
      <point x="301" y="349"/>
      <point x="363" y="349" type="curve" smooth="yes"/>
      <point x="368" y="349" type="line" smooth="yes"/>
      <point x="412" y="349"/>
      <point x="438" y="340"/>
      <point x="438" y="296" type="curve" smooth="yes"/>
      <point x="438" y="247"/>
      <point x="416" y="202"/>
      <point x="379" y="162" type="curve" smooth="yes"/>
      <point x="343" y="124"/>
      <point x="297" y="96"/>
      <point x="244" y="96" type="curve" smooth="yes"/>
      <point x="217" y="96"/>
      <point x="202" y="102"/>
      <point x="189" y="117" type="curve" smooth="yes"/>
      <point x="180" y="128"/>
      <point x="172" y="146"/>
      <point x="172" y="205" type="curve" smooth="yes"/>
      <point x="172" y="378" type="line" smooth="yes"/>
      <point x="172" y="406"/>
      <point x="170" y="441"/>
      <point x="168" y="458" type="curve"/>
      <point x="172" y="521" type="line"/>
      <point x="172" y="551" type="line"/>
      <point x="577" y="551" type="line"/>
    </contour>
  </outline>
</glyph>
<glyph name="chabeng" format="2">
  <advance width="687"/>
  <unicode hex="099B"/>
  <outline>
    <contour>
      <point x="615" y="310" type="curve" smooth="yes"/>
      <point x="615" y="375"/>
      <point x="577" y="483"/>
      <point x="423" y="483" type="curve" smooth="yes"/>
      <point x="409" y="483"/>
      <point x="385" y="482"/>
      <point x="372" y="481" type="curve"/>
      <point x="382" y="416" type="line"/>
      <point x="392" y="418"/>
      <point x="403" y="419"/>
      <point x="412" y="419" type="curve" smooth="yes"/>
      <point x="491" y="419"/>
      <point x="538" y="381"/>
      <point x="538" y="310" type="curve" smooth="yes"/>
      <point x="538" y="231"/>
      <point x="468" y="152"/>
      <point x="290" y="152" type="curve" smooth="yes"/>
      <point x="231" y="152"/>
      <point x="191" y="158"/>
      <point x="152" y="166" type="curve"/>
      <point x="143" y="94" type="line"/>
      <point x="327" y="76"/>
      <point x="493" y="35"/>
      <point x="649" y="-49" type="curve"/>
      <point x="684" y="11" type="line"/>
      <point x="565" y="73"/>
      <point x="468" y="104"/>
      <point x="359" y="120" type="curve"/>
      <point x="380" y="97" type="line"/>
      <point x="491" y="108"/>
      <point x="615" y="164"/>
    </contour>
    <contour>
      <point x="227" y="217" type="curve" smooth="yes"/>
      <point x="353" y="217"/>
      <point x="450" y="290"/>
      <point x="450" y="388" type="curve" smooth="yes"/>
      <point x="450" y="427"/>
      <point x="428" y="450"/>
      <point x="402" y="463" type="curve" smooth="yes"/>
      <point x="386" y="471"/>
      <point x="386" y="481"/>
      <point x="372" y="481" type="curve" smooth="yes"/>
      <point x="323" y="481" type="line" smooth="yes"/>
      <point x="235" y="481"/>
      <point x="202" y="505"/>
      <point x="168" y="544" type="curve"/>
      <point x="155" y="480" type="line"/>
      <point x="191" y="439"/>
      <point x="246" y="413"/>
      <point x="316" y="413" type="curve" smooth="yes"/>
      <point x="322" y="413" type="line" smooth="yes"/>
      <point x="354" y="413"/>
      <point x="374" y="409"/>
      <point x="374" y="384" type="curve" smooth="yes"/>
      <point x="374" y="342"/>
      <point x="318" y="286"/>
      <point x="233" y="286" type="curve" smooth="yes"/>
      <point x="210" y="286"/>
      <point x="195" y="290"/>
      <point x="184" y="301" type="curve" smooth="yes"/>
      <point x="174" y="311"/>
      <point x="168" y="324"/>
      <point x="168" y="359" type="curve" smooth="yes"/>
      <point x="168" y="420" type="line" smooth="yes"/>
      <point x="168" y="442"/>
      <point x="167" y="460"/>
      <point x="166" y="476" type="curve"/>
      <point x="168" y="521" type="line"/>
      <point x="168" y="559" type="line"/>
      <point x="91" y="559" type="line"/>
      <point x="91" y="359" type="line" smooth="yes"/>
      <point x="91" y="296"/>
      <point x="105" y="269"/>
      <point x="125" y="249" type="curve" smooth="yes"/>
      <point x="146" y="228"/>
      <point x="181" y="217"/>
    </contour>
    <contour>
      <point x="-10" y="551" type="line"/>
      <point x="697" y="551" type="line"/>
      <point x="697" y="622" type="line"/>
      <point x="-10" y="622" type="line"/>
    </contour>
  </outline>
</glyph>
<glyph name="jabeng" format="2">
  <advance width="917"/>
  <unicode hex="099C"/>
  <outline>
    <contour>
      <point x="401" y="63" type="curve" smooth="yes"/>
      <point x="567" y="63"/>
      <point x="630" y="154"/>
      <point x="630" y="254" type="curve" smooth="yes"/>
      <point x="630" y="297"/>
      <point x="621" y="338"/>
      <point x="609" y="365" type="curve"/>
      <point x="523" y="396" type="line"/>
      <point x="472" y="352"/>
      <point x="438" y="328"/>
      <point x="387" y="328" type="curve" smooth="yes"/>
      <point x="360" y="328"/>
      <point x="335" y="343"/>
      <point x="335" y="380" type="curve" smooth="yes"/>
      <point x="335" y="426"/>
      <point x="367" y="478"/>
      <point x="535" y="554" type="curve"/>
      <point x="558" y="553"/>
      <point x="582" y="551"/>
      <point x="614" y="551" type="curve" smooth="yes"/>
      <point x="927" y="551" type="line"/>
      <point x="927" y="622" type="line"/>
      <point x="-10" y="622" type="line"/>
      <point x="-10" y="551" type="line"/>
      <point x="298" y="551" type="line" smooth="yes"/>
      <point x="331" y="551"/>
      <point x="367" y="551"/>
      <point x="394" y="553" type="curve"/>
      <point x="295" y="507"/>
      <point x="258" y="442"/>
      <point x="258" y="384" type="curve" smooth="yes"/>
      <point x="258" y="303"/>
      <point x="312" y="257"/>
      <point x="391" y="257" type="curve" smooth="yes"/>
      <point x="472" y="257"/>
      <point x="534" y="300"/>
      <point x="590" y="358" type="curve"/>
      <point x="530" y="358" type="line"/>
      <point x="541" y="338"/>
      <point x="554" y="309"/>
      <point x="554" y="268" type="curve" smooth="yes"/>
      <point x="554" y="181"/>
      <point x="502" y="139"/>
      <point x="404" y="139" type="curve" smooth="yes"/>
      <point x="262" y="139"/>
      <point x="172" y="238"/>
      <point x="105" y="485" type="curve"/>
      <point x="29" y="465" type="line"/>
      <point x="111" y="165"/>
      <point x="244" y="63"/>
    </contour>
    <contour>
      <point x="801" y="205" type="curve" smooth="yes"/>
      <point x="801" y="280"/>
      <point x="813" y="332"/>
      <point x="845" y="392" type="curve"/>
      <point x="806" y="462" type="line"/>
      <point x="786" y="460"/>
      <point x="769" y="459"/>
      <point x="751" y="459" type="curve" smooth="yes"/>
      <point x="637" y="459"/>
      <point x="582" y="501"/>
      <point x="551" y="559" type="curve"/>
      <point x="475" y="543" type="line"/>
      <point x="525" y="446"/>
      <point x="603" y="389"/>
      <point x="755" y="388" type="curve"/>
      <point x="738" y="349"/>
      <point x="723" y="293"/>
      <point x="723" y="222" type="curve" smooth="yes"/>
      <point x="723" y="142"/>
      <point x="737" y="70"/>
      <point x="761" y="-7" type="curve"/>
      <point x="836" y="10" type="line"/>
      <point x="811" y="85"/>
      <point x="801" y="140"/>
    </contour>
  </outline>
</glyph>
<glyph name="jhabeng" format="2">
  <advance width="794"/>
  <unicode hex="099D"/>
  <outline>
    <contour>
      <point x="492" y="622" type="line"/>
      <point x="-10" y="622" type="line"/>
      <point x="-10" y="551" type="line"/>
      <point x="415" y="551" type="line"/>
      <point x="415" y="482" type="line"/>
      <point x="436" y="524" type="line"/>
      <point x="298" y="481"/>
      <point x="164" y="415"/>
      <point x="37" y="339" type="curve"/>
      <point x="76" y="243" type="line"/>
      <point x="222" y="224"/>
      <point x="357" y="118"/>
      <point x="415" y="0" type="curve"/>
      <point x="492" y="0" type="line"/>
    </contour>
    <contour>
      <point x="415" y="474" type="line"/>
      <point x="415" y="189" type="line"/>
      <point x="415" y="146"/>
      <point x="417" y="119"/>
      <point x="420" y="88" type="curve"/>
      <point x="428" y="90" type="line"/>
      <point x="379" y="194"/>
      <point x="242" y="282"/>
      <point x="130" y="304" type="curve"/>
      <point x="226" y="362"/>
      <point x="336" y="414"/>
      <point x="435" y="446" type="curve"/>
    </contour>
    <contour>
      <point x="804" y="622" type="line"/>
      <point x="698" y="622" type="line"/>
      <point x="675" y="688" type="line"/>
      <point x="622" y="688" type="line"/>
      <point x="622" y="257" type="line" smooth="yes"/>
      <point x="622" y="214"/>
      <point x="623" y="188"/>
      <point x="626" y="157" type="curve"/>
      <point x="634" y="160" type="line"/>
      <point x="610" y="215"/>
      <point x="540" y="286"/>
      <point x="483" y="318" type="curve"/>
      <point x="458" y="255" type="line"/>
      <point x="523" y="212"/>
      <point x="582" y="152"/>
      <point x="622" y="73" type="curve"/>
      <point x="699" y="73" type="line"/>
      <point x="699" y="551" type="line"/>
      <point x="804" y="551" type="line"/>
    </contour>
  </outline>
</glyph>
<glyph name="nyabeng" format="2">
  <advance width="1019"/>
  <unicode hex="099E"/>
  <outline>
    <contour>
      <point x="511" y="628" type="curve" smooth="yes"/>
      <point x="374" y="628"/>
      <point x="254" y="499"/>
      <point x="254" y="392" type="curve" smooth="yes"/>
      <point x="254" y="309"/>
      <point x="311" y="270"/>
      <point x="376" y="270" type="curve" smooth="yes"/>
      <point x="405" y="270"/>
      <point x="427" y="273"/>
      <point x="441" y="278" type="curve"/>
      <point x="434" y="348" type="line"/>
      <point x="419" y="346"/>
      <point x="407" y="345"/>
      <point x="392" y="345" type="curve" smooth="yes"/>
      <point x="341" y="345"/>
      <point x="333" y="373"/>
      <point x="333" y="393" type="curve" smooth="yes"/>
      <point x="333" y="459"/>
      <point x="418" y="557"/>
      <point x="514" y="557" type="curve" smooth="yes"/>
      <point x="540" y="557"/>
      <point x="557" y="552"/>
      <point x="569" y="542" type="curve" smooth="yes"/>
      <point x="583" y="529"/>
      <point x="590" y="512"/>
      <point x="590" y="463" type="curve" smooth="yes"/>
      <point x="590" y="106" type="line"/>
      <point x="561" y="146"/>
      <point x="518" y="161"/>
      <point x="461" y="161" type="curve" smooth="yes"/>
      <point x="391" y="161"/>
      <point x="343" y="144"/>
      <point x="276" y="144" type="curve" smooth="yes"/>
      <point x="202" y="144"/>
      <point x="124" y="162"/>
      <point x="124" y="280" type="curve" smooth="yes"/>
      <point x="124" y="319"/>
      <point x="130" y="346"/>
      <point x="135" y="366" type="curve"/>
      <point x="58" y="377" type="line"/>
      <point x="52" y="348"/>
      <point x="46" y="310"/>
      <point x="46" y="278" type="curve" smooth="yes"/>
      <point x="46" y="97"/>
      <point x="182" y="70"/>
      <point x="272" y="70" type="curve" smooth="yes"/>
      <point x="359" y="70"/>
      <point x="409" y="87"/>
      <point x="481" y="87" type="curve" smooth="yes"/>
      <point x="541" y="87"/>
      <point x="575" y="60"/>
      <point x="592" y="0" type="curve"/>
      <point x="667" y="0" type="line"/>
      <point x="667" y="190" type="line" smooth="yes"/>
      <point x="667" y="217"/>
      <point x="667" y="247"/>
      <point x="661" y="274" type="curve"/>
      <point x="667" y="290" type="line"/>
      <point x="667" y="475" type="line"/>
      <point x="664" y="495" type="line"/>
      <point x="664" y="545"/>
      <point x="649" y="573"/>
      <point x="625" y="594" type="curve" smooth="yes"/>
      <point x="598" y="616"/>
      <point x="564" y="628"/>
    </contour>
    <contour>
      <point x="824" y="607" type="curve" smooth="yes"/>
      <point x="755" y="607"/>
      <point x="706" y="576"/>
      <point x="657" y="522" type="curve"/>
      <point x="662" y="415" type="line"/>
      <point x="704" y="488"/>
      <point x="758" y="538"/>
      <point x="819" y="538" type="curve" smooth="yes"/>
      <point x="854" y="538"/>
      <point x="883" y="521"/>
      <point x="883" y="485" type="curve" smooth="yes"/>
      <point x="883" y="451"/>
      <point x="856" y="423"/>
      <point x="785" y="412" type="curve"/>
      <point x="802" y="344" type="line"/>
      <point x="937" y="372"/>
      <point x="959" y="443"/>
      <point x="959" y="493" type="curve" smooth="yes"/>
      <point x="959" y="560"/>
      <point x="907" y="607"/>
    </contour>
    <contour>
      <point x="823" y="167" type="curve" smooth="yes"/>
      <point x="916" y="167"/>
      <point x="965" y="225"/>
      <point x="965" y="291" type="curve" smooth="yes"/>
      <point x="965" y="359"/>
      <point x="916" y="396"/>
      <point x="874" y="413" type="curve"/>
      <point x="818" y="373" type="line"/>
      <point x="869" y="355"/>
      <point x="889" y="329"/>
      <point x="889" y="294" type="curve" smooth="yes"/>
      <point x="889" y="255"/>
      <point x="856" y="236"/>
      <point x="820" y="236" type="curve" smooth="yes"/>
      <point x="747" y="236"/>
      <point x="690" y="294"/>
      <point x="662" y="400" type="curve"/>
      <point x="619" y="348" type="line"/>
      <point x="660" y="260" type="line"/>
      <point x="694" y="207"/>
      <point x="742" y="167"/>
    </contour>
  </outline>
</glyph>
<glyph name="ttabeng" format="2">
  <advance width="567"/>
  <unicode hex="099F"/>
  <outline>
    <contour>
      <point x="577" y="622" type="line"/>
      <point x="-10" y="622" type="line"/>
      <point x="-10" y="551" type="line"/>
      <point x="95" y="551" type="line"/>
      <point x="95" y="191" type="line" smooth="yes"/>
      <point x="95" y="117"/>
      <point x="110" y="88"/>
      <point x="132" y="63" type="curve" smooth="yes"/>
      <point x="155" y="40"/>
      <point x="189" y="24"/>
      <point x="239" y="24" type="curve" smooth="yes"/>
      <point x="308" y="24"/>
      <point x="365" y="52"/>
      <point x="415" y="95" type="curve" smooth="yes"/>
      <point x="473" y="146"/>
      <point x="517" y="224"/>
      <point x="517" y="303" type="curve" smooth="yes"/>
      <point x="517" y="398"/>
      <point x="463" y="439"/>
      <point x="389" y="439" type="curve" smooth="yes"/>
      <point x="358" y="439"/>
      <point x="331" y="435"/>
      <point x="306" y="428" type="curve"/>
      <point x="317" y="357" type="line"/>
      <point x="334" y="361"/>
      <point x="354" y="364"/>
      <point x="370" y="364" type="curve" smooth="yes"/>
      <point x="419" y="364"/>
      <point x="439" y="341"/>
      <point x="439" y="299" type="curve" smooth="yes"/>
      <point x="439" y="251"/>
      <point x="417" y="203"/>
      <point x="379" y="162" type="curve" smooth="yes"/>
      <point x="344" y="124"/>
      <point x="296" y="96"/>
      <point x="244" y="96" type="curve" smooth="yes"/>
      <point x="217" y="96"/>
      <point x="202" y="102"/>
      <point x="189" y="117" type="curve" smooth="yes"/>
      <point x="180" y="128"/>
      <point x="172" y="146"/>
      <point x="172" y="205" type="curve" smooth="yes"/>
      <point x="172" y="551" type="line"/>
      <point x="577" y="551" type="line"/>
    </contour>
    <contour>
      <point x="395" y="622" type="curve"/>
      <point x="467" y="622" type="line"/>
      <point x="465" y="677"/>
      <point x="454" y="712"/>
      <point x="431" y="734" type="curve" smooth="yes"/>
      <point x="402" y="762"/>
      <point x="365" y="771"/>
      <point x="294" y="771" type="curve" smooth="yes"/>
      <point x="216" y="771" type="line" smooth="yes"/>
      <point x="150" y="771"/>
      <point x="119" y="781"/>
      <point x="100" y="802" type="curve" smooth="yes"/>
      <point x="86" y="817"/>
      <point x="81" y="840"/>
      <point x="81" y="869" type="curve" smooth="yes"/>
      <point x="81" y="882"/>
      <point x="82" y="892"/>
      <point x="85" y="907" type="curve"/>
      <point x="11" y="912" type="line"/>
      <point x="8" y="892"/>
      <point x="6" y="876"/>
      <point x="6" y="859" type="curve" smooth="yes"/>
      <point x="6" y="805"/>
      <point x="24" y="763"/>
      <point x="60" y="736" type="curve" smooth="yes"/>
      <point x="93" y="711"/>
      <point x="134" y="699"/>
      <point x="221" y="699" type="curve" smooth="yes"/>
      <point x="315" y="699" type="line" smooth="yes"/>
      <point x="371" y="699"/>
      <point x="393" y="677"/>
    </contour>
  </outline>
</glyph>
<glyph name="tthabeng" format="2">
  <advance width="591"/>
  <unicode hex="09A0"/>
  <outline>
    <contour>
      <point x="282" y="0" type="curve" smooth="yes"/>
      <point x="439" y="0"/>
      <point x="529" y="98"/>
      <point x="529" y="240" type="curve" smooth="yes"/>
      <point x="529" y="363"/>
      <point x="462" y="456"/>
      <point x="365" y="553" type="curve"/>
      <point x="385" y="551"/>
      <point x="401" y="551"/>
      <point x="427" y="551" type="curve" smooth="yes"/>
      <point x="601" y="551" type="line"/>
      <point x="601" y="622" type="line"/>
      <point x="291" y="622" type="line"/>
      <point x="240" y="680"/>
      <point x="208" y="722"/>
      <point x="208" y="764" type="curve" smooth="yes"/>
      <point x="208" y="803"/>
      <point x="226" y="828"/>
      <point x="269" y="861" type="curve"/>
      <point x="218" y="917" type="line"/>
      <point x="161" y="875"/>
      <point x="129" y="832"/>
      <point x="129" y="776" type="curve" smooth="yes"/>
      <point x="129" y="726"/>
      <point x="157" y="680"/>
      <point x="200" y="622" type="curve"/>
      <point x="-10" y="622" type="line"/>
      <point x="-10" y="551" type="line"/>
      <point x="242" y="551" type="line"/>
      <point x="257" y="516"/>
      <point x="263" y="478"/>
      <point x="263" y="448" type="curve" smooth="yes"/>
      <point x="263" y="344"/>
      <point x="221" y="263"/>
      <point x="58" y="247" type="curve"/>
      <point x="36" y="168" type="line"/>
      <point x="73" y="69"/>
      <point x="162" y="0"/>
    </contour>
    <contour>
      <point x="280" y="74" type="curve" smooth="yes"/>
      <point x="199" y="74"/>
      <point x="119" y="122"/>
      <point x="100" y="229" type="curve"/>
      <point x="86" y="168" type="line"/>
      <point x="284" y="206"/>
      <point x="333" y="306"/>
      <point x="333" y="406" type="curve" smooth="yes"/>
      <point x="333" y="458"/>
      <point x="322" y="495"/>
      <point x="309" y="532" type="curve"/>
      <point x="293" y="536" type="line"/>
      <point x="409" y="415"/>
      <point x="448" y="336"/>
      <point x="448" y="244" type="curve" smooth="yes"/>
      <point x="448" y="155"/>
      <point x="396" y="74"/>
    </contour>
  </outline>
</glyph>
<glyph name="ddhabeng" format="2">
  <advance width="567"/>
  <unicode hex="09A2"/>
  <outline>
    <contour>
      <point x="577" y="622" type="line"/>
      <point x="-10" y="622" type="line"/>
      <point x="-10" y="551" type="line"/>
      <point x="95" y="551" type="line"/>
      <point x="95" y="191" type="line" smooth="yes"/>
      <point x="95" y="117"/>
      <point x="110" y="88"/>
      <point x="132" y="63" type="curve" smooth="yes"/>
      <point x="155" y="40"/>
      <point x="189" y="24"/>
      <point x="239" y="24" type="curve" smooth="yes"/>
      <point x="308" y="24"/>
      <point x="365" y="52"/>
      <point x="415" y="95" type="curve" smooth="yes"/>
      <point x="473" y="146"/>
      <point x="517" y="224"/>
      <point x="517" y="303" type="curve" smooth="yes"/>
      <point x="517" y="398"/>
      <point x="463" y="439"/>
      <point x="389" y="439" type="curve" smooth="yes"/>
      <point x="358" y="439"/>
      <point x="331" y="435"/>
      <point x="306" y="428" type="curve"/>
      <point x="317" y="357" type="line"/>
      <point x="334" y="361"/>
      <point x="354" y="364"/>
      <point x="370" y="364" type="curve" smooth="yes"/>
      <point x="419" y="364"/>
      <point x="439" y="341"/>
      <point x="439" y="299" type="curve" smooth="yes"/>
      <point x="439" y="251"/>
      <point x="417" y="203"/>
      <point x="379" y="162" type="curve" smooth="yes"/>
      <point x="344" y="124"/>
      <point x="296" y="96"/>
      <point x="244" y="96" type="curve" smooth="yes"/>
      <point x="217" y="96"/>
      <point x="202" y="102"/>
      <point x="189" y="117" type="curve" smooth="yes"/>
      <point x="180" y="128"/>
      <point x="172" y="146"/>
      <point x="172" y="205" type="curve" smooth="yes"/>
      <point x="172" y="551" type="line"/>
      <point x="577" y="551" type="line"/>
    </contour>
  </outline>
</glyph>
<glyph name="nnabeng" format="2">
  <advance width="620"/>
  <unicode hex="09A3"/>
  <outline>
    <contour>
      <point x="630" y="622" type="line"/>
      <point x="524" y="622" type="line"/>
      <point x="501" y="688" type="line"/>
      <point x="448" y="688" type="line"/>
      <point x="448" y="576" type="line" smooth="yes"/>
      <point x="448" y="543"/>
      <point x="450" y="500"/>
      <point x="454" y="477" type="curve"/>
      <point x="470" y="473" type="line"/>
      <point x="385" y="574"/>
      <point x="315" y="629"/>
      <point x="211" y="629" type="curve" smooth="yes"/>
      <point x="120" y="629"/>
      <point x="40" y="570"/>
      <point x="40" y="462" type="curve" smooth="yes"/>
      <point x="40" y="345"/>
      <point x="137" y="283"/>
      <point x="269" y="272" type="curve"/>
      <point x="275" y="355" type="line"/>
      <point x="165" y="366"/>
      <point x="122" y="398"/>
      <point x="122" y="463" type="curve" smooth="yes"/>
      <point x="122" y="518"/>
      <point x="159" y="556"/>
      <point x="222" y="556" type="curve" smooth="yes"/>
      <point x="302" y="556"/>
      <point x="376" y="496"/>
      <point x="468" y="363" type="curve"/>
      <point x="448" y="425" type="line"/>
      <point x="448" y="0" type="line"/>
      <point x="525" y="0" type="line"/>
      <point x="525" y="551" type="line"/>
      <point x="630" y="551" type="line"/>
    </contour>
  </outline>
</glyph>
<glyph name="tabeng" format="2">
  <advance width="707"/>
  <unicode hex="09A4"/>
  <outline>
    <contour>
      <point x="407" y="50" type="curve" smooth="yes"/>
      <point x="571" y="50"/>
      <point x="650" y="148"/>
      <point x="650" y="274" type="curve" smooth="yes"/>
      <point x="650" y="408"/>
      <point x="563" y="500"/>
      <point x="440" y="500" type="curve" smooth="yes"/>
      <point x="351" y="500"/>
      <point x="288" y="457"/>
      <point x="288" y="380" type="curve" smooth="yes"/>
      <point x="288" y="354"/>
      <point x="293" y="331"/>
      <point x="301" y="306" type="curve"/>
      <point x="378" y="321" type="line"/>
      <point x="371" y="340"/>
      <point x="369" y="354"/>
      <point x="369" y="367" type="curve" smooth="yes"/>
      <point x="369" y="404"/>
      <point x="390" y="429"/>
      <point x="444" y="429" type="curve" smooth="yes"/>
      <point x="521" y="429"/>
      <point x="573" y="362"/>
      <point x="573" y="278" type="curve" smooth="yes"/>
      <point x="573" y="193"/>
      <point x="529" y="126"/>
      <point x="405" y="126" type="curve" smooth="yes"/>
      <point x="258" y="126"/>
      <point x="175" y="237"/>
      <point x="105" y="486" type="curve"/>
      <point x="29" y="466" type="line"/>
      <point x="110" y="160"/>
      <point x="242" y="50"/>
    </contour>
    <contour>
      <point x="717" y="622" type="line"/>
      <point x="-10" y="622" type="line"/>
      <point x="-10" y="551" type="line"/>
      <point x="717" y="551" type="line"/>
    </contour>
  </outline>
</glyph>
<glyph name="thabeng" format="2">
  <advance width="645"/>
  <unicode hex="09A5"/>
  <outline>
    <contour>
      <point x="655" y="622" type="line"/>
      <point x="549" y="622" type="line"/>
      <point x="526" y="688" type="line"/>
      <point x="473" y="688" type="line"/>
      <point x="473" y="193" type="line" smooth="yes"/>
      <point x="473" y="157"/>
      <point x="473" y="127"/>
      <point x="475" y="97" type="curve"/>
      <point x="418" y="179"/>
      <point x="311" y="264"/>
      <point x="144" y="296" type="curve"/>
      <point x="92" y="331" type="line"/>
      <point x="115" y="238" type="line"/>
      <point x="281" y="207"/>
      <point x="396" y="110"/>
      <point x="473" y="0" type="curve"/>
      <point x="550" y="0" type="line"/>
      <point x="550" y="551" type="line"/>
      <point x="655" y="551" type="line"/>
    </contour>
    <contour>
      <point x="211" y="625" type="curve" smooth="yes"/>
      <point x="100" y="625"/>
      <point x="38" y="567"/>
      <point x="38" y="497" type="curve" smooth="yes"/>
      <point x="38" y="443"/>
      <point x="68" y="409"/>
      <point x="106" y="384" type="curve"/>
      <point x="150" y="446" type="line"/>
      <point x="125" y="459"/>
      <point x="116" y="475"/>
      <point x="116" y="494" type="curve" smooth="yes"/>
      <point x="116" y="523"/>
      <point x="142" y="555"/>
      <point x="209" y="555" type="curve" smooth="yes"/>
      <point x="281" y="555"/>
      <point x="319" y="523"/>
      <point x="319" y="466" type="curve" smooth="yes"/>
      <point x="319" y="395"/>
      <point x="260" y="343"/>
      <point x="92" y="331" type="curve"/>
      <point x="110" y="285" type="line"/>
      <point x="158" y="275" type="line"/>
      <point x="309" y="292"/>
      <point x="400" y="360"/>
      <point x="400" y="464" type="curve" smooth="yes"/>
      <point x="400" y="554"/>
      <point x="337" y="625"/>
    </contour>
  </outline>
</glyph>
<glyph name="dabeng" format="2">
  <advance width="603"/>
  <unicode hex="09A6"/>
  <outline>
    <contour>
      <point x="613" y="622" type="line"/>
      <point x="-10" y="622" type="line"/>
      <point x="-10" y="551" type="line"/>
      <point x="82" y="551" type="line"/>
      <point x="82" y="215" type="line"/>
      <point x="141" y="175" type="line"/>
      <point x="250" y="284"/>
      <point x="350" y="358"/>
      <point x="465" y="405" type="curve"/>
      <point x="453" y="410" type="line"/>
      <point x="430" y="374"/>
      <point x="409" y="303"/>
      <point x="409" y="222" type="curve" smooth="yes"/>
      <point x="409" y="142"/>
      <point x="423" y="70"/>
      <point x="447" y="-7" type="curve"/>
      <point x="522" y="10" type="line"/>
      <point x="497" y="85"/>
      <point x="487" y="140"/>
      <point x="487" y="205" type="curve" smooth="yes"/>
      <point x="487" y="292"/>
      <point x="502" y="352"/>
      <point x="540" y="422" type="curve"/>
      <point x="475" y="486" type="line"/>
      <point x="339" y="436"/>
      <point x="225" y="362"/>
      <point x="145" y="273" type="curve"/>
      <point x="159" y="253" type="line"/>
      <point x="159" y="551" type="line"/>
      <point x="613" y="551" type="line"/>
    </contour>
  </outline>
</glyph>
<glyph name="dhabeng" format="2">
  <advance width="596"/>
  <unicode hex="09A7"/>
  <outline>
    <contour>
      <point x="606" y="622" type="line"/>
      <point x="424" y="622" type="line"/>
      <point x="424" y="482" type="line"/>
      <point x="447" y="524" type="line"/>
      <point x="301" y="480"/>
      <point x="165" y="416"/>
      <point x="37" y="339" type="curve"/>
      <point x="76" y="243" type="line"/>
      <point x="230" y="218"/>
      <point x="363" y="119"/>
      <point x="424" y="0" type="curve"/>
      <point x="501" y="0" type="line"/>
      <point x="501" y="551" type="line"/>
      <point x="606" y="551" type="line"/>
    </contour>
    <contour>
      <point x="424" y="474" type="line"/>
      <point x="424" y="189" type="line" smooth="yes"/>
      <point x="424" y="146"/>
      <point x="426" y="119"/>
      <point x="429" y="88" type="curve"/>
      <point x="438" y="88" type="line"/>
      <point x="382" y="204"/>
      <point x="238" y="280"/>
      <point x="130" y="304" type="curve"/>
      <point x="225" y="362"/>
      <point x="344" y="413"/>
      <point x="445" y="446" type="curve"/>
    </contour>
    <contour>
      <point x="240" y="629" type="curve" smooth="yes"/>
      <point x="150" y="629"/>
      <point x="109" y="578"/>
      <point x="109" y="524" type="curve" smooth="yes"/>
      <point x="109" y="459"/>
      <point x="157" y="416"/>
      <point x="233" y="378" type="curve"/>
      <point x="293" y="423" type="line"/>
      <point x="214" y="453"/>
      <point x="188" y="474"/>
      <point x="188" y="509" type="curve" smooth="yes"/>
      <point x="188" y="536"/>
      <point x="211" y="554"/>
      <point x="251" y="554" type="curve" smooth="yes"/>
      <point x="268" y="554"/>
      <point x="279" y="553"/>
      <point x="287" y="552" type="curve"/>
      <point x="293" y="624" type="line"/>
      <point x="275" y="627"/>
      <point x="256" y="629"/>
    </contour>
  </outline>
</glyph>
<glyph name="nabeng" format="2">
  <advance width="604"/>
  <unicode hex="09A8"/>
  <outline>
    <contour>
      <point x="614" y="622" type="line"/>
      <point x="-10" y="622" type="line"/>
      <point x="-10" y="551" type="line"/>
      <point x="432" y="551" type="line"/>
      <point x="432" y="371" type="line" smooth="yes"/>
      <point x="432" y="340"/>
      <point x="433" y="310"/>
      <point x="437" y="280" type="curve"/>
      <point x="451" y="284" type="line"/>
      <point x="382" y="365"/>
      <point x="307" y="423"/>
      <point x="204" y="423" type="curve" smooth="yes"/>
      <point x="128" y="423"/>
      <point x="46" y="375"/>
      <point x="46" y="277" type="curve" smooth="yes"/>
      <point x="46" y="205"/>
      <point x="94" y="146"/>
      <point x="176" y="113" type="curve"/>
      <point x="214" y="184" type="line"/>
      <point x="155" y="207"/>
      <point x="128" y="234"/>
      <point x="128" y="274" type="curve" smooth="yes"/>
      <point x="128" y="325"/>
      <point x="167" y="351"/>
      <point x="216" y="351" type="curve" smooth="yes"/>
      <point x="294" y="351"/>
      <point x="381" y="278"/>
      <point x="448" y="187" type="curve"/>
      <point x="432" y="243" type="line"/>
      <point x="432" y="0" type="line"/>
      <point x="509" y="0" type="line"/>
      <point x="509" y="551" type="line"/>
      <point x="614" y="551" type="line"/>
    </contour>
  </outline>
</glyph>
<glyph name="pabeng" format="2">
  <advance width="716"/>
  <unicode hex="09AA"/>
  <outline>
    <contour>
      <point x="726" y="622" type="line"/>
      <point x="620" y="622" type="line"/>
      <point x="597" y="688" type="line"/>
      <point x="544" y="688" type="line"/>
      <point x="544" y="558" type="line" smooth="yes"/>
      <point x="544" y="515"/>
      <point x="545" y="478"/>
      <point x="549" y="446" type="curve"/>
      <point x="567" y="441" type="line"/>
      <point x="474" y="566"/>
      <point x="402" y="629"/>
      <point x="291" y="629" type="curve" smooth="yes"/>
      <point x="185" y="629"/>
      <point x="102" y="557"/>
      <point x="22" y="452" type="curve"/>
      <point x="98" y="380" type="line"/>
      <point x="119" y="393"/>
      <point x="139" y="398"/>
      <point x="160" y="398" type="curve" smooth="yes"/>
      <point x="199" y="398"/>
      <point x="219" y="376"/>
      <point x="219" y="343" type="curve" smooth="yes"/>
      <point x="219" y="309"/>
      <point x="203" y="284"/>
      <point x="183" y="262" type="curve"/>
      <point x="213" y="285" type="line"/>
      <point x="249" y="328" type="line"/>
      <point x="167" y="250" type="line"/>
      <point x="226" y="195" type="line"/>
      <point x="510" y="463" type="line"/>
      <point x="461" y="516" type="line"/>
      <point x="337" y="400" type="line" smooth="yes"/>
      <point x="310" y="374"/>
      <point x="288" y="351"/>
      <point x="265" y="326" type="curve"/>
      <point x="282" y="320" type="line"/>
      <point x="285" y="327"/>
      <point x="286" y="341"/>
      <point x="286" y="356" type="curve" smooth="yes"/>
      <point x="286" y="417"/>
      <point x="251" y="465"/>
      <point x="174" y="465" type="curve" smooth="yes"/>
      <point x="149" y="465"/>
      <point x="129" y="458"/>
      <point x="108" y="445" type="curve"/>
      <point x="116" y="447" type="line"/>
      <point x="162" y="505"/>
      <point x="218" y="556"/>
      <point x="298" y="556" type="curve" smooth="yes"/>
      <point x="393" y="556"/>
      <point x="456" y="491"/>
      <point x="566" y="332" type="curve"/>
      <point x="544" y="396" type="line"/>
      <point x="544" y="0" type="line"/>
      <point x="621" y="0" type="line"/>
      <point x="621" y="551" type="line"/>
      <point x="726" y="551" type="line"/>
    </contour>
  </outline>
</glyph>
<glyph name="phabeng" format="2">
  <advance width="838"/>
  <unicode hex="09AB"/>
  <outline>
    <contour>
      <point x="848" y="622" type="line"/>
      <point x="-10" y="622" type="line"/>
      <point x="-10" y="551" type="line"/>
      <point x="81" y="551" type="line"/>
      <point x="79" y="570" type="line"/>
      <point x="48" y="502" type="line"/>
      <point x="137" y="483"/>
      <point x="201" y="452"/>
      <point x="252" y="414" type="curve"/>
      <point x="183" y="382"/>
      <point x="109" y="344"/>
      <point x="48" y="303" type="curve"/>
      <point x="84" y="212" type="line"/>
      <point x="264" y="182"/>
      <point x="363" y="111"/>
      <point x="445" y="0" type="curve"/>
      <point x="522" y="0" type="line"/>
      <point x="522" y="434" type="line"/>
      <point x="641" y="422"/>
      <point x="714" y="364"/>
      <point x="714" y="296" type="curve" smooth="yes"/>
      <point x="714" y="261"/>
      <point x="701" y="232"/>
      <point x="636" y="232" type="curve" smooth="yes"/>
      <point x="622" y="232"/>
      <point x="610" y="233"/>
      <point x="602" y="234" type="curve"/>
      <point x="597" y="163" type="line"/>
      <point x="615" y="159"/>
      <point x="635" y="158"/>
      <point x="655" y="158" type="curve" smooth="yes"/>
      <point x="755" y="158"/>
      <point x="792" y="222"/>
      <point x="792" y="288" type="curve" smooth="yes"/>
      <point x="792" y="339"/>
      <point x="771" y="381"/>
      <point x="739" y="414" type="curve" smooth="yes"/>
      <point x="671" y="485"/>
      <point x="567" y="510"/>
      <point x="458" y="510" type="curve" smooth="yes"/>
      <point x="445" y="510" type="line"/>
      <point x="445" y="171" type="line" smooth="yes"/>
      <point x="445" y="146"/>
      <point x="446" y="121"/>
      <point x="447" y="99" type="curve"/>
      <point x="361" y="193"/>
      <point x="270" y="249"/>
      <point x="114" y="282" type="curve"/>
      <point x="125" y="265" type="line"/>
      <point x="181" y="302"/>
      <point x="268" y="343"/>
      <point x="341" y="376" type="curve"/>
      <point x="336" y="432" type="line"/>
      <point x="292" y="478"/>
      <point x="197" y="539"/>
      <point x="114" y="560" type="curve"/>
      <point x="130" y="551" type="line"/>
      <point x="848" y="551" type="line"/>
    </contour>
  </outline>
</glyph>
<glyph name="babeng" format="2">
  <advance width="596"/>
  <unicode hex="09AC"/>
  <outline>
    <contour>
      <point x="606" y="622" type="line"/>
      <point x="-10" y="622" type="line"/>
      <point x="-10" y="551" type="line"/>
      <point x="424" y="551" type="line"/>
      <point x="424" y="482" type="line"/>
      <point x="447" y="524" type="line"/>
      <point x="301" y="480"/>
      <point x="165" y="416"/>
      <point x="37" y="339" type="curve"/>
      <point x="76" y="243" type="line"/>
      <point x="230" y="218"/>
      <point x="363" y="119"/>
      <point x="424" y="0" type="curve"/>
      <point x="501" y="0" type="line"/>
      <point x="501" y="551" type="line"/>
      <point x="606" y="551" type="line"/>
    </contour>
    <contour>
      <point x="424" y="474" type="line"/>
      <point x="424" y="189" type="line" smooth="yes"/>
      <point x="424" y="146"/>
      <point x="426" y="119"/>
      <point x="429" y="88" type="curve"/>
      <point x="438" y="88" type="line"/>
      <point x="382" y="204"/>
      <point x="238" y="280"/>
      <point x="130" y="304" type="curve"/>
      <point x="225" y="362"/>
      <point x="344" y="413"/>
      <point x="445" y="446" type="curve"/>
    </contour>
  </outline>
</glyph>
<glyph name="bhabeng" format="2">
  <advance width="721"/>
  <unicode hex="09AD"/>
  <outline>
    <contour>
      <point x="422" y="43" type="curve" smooth="yes"/>
      <point x="579" y="43"/>
      <point x="664" y="139"/>
      <point x="664" y="266" type="curve" smooth="yes"/>
      <point x="664" y="334"/>
      <point x="640" y="402"/>
      <point x="590" y="476" type="curve"/>
      <point x="542" y="398" type="line"/>
      <point x="568" y="370"/>
      <point x="588" y="326"/>
      <point x="588" y="267" type="curve" smooth="yes"/>
      <point x="588" y="180"/>
      <point x="526" y="119"/>
      <point x="420" y="119" type="curve" smooth="yes"/>
      <point x="274" y="119"/>
      <point x="177" y="221"/>
      <point x="105" y="485" type="curve"/>
      <point x="29" y="465" type="line"/>
      <point x="117" y="145"/>
      <point x="249" y="43"/>
    </contour>
    <contour>
      <point x="384" y="284" type="curve" smooth="yes"/>
      <point x="470" y="284"/>
      <point x="528" y="332"/>
      <point x="582" y="422" type="curve"/>
      <point x="590" y="476" type="line"/>
      <point x="527" y="466" type="line"/>
      <point x="469" y="370"/>
      <point x="427" y="355"/>
      <point x="386" y="355" type="curve" smooth="yes"/>
      <point x="354" y="355"/>
      <point x="332" y="370"/>
      <point x="332" y="406" type="curve" smooth="yes"/>
      <point x="332" y="427"/>
      <point x="341" y="448"/>
      <point x="351" y="462" type="curve"/>
      <point x="271" y="486" type="line"/>
      <point x="260" y="465"/>
      <point x="249" y="433"/>
      <point x="249" y="402" type="curve" smooth="yes"/>
      <point x="249" y="328"/>
      <point x="300" y="284"/>
    </contour>
    <contour>
      <point x="731" y="622" type="line"/>
      <point x="-10" y="622" type="line"/>
      <point x="-10" y="551" type="line"/>
      <point x="731" y="551" type="line"/>
    </contour>
  </outline>
</glyph>
<glyph name="mabeng" format="2">
  <advance width="622"/>
  <unicode hex="09AE"/>
  <outline>
    <contour>
      <point x="632" y="622" type="line"/>
      <point x="-10" y="622" type="line"/>
      <point x="-10" y="551" type="line"/>
      <point x="450" y="551" type="line"/>
      <point x="450" y="281" type="line" smooth="yes"/>
      <point x="450" y="248"/>
      <point x="451" y="216"/>
      <point x="454" y="186" type="curve"/>
      <point x="471" y="189" type="line"/>
      <point x="415" y="280"/>
      <point x="343" y="353"/>
      <point x="223" y="353" type="curve" smooth="yes"/>
      <point x="148" y="353"/>
      <point x="66" y="303"/>
      <point x="66" y="208" type="curve" smooth="yes"/>
      <point x="66" y="136"/>
      <point x="110" y="72"/>
      <point x="218" y="34" type="curve"/>
      <point x="243" y="111" type="line"/>
      <point x="180" y="132"/>
      <point x="148" y="161"/>
      <point x="148" y="205" type="curve" smooth="yes"/>
      <point x="148" y="256"/>
      <point x="187" y="281"/>
      <point x="236" y="281" type="curve" smooth="yes"/>
      <point x="330" y="281"/>
      <point x="398" y="187"/>
      <point x="468" y="82" type="curve"/>
      <point x="450" y="135" type="line"/>
      <point x="450" y="0" type="line"/>
      <point x="527" y="0" type="line"/>
      <point x="527" y="551" type="line"/>
      <point x="632" y="551" type="line"/>
    </contour>
    <contour>
      <point x="299" y="323" type="curve" smooth="yes"/>
      <point x="299" y="472"/>
      <point x="225" y="543"/>
      <point x="97" y="553" type="curve"/>
      <point x="51" y="566" type="line"/>
      <point x="38" y="494" type="line"/>
      <point x="172" y="480"/>
      <point x="216" y="437"/>
      <point x="221" y="322" type="curve"/>
      <point x="297" y="299" type="line"/>
      <point x="298" y="307"/>
      <point x="299" y="315"/>
    </contour>
  </outline>
</glyph>
<glyph name="yabeng" format="2">
  <advance width="626"/>
  <unicode hex="09AF"/>
  <outline>
    <contour>
      <point x="636" y="622" type="line"/>
      <point x="-10" y="622" type="line"/>
      <point x="-10" y="551" type="line"/>
      <point x="81" y="551" type="line"/>
      <point x="79" y="570" type="line"/>
      <point x="48" y="502" type="line"/>
      <point x="137" y="483"/>
      <point x="201" y="452"/>
      <point x="252" y="414" type="curve"/>
      <point x="183" y="382"/>
      <point x="109" y="344"/>
      <point x="48" y="303" type="curve"/>
      <point x="84" y="212" type="line"/>
      <point x="267" y="185"/>
      <point x="370" y="111"/>
      <point x="454" y="0" type="curve"/>
      <point x="531" y="0" type="line"/>
      <point x="531" y="551" type="line"/>
      <point x="636" y="551" type="line"/>
    </contour>
    <contour>
      <point x="454" y="551" type="line"/>
      <point x="454" y="171" type="line" smooth="yes"/>
      <point x="454" y="141"/>
      <point x="455" y="107"/>
      <point x="457" y="79" type="curve"/>
      <point x="470" y="83" type="line"/>
      <point x="386" y="181"/>
      <point x="284" y="255"/>
      <point x="113" y="280" type="curve"/>
      <point x="125" y="265" type="line"/>
      <point x="181" y="302"/>
      <point x="268" y="343"/>
      <point x="341" y="376" type="curve"/>
      <point x="336" y="432" type="line"/>
      <point x="292" y="478"/>
      <point x="197" y="539"/>
      <point x="114" y="560" type="curve"/>
      <point x="135" y="551" type="line"/>
    </contour>
  </outline>
</glyph>
<glyph name="labeng" format="2">
  <advance width="731"/>
  <unicode hex="09B2"/>
  <outline>
    <contour>
      <point x="741" y="622" type="line"/>
      <point x="-10" y="622" type="line"/>
      <point x="-10" y="551" type="line"/>
      <point x="559" y="551" type="line"/>
      <point x="559" y="467" type="line" smooth="yes"/>
      <point x="559" y="437"/>
      <point x="560" y="410"/>
      <point x="562" y="382" type="curve"/>
      <point x="571" y="397" type="line"/>
      <point x="530" y="432"/>
      <point x="500" y="451"/>
      <point x="452" y="451" type="curve" smooth="yes"/>
      <point x="410" y="451"/>
      <point x="367" y="427"/>
      <point x="354" y="383" type="curve"/>
      <point x="369" y="384" type="line"/>
      <point x="326" y="441"/>
      <point x="279" y="466"/>
      <point x="208" y="466" type="curve" smooth="yes"/>
      <point x="119" y="466"/>
      <point x="46" y="409"/>
      <point x="46" y="320" type="curve" smooth="yes"/>
      <point x="46" y="220"/>
      <point x="118" y="157"/>
      <point x="214" y="127" type="curve"/>
      <point x="241" y="201" type="line"/>
      <point x="169" y="226"/>
      <point x="128" y="262"/>
      <point x="128" y="316" type="curve" smooth="yes"/>
      <point x="128" y="360"/>
      <point x="159" y="394"/>
      <point x="213" y="394" type="curve" smooth="yes"/>
      <point x="272" y="394"/>
      <point x="327" y="347"/>
      <point x="335" y="266" type="curve"/>
      <point x="400" y="271" type="line"/>
      <point x="399" y="281"/>
      <point x="398" y="292"/>
      <point x="398" y="307" type="curve" smooth="yes"/>
      <point x="398" y="368"/>
      <point x="435" y="379"/>
      <point x="465" y="379" type="curve" smooth="yes"/>
      <point x="503" y="379"/>
      <point x="535" y="352"/>
      <point x="565" y="309" type="curve"/>
      <point x="559" y="335" type="line"/>
      <point x="559" y="0" type="line"/>
      <point x="636" y="0" type="line"/>
      <point x="636" y="551" type="line"/>
      <point x="741" y="551" type="line"/>
    </contour>
  </outline>
</glyph>
<glyph name="shabeng" format="2">
  <advance width="677"/>
  <unicode hex="09B6"/>
  <outline>
    <contour>
      <point x="687" y="622" type="line"/>
      <point x="582" y="622" type="line"/>
      <point x="558" y="688" type="line"/>
      <point x="505" y="688" type="line"/>
      <point x="505" y="607" type="line" smooth="yes"/>
      <point x="505" y="577"/>
      <point x="506" y="554"/>
      <point x="510" y="532" type="curve"/>
      <point x="505" y="512" type="line"/>
      <point x="505" y="0" type="line"/>
      <point x="582" y="0" type="line"/>
      <point x="582" y="551" type="line"/>
      <point x="687" y="551" type="line"/>
    </contour>
    <contour>
      <point x="361" y="629" type="curve" smooth="yes"/>
      <point x="286" y="629"/>
      <point x="215" y="580"/>
      <point x="215" y="474" type="curve" smooth="yes"/>
      <point x="215" y="376"/>
      <point x="274" y="308"/>
      <point x="406" y="300" type="curve"/>
      <point x="413" y="377" type="line"/>
      <point x="317" y="381"/>
      <point x="276" y="417"/>
      <point x="276" y="471" type="curve" smooth="yes"/>
      <point x="276" y="527"/>
      <point x="311" y="556"/>
      <point x="363" y="556" type="curve" smooth="yes"/>
      <point x="432" y="556"/>
      <point x="489" y="500"/>
      <point x="530" y="404" type="curve"/>
      <point x="534" y="509" type="line"/>
      <point x="501" y="581"/>
      <point x="439" y="629"/>
    </contour>
    <contour>
      <point x="77" y="629" type="curve" smooth="yes"/>
      <point x="47" y="629"/>
      <point x="24" y="626"/>
      <point x="-9" y="620" type="curve"/>
      <point x="-1" y="545" type="line"/>
      <point x="31" y="553"/>
      <point x="52" y="556"/>
      <point x="76" y="556" type="curve" smooth="yes"/>
      <point x="146" y="556"/>
      <point x="181" y="522"/>
      <point x="181" y="468" type="curve" smooth="yes"/>
      <point x="181" y="425"/>
      <point x="150" y="378"/>
      <point x="48" y="377" type="curve"/>
      <point x="54" y="300" type="line"/>
      <point x="184" y="300"/>
      <point x="242" y="378"/>
      <point x="242" y="461" type="curve" smooth="yes"/>
      <point x="242" y="580"/>
      <point x="160" y="629"/>
    </contour>
  </outline>
</glyph>
<glyph name="ssabeng" format="2">
  <advance width="633"/>
  <unicode hex="09B7"/>
  <outline>
    <contour>
      <point x="643" y="622" type="line"/>
      <point x="-10" y="622" type="line"/>
      <point x="-10" y="551" type="line"/>
      <point x="461" y="551" type="line"/>
      <point x="461" y="434" type="line" smooth="yes"/>
      <point x="461" y="401"/>
      <point x="463" y="366"/>
      <point x="465" y="334" type="curve"/>
      <point x="461" y="312" type="line"/>
      <point x="461" y="171" type="line" smooth="yes"/>
      <point x="461" y="146"/>
      <point x="463" y="121"/>
      <point x="463" y="99" type="curve"/>
      <point x="383" y="181"/>
      <point x="288" y="247"/>
      <point x="142" y="275" type="curve"/>
      <point x="197" y="310"/>
      <point x="274" y="346"/>
      <point x="341" y="376" type="curve"/>
      <point x="339" y="432" type="line"/>
      <point x="280" y="425" type="line"/>
      <point x="195" y="389"/>
      <point x="114" y="345"/>
      <point x="48" y="303" type="curve"/>
      <point x="84" y="212" type="line"/>
      <point x="267" y="185"/>
      <point x="363" y="115"/>
      <point x="461" y="0" type="curve"/>
      <point x="538" y="0" type="line"/>
      <point x="538" y="551" type="line"/>
      <point x="643" y="551" type="line"/>
    </contour>
    <contour>
      <point x="77" y="569" type="line"/>
      <point x="48" y="502" type="line"/>
      <point x="193" y="472"/>
      <point x="366" y="375"/>
      <point x="467" y="264" type="curve"/>
      <point x="468" y="355" type="line"/>
      <point x="378" y="441"/>
      <point x="241" y="521"/>
      <point x="118" y="555" type="curve"/>
    </contour>
  </outline>
</glyph>
<glyph name="sabeng" format="2">
  <advance width="682"/>
  <unicode hex="09B8"/>
  <outline>
    <contour>
      <point x="692" y="622" type="line"/>
      <point x="-10" y="622" type="line"/>
      <point x="-10" y="551" type="line"/>
      <point x="510" y="551" type="line"/>
      <point x="510" y="458" type="line" smooth="yes"/>
      <point x="510" y="430"/>
      <point x="511" y="404"/>
      <point x="516" y="373" type="curve"/>
      <point x="536" y="374" type="line"/>
      <point x="489" y="424"/>
      <point x="459" y="449"/>
      <point x="415" y="449" type="curve" smooth="yes"/>
      <point x="376" y="449"/>
      <point x="347" y="426"/>
      <point x="312" y="354" type="curve"/>
      <point x="289" y="321" type="line"/>
      <point x="240" y="230"/>
      <point x="213" y="203"/>
      <point x="180" y="203" type="curve" smooth="yes"/>
      <point x="152" y="203"/>
      <point x="132" y="217"/>
      <point x="96" y="281" type="curve"/>
      <point x="35" y="244" type="line"/>
      <point x="90" y="156"/>
      <point x="134" y="127"/>
      <point x="188" y="127" type="curve" smooth="yes"/>
      <point x="257" y="127"/>
      <point x="289" y="169"/>
      <point x="343" y="268" type="curve" smooth="yes"/>
      <point x="393" y="359"/>
      <point x="407" y="375"/>
      <point x="436" y="375" type="curve" smooth="yes"/>
      <point x="464" y="375"/>
      <point x="492" y="344"/>
      <point x="533" y="290" type="curve"/>
      <point x="510" y="353" type="line"/>
      <point x="510" y="0" type="line"/>
      <point x="587" y="0" type="line"/>
      <point x="587" y="551" type="line"/>
      <point x="692" y="551" type="line"/>
    </contour>
    <contour>
      <point x="271" y="271" type="curve"/>
      <point x="315" y="356" type="line"/>
      <point x="305" y="480"/>
      <point x="258" y="528"/>
      <point x="107" y="551" type="curve"/>
      <point x="53" y="571" type="line"/>
      <point x="38" y="495" type="line"/>
      <point x="125" y="484"/>
      <point x="180" y="472"/>
      <point x="214" y="441" type="curve" smooth="yes"/>
      <point x="248" y="411"/>
      <point x="258" y="362"/>
    </contour>
  </outline>
</glyph>
<glyph name="nuktabeng" format="2">
  <unicode hex="09BC"/>
  <outline>
    <contour>
      <point x="-255" y="-183" type="curve" smooth="yes"/>
      <point x="-222" y="-183"/>
      <point x="-195" y="-160"/>
      <point x="-195" y="-125" type="curve" smooth="yes"/>
      <point x="-195" y="-90"/>
      <point x="-222" y="-65"/>
      <point x="-255" y="-65" type="curve" smooth="yes"/>
      <point x="-288" y="-65"/>
      <point x="-315" y="-90"/>
      <point x="-315" y="-125" type="curve" smooth="yes"/>
      <point x="-315" y="-160"/>
      <point x="-288" y="-183"/>
    </contour>
  </outline>
</glyph>
<glyph name="avagrahabeng" format="2">
  <advance width="530"/>
  <unicode hex="09BD"/>
  <outline>
    <contour>
      <point x="242" y="500" type="curve" smooth="yes"/>
      <point x="140" y="500"/>
      <point x="70" y="458"/>
      <point x="70" y="384" type="curve" smooth="yes"/>
      <point x="70" y="366"/>
      <point x="74" y="343"/>
      <point x="81" y="323" type="curve"/>
      <point x="154" y="338" type="line"/>
      <point x="151" y="347"/>
      <point x="148" y="359"/>
      <point x="148" y="370" type="curve" smooth="yes"/>
      <point x="148" y="408"/>
      <point x="174" y="430"/>
      <point x="247" y="430" type="curve" smooth="yes"/>
      <point x="327" y="430"/>
      <point x="385" y="391"/>
      <point x="385" y="320" type="curve" smooth="yes"/>
      <point x="385" y="263"/>
      <point x="348" y="204"/>
      <point x="207" y="204" type="curve" smooth="yes"/>
      <point x="146" y="204"/>
      <point x="107" y="209"/>
      <point x="61" y="223" type="curve"/>
      <point x="46" y="154" type="line"/>
      <point x="235" y="110"/>
      <point x="329" y="60"/>
      <point x="494" y="-63" type="curve"/>
      <point x="540" y="-10" type="line"/>
      <point x="445" y="65"/>
      <point x="336" y="126"/>
      <point x="246" y="152" type="curve"/>
      <point x="236" y="141" type="line"/>
      <point x="386" y="149"/>
      <point x="464" y="216"/>
      <point x="464" y="325" type="curve" smooth="yes"/>
      <point x="464" y="407"/>
      <point x="399" y="500"/>
    </contour>
    <contour>
      <point x="276" y="622" type="line"/>
      <point x="-10" y="622" type="line"/>
      <point x="-10" y="551" type="line"/>
      <point x="200" y="551" type="line"/>
      <point x="200" y="480" type="line"/>
      <point x="276" y="495" type="line"/>
    </contour>
  </outline>
</glyph>
<glyph name="aavowelsignbeng" format="2">
  <advance width="266"/>
  <unicode hex="09BE"/>
  <outline>
    <contour>
      <point x="276" y="622" type="line"/>
      <point x="170" y="622" type="line"/>
      <point x="148" y="688" type="line"/>
      <point x="94" y="688" type="line"/>
      <point x="94" y="613" type="line" smooth="yes"/>
      <point x="94" y="596"/>
      <point x="96" y="566"/>
      <point x="97" y="559" type="curve"/>
      <point x="75" y="601"/>
      <point x="37" y="622"/>
      <point x="5" y="622" type="curve" smooth="yes"/>
      <point x="-10" y="622" type="line"/>
      <point x="-10" y="551" type="line"/>
      <point x="-2" y="551" type="line" smooth="yes"/>
      <point x="47" y="551"/>
      <point x="78" y="514"/>
      <point x="94" y="469" type="curve"/>
      <point x="94" y="0" type="line"/>
      <point x="171" y="0" type="line"/>
      <point x="171" y="551" type="line"/>
      <point x="276" y="551" type="line"/>
    </contour>
  </outline>
</glyph>
<glyph name="ivowelsignbeng" format="2">
  <advance width="266"/>
  <unicode hex="09BF"/>
  <outline>
    <contour>
      <point x="276" y="622" type="line"/>
      <point x="160" y="622" type="line"/>
      <point x="136" y="648"/>
      <point x="116" y="673"/>
      <point x="106" y="693" type="curve"/>
      <point x="154" y="782"/>
      <point x="214" y="844"/>
      <point x="325" y="844" type="curve" smooth="yes"/>
      <point x="438" y="844"/>
      <point x="524" y="789"/>
      <point x="663" y="677" type="curve"/>
      <point x="705" y="731" type="line"/>
      <point x="567" y="844"/>
      <point x="454" y="917"/>
      <point x="313" y="917" type="curve" smooth="yes"/>
      <point x="163" y="917"/>
      <point x="87" y="822"/>
      <point x="20" y="704" type="curve"/>
      <point x="37" y="676"/>
      <point x="61" y="647"/>
      <point x="82" y="622" type="curve"/>
      <point x="-10" y="622" type="line"/>
      <point x="-10" y="551" type="line"/>
      <point x="94" y="551" type="line"/>
      <point x="94" y="0" type="line"/>
      <point x="171" y="0" type="line"/>
      <point x="171" y="551" type="line"/>
      <point x="276" y="551" type="line"/>
    </contour>
  </outline>
</glyph>
<glyph name="iivowelsignbeng" format="2">
  <advance width="266"/>
  <unicode hex="09C0"/>
  <outline>
    <contour>
      <point x="276" y="551" type="line"/>
      <point x="276" y="622" type="line"/>
      <point x="174" y="622" type="line"/>
      <point x="161" y="825"/>
      <point x="12" y="917"/>
      <point x="-258" y="917" type="curve" smooth="yes"/>
      <point x="-436" y="917"/>
      <point x="-521" y="866"/>
      <point x="-521" y="789" type="curve" smooth="yes"/>
      <point x="-521" y="759"/>
      <point x="-510" y="731"/>
      <point x="-476" y="713" type="curve" smooth="yes"/>
      <point x="-449" y="699"/>
      <point x="-408" y="692"/>
      <point x="-353" y="692" type="curve" smooth="yes"/>
      <point x="-254" y="692" type="line" smooth="yes"/>
      <point x="-219" y="692"/>
      <point x="-203" y="688"/>
      <point x="-189" y="678" type="curve" smooth="yes"/>
      <point x="-175" y="667"/>
      <point x="-168" y="647"/>
      <point x="-167" y="615" type="curve"/>
      <point x="-100" y="615" type="line"/>
      <point x="-100" y="667"/>
      <point x="-110" y="700"/>
      <point x="-135" y="725" type="curve" smooth="yes"/>
      <point x="-161" y="751"/>
      <point x="-199" y="763"/>
      <point x="-269" y="763" type="curve" smooth="yes"/>
      <point x="-365" y="763" type="line" smooth="yes"/>
      <point x="-404" y="763"/>
      <point x="-442" y="766"/>
      <point x="-442" y="792" type="curve" smooth="yes"/>
      <point x="-442" y="829"/>
      <point x="-370" y="848"/>
      <point x="-252" y="848" type="curve" smooth="yes"/>
      <point x="-73" y="848"/>
      <point x="82" y="796"/>
      <point x="94" y="622" type="curve"/>
      <point x="-10" y="622" type="line"/>
      <point x="-10" y="551" type="line"/>
      <point x="94" y="551" type="line"/>
      <point x="94" y="0" type="line"/>
      <point x="171" y="0" type="line"/>
      <point x="171" y="551" type="line"/>
    </contour>
  </outline>
</glyph>
<glyph name="uvowelsignbeng" format="2">
  <unicode hex="09C1"/>
  <outline>
    <contour>
      <point x="-286" y="-266" type="curve" smooth="yes"/>
      <point x="-119" y="-266"/>
      <point x="-95" y="-119"/>
      <point x="-95" y="-45" type="curve" smooth="yes"/>
      <point x="-95" y="8" type="line"/>
      <point x="-172" y="8" type="line"/>
      <point x="-172" y="-59" type="line" smooth="yes"/>
      <point x="-172" y="-109"/>
      <point x="-188" y="-204"/>
      <point x="-286" y="-204" type="curve" smooth="yes"/>
      <point x="-321" y="-204"/>
      <point x="-351" y="-190"/>
      <point x="-351" y="-153" type="curve" smooth="yes"/>
      <point x="-351" y="-124"/>
      <point x="-327" y="-103"/>
      <point x="-279" y="-103" type="curve" smooth="yes"/>
      <point x="-183" y="-103"/>
      <point x="-90" y="-160"/>
      <point x="44" y="-271" type="curve"/>
      <point x="89" y="-217" type="line"/>
      <point x="-45" y="-111"/>
      <point x="-150" y="-39"/>
      <point x="-274" y="-39" type="curve" smooth="yes"/>
      <point x="-368" y="-39"/>
      <point x="-422" y="-83"/>
      <point x="-422" y="-151" type="curve" smooth="yes"/>
      <point x="-422" y="-235"/>
      <point x="-341" y="-266"/>
    </contour>
  </outline>
</glyph>
<glyph name="rvocalicvowelsignbeng" format="2">
  <unicode hex="09C3"/>
  <outline>
    <contour>
      <point x="-355" y="-80" type="curve"/>
      <point x="-321" y="-160" type="line"/>
      <point x="-199" y="-173"/>
      <point x="-105" y="-205"/>
      <point x="-1" y="-271" type="curve"/>
      <point x="35" y="-214" type="line"/>
      <point x="-41" y="-165"/>
      <point x="-136" y="-116"/>
      <point x="-290" y="-102" type="curve"/>
      <point x="-277" y="-114" type="line"/>
      <point x="-226" y="-88"/>
      <point x="-149" y="-63"/>
      <point x="-79" y="-41" type="curve"/>
      <point x="-105" y="25" type="line"/>
      <point x="-192" y="-6"/>
      <point x="-277" y="-42"/>
    </contour>
  </outline>
</glyph>
<glyph name="rrvocalicvowelsignbeng" format="2">
  <unicode hex="09C4"/>
  <outline>
    <contour>
      <point x="-355" y="-80" type="curve"/>
      <point x="-321" y="-160" type="line"/>
      <point x="-263" y="-165"/>
      <point x="-212" y="-174"/>
      <point x="-165" y="-190" type="curve"/>
      <point x="-112" y="-207"/>
      <point x="-61" y="-230"/>
      <point x="-3" y="-261" type="curve"/>
      <point x="28" y="-211" type="line"/>
      <point x="-56" y="-162"/>
      <point x="-159" y="-121"/>
      <point x="-289" y="-102" type="curve"/>
      <point x="-279" y="-114" type="line"/>
      <point x="-232" y="-89"/>
      <point x="-146" y="-61"/>
      <point x="-79" y="-41" type="curve"/>
      <point x="-105" y="25" type="line"/>
      <point x="-192" y="-6"/>
      <point x="-277" y="-42"/>
    </contour>
    <contour>
      <point x="-355" y="-238" type="curve"/>
      <point x="-323" y="-312" type="line"/>
      <point x="-230" y="-325"/>
      <point x="-150" y="-344"/>
      <point x="-63" y="-394" type="curve"/>
      <point x="-32" y="-342" type="line"/>
      <point x="-114" y="-293"/>
      <point x="-207" y="-266"/>
      <point x="-283" y="-257" type="curve"/>
      <point x="-276" y="-266" type="line"/>
      <point x="-244" y="-250"/>
      <point x="-140" y="-211"/>
      <point x="-86" y="-194" type="curve"/>
      <point x="-156" y="-162" type="line"/>
      <point x="-235" y="-184"/>
      <point x="-295" y="-210"/>
    </contour>
  </outline>
</glyph>
<glyph name="evowelsignbeng" format="2">
  <advance width="346"/>
  <unicode hex="09C7"/>
  <outline>
    <contour>
      <point x="356" y="622" type="line"/>
      <point x="-10" y="622" type="line"/>
      <point x="-10" y="551" type="line"/>
      <point x="130" y="551" type="line" smooth="yes"/>
      <point x="165" y="551"/>
      <point x="192" y="552"/>
      <point x="216" y="555" type="curve"/>
      <point x="280" y="588" type="line"/>
      <point x="152" y="546"/>
      <point x="49" y="424"/>
      <point x="49" y="260" type="curve" smooth="yes"/>
      <point x="49" y="100"/>
      <point x="137" y="-5"/>
      <point x="264" y="-5" type="curve" smooth="yes"/>
      <point x="305" y="-5"/>
      <point x="348" y="4"/>
      <point x="383" y="31" type="curve"/>
      <point x="348" y="92" type="line"/>
      <point x="318" y="75"/>
      <point x="300" y="69"/>
      <point x="267" y="69" type="curve" smooth="yes"/>
      <point x="203" y="69"/>
      <point x="128" y="117"/>
      <point x="128" y="262" type="curve" smooth="yes"/>
      <point x="128" y="422"/>
      <point x="254" y="532"/>
      <point x="336" y="551" type="curve"/>
      <point x="356" y="551" type="line"/>
    </contour>
  </outline>
</glyph>
<glyph name="aivowelsignbeng" format="2">
  <advance width="346"/>
  <unicode hex="09C8"/>
  <outline>
    <contour>
      <point x="283" y="622" type="curve"/>
      <point x="355" y="622" type="line"/>
      <point x="353" y="677"/>
      <point x="342" y="712"/>
      <point x="319" y="734" type="curve" smooth="yes"/>
      <point x="290" y="762"/>
      <point x="252" y="771"/>
      <point x="182" y="771" type="curve" smooth="yes"/>
      <point x="178" y="771" type="line" smooth="yes"/>
      <point x="111" y="771"/>
      <point x="81" y="781"/>
      <point x="62" y="802" type="curve" smooth="yes"/>
      <point x="48" y="817"/>
      <point x="43" y="840"/>
      <point x="43" y="869" type="curve" smooth="yes"/>
      <point x="43" y="882"/>
      <point x="44" y="892"/>
      <point x="47" y="907" type="curve"/>
      <point x="-27" y="912" type="line"/>
      <point x="-30" y="892"/>
      <point x="-32" y="876"/>
      <point x="-32" y="859" type="curve" smooth="yes"/>
      <point x="-32" y="805"/>
      <point x="-14" y="763"/>
      <point x="22" y="736" type="curve" smooth="yes"/>
      <point x="55" y="711"/>
      <point x="96" y="699"/>
      <point x="183" y="699" type="curve" smooth="yes"/>
      <point x="203" y="699" type="line" smooth="yes"/>
      <point x="262" y="699"/>
      <point x="281" y="674"/>
    </contour>
    <component base="evowelsignbeng"/>
  </outline>
</glyph>
<glyph name="viramabeng" format="2">
  <unicode hex="09CD"/>
  <outline>
    <contour>
      <point x="-134" y="-17" type="line"/>
      <point x="-186" y="-81" type="line"/>
      <point x="69" y="-268" type="line"/>
      <point x="112" y="-214" type="line"/>
    </contour>
  </outline>
</glyph>
<glyph name="khandatabeng" format="2">
  <advance width="525"/>
  <unicode hex="09CE"/>
  <outline>
    <contour>
      <point x="278" y="629" type="curve" smooth="yes"/>
      <point x="136" y="629"/>
      <point x="50" y="536"/>
      <point x="50" y="426" type="curve" smooth="yes"/>
      <point x="50" y="303"/>
      <point x="122" y="233"/>
      <point x="289" y="160" type="curve" smooth="yes"/>
      <point x="443" y="92"/>
      <point x="463" y="66"/>
      <point x="480" y="-10" type="curve"/>
      <point x="552" y="5" type="line"/>
      <point x="538" y="106"/>
      <point x="501" y="150"/>
      <point x="331" y="225" type="curve" smooth="yes"/>
      <point x="169" y="296"/>
      <point x="126" y="342"/>
      <point x="126" y="424" type="curve" smooth="yes"/>
      <point x="126" y="499"/>
      <point x="183" y="558"/>
      <point x="279" y="558" type="curve" smooth="yes"/>
      <point x="341" y="558"/>
      <point x="374" y="528"/>
      <point x="374" y="485" type="curve" smooth="yes"/>
      <point x="374" y="441"/>
      <point x="345" y="419"/>
      <point x="289" y="419" type="curve" smooth="yes"/>
      <point x="248" y="419"/>
      <point x="206" y="432"/>
      <point x="165" y="454" type="curve"/>
      <point x="139" y="387" type="line"/>
      <point x="184" y="363"/>
      <point x="241" y="346"/>
      <point x="295" y="346" type="curve" smooth="yes"/>
      <point x="397" y="346"/>
      <point x="452" y="398"/>
      <point x="452" y="487" type="curve" smooth="yes"/>
      <point x="452" y="562"/>
      <point x="400" y="629"/>
    </contour>
  </outline>
</glyph>
<glyph name="aulengthmarkbeng" format="2">
  <advance width="266"/>
  <unicode hex="09D7"/>
  <outline>
    <contour>
      <point x="171" y="0" type="line"/>
      <point x="171" y="551" type="line"/>
      <point x="276" y="551" type="line"/>
      <point x="276" y="622" type="line"/>
      <point x="-10" y="622" type="line"/>
      <point x="-10" y="551" type="line"/>
      <point x="94" y="551" type="line"/>
      <point x="94" y="0" type="line"/>
    </contour>
    <contour>
      <point x="99" y="622" type="curve"/>
      <point x="171" y="622" type="line"/>
      <point x="169" y="677"/>
      <point x="158" y="712"/>
      <point x="135" y="734" type="curve" smooth="yes"/>
      <point x="106" y="762"/>
      <point x="69" y="771"/>
      <point x="-2" y="771" type="curve" smooth="yes"/>
      <point x="-154" y="771" type="line" smooth="yes"/>
      <point x="-221" y="771"/>
      <point x="-251" y="781"/>
      <point x="-270" y="802" type="curve" smooth="yes"/>
      <point x="-284" y="817"/>
      <point x="-289" y="840"/>
      <point x="-289" y="869" type="curve" smooth="yes"/>
      <point x="-289" y="879"/>
      <point x="-288" y="891"/>
      <point x="-285" y="907" type="curve"/>
      <point x="-359" y="912" type="line"/>
      <point x="-362" y="893"/>
      <point x="-364" y="876"/>
      <point x="-364" y="859" type="curve" smooth="yes"/>
      <point x="-364" y="805"/>
      <point x="-346" y="763"/>
      <point x="-310" y="736" type="curve" smooth="yes"/>
      <point x="-277" y="711"/>
      <point x="-236" y="699"/>
      <point x="-149" y="699" type="curve" smooth="yes"/>
      <point x="20" y="699" type="line" smooth="yes"/>
      <point x="75" y="699"/>
      <point x="97" y="677"/>
    </contour>
  </outline>
</glyph>
<glyph name="lvocalicvowelsignbeng" format="2">
  <unicode hex="09E2"/>
  <outline>
    <contour>
      <point x="-254" y="-127" type="curve" smooth="yes"/>
      <point x="-322" y="-127"/>
      <point x="-356" y="-156"/>
      <point x="-356" y="-195" type="curve" smooth="yes"/>
      <point x="-356" y="-210"/>
      <point x="-352" y="-225"/>
      <point x="-345" y="-238" type="curve"/>
      <point x="-285" y="-227" type="line"/>
      <point x="-289" y="-219"/>
      <point x="-292" y="-211"/>
      <point x="-292" y="-204" type="curve" smooth="yes"/>
      <point x="-292" y="-189"/>
      <point x="-280" y="-180"/>
      <point x="-252" y="-180" type="curve" smooth="yes"/>
      <point x="-219" y="-180"/>
      <point x="-205" y="-194"/>
      <point x="-205" y="-214" type="curve" smooth="yes"/>
      <point x="-205" y="-237"/>
      <point x="-220" y="-254"/>
      <point x="-256" y="-264" type="curve"/>
      <point x="-244" y="-313" type="line"/>
      <point x="-220" y="-313" type="line" smooth="yes"/>
      <point x="-99" y="-313"/>
      <point x="8" y="-280"/>
      <point x="8" y="-185" type="curve" smooth="yes"/>
      <point x="8" y="-131"/>
      <point x="-19" y="-91"/>
      <point x="-139" y="-55" type="curve" smooth="yes"/>
      <point x="-204" y="-35"/>
      <point x="-217" y="-30"/>
      <point x="-217" y="-16" type="curve" smooth="yes"/>
      <point x="-217" y="-12"/>
      <point x="-216" y="-6"/>
      <point x="-213" y="0" type="curve"/>
      <point x="-269" y="13" type="line"/>
      <point x="-275" y="2"/>
      <point x="-279" y="-10"/>
      <point x="-279" y="-22" type="curve" smooth="yes"/>
      <point x="-279" y="-66"/>
      <point x="-242" y="-83"/>
      <point x="-174" y="-104" type="curve" smooth="yes"/>
      <point x="-78" y="-133"/>
      <point x="-60" y="-154"/>
      <point x="-60" y="-187" type="curve" smooth="yes"/>
      <point x="-60" y="-230"/>
      <point x="-97" y="-254"/>
      <point x="-210" y="-262" type="curve"/>
      <point x="-194" y="-276" type="line"/>
      <point x="-156" y="-257"/>
      <point x="-146" y="-230"/>
      <point x="-146" y="-208" type="curve" smooth="yes"/>
      <point x="-146" y="-161"/>
      <point x="-182" y="-127"/>
    </contour>
  </outline>
</glyph>
<glyph name="zerobeng" format="2">
  <advance width="592"/>
  <unicode hex="09E6"/>
  <outline>
    <contour>
      <point x="290" y="91" type="curve" smooth="yes"/>
      <point x="449" y="91"/>
      <point x="520" y="202"/>
      <point x="520" y="320" type="curve" smooth="yes"/>
      <point x="520" y="441"/>
      <point x="461" y="544"/>
      <point x="300" y="544" type="curve" smooth="yes"/>
      <point x="142" y="544"/>
      <point x="72" y="430"/>
      <point x="72" y="313" type="curve" smooth="yes"/>
      <point x="72" y="162"/>
      <point x="163" y="91"/>
    </contour>
    <contour>
      <point x="301" y="473" type="curve" smooth="yes"/>
      <point x="393" y="473"/>
      <point x="439" y="416"/>
      <point x="439" y="324" type="curve" smooth="yes"/>
      <point x="439" y="227"/>
      <point x="381" y="162"/>
      <point x="291" y="162" type="curve" smooth="yes"/>
      <point x="191" y="162"/>
      <point x="153" y="229"/>
      <point x="153" y="311" type="curve" smooth="yes"/>
      <point x="153" y="413"/>
      <point x="216" y="473"/>
    </contour>
  </outline>
</glyph>
<glyph name="onebeng" format="2">
  <advance width="592"/>
  <unicode hex="09E7"/>
  <outline>
    <contour>
      <point x="287" y="0" type="curve" smooth="yes"/>
      <point x="406" y="0"/>
      <point x="493" y="69"/>
      <point x="493" y="182" type="curve" smooth="yes"/>
      <point x="493" y="275"/>
      <point x="454" y="324"/>
      <point x="338" y="403" type="curve" smooth="yes"/>
      <point x="225" y="480"/>
      <point x="211" y="500"/>
      <point x="211" y="536" type="curve" smooth="yes"/>
      <point x="211" y="556"/>
      <point x="224" y="576"/>
      <point x="243" y="596" type="curve"/>
      <point x="177" y="631" type="line"/>
      <point x="143" y="599"/>
      <point x="125" y="560"/>
      <point x="125" y="529" type="curve" smooth="yes"/>
      <point x="125" y="469"/>
      <point x="163" y="431"/>
      <point x="287" y="344" type="curve" smooth="yes"/>
      <point x="385" y="275"/>
      <point x="416" y="240"/>
      <point x="416" y="181" type="curve" smooth="yes"/>
      <point x="416" y="120"/>
      <point x="368" y="75"/>
      <point x="286" y="75" type="curve" smooth="yes"/>
      <point x="233" y="75"/>
      <point x="205" y="93"/>
      <point x="205" y="120" type="curve" smooth="yes"/>
      <point x="205" y="144"/>
      <point x="222" y="157"/>
      <point x="263" y="167" type="curve"/>
      <point x="234" y="244" type="line"/>
      <point x="153" y="221"/>
      <point x="123" y="174"/>
      <point x="123" y="122" type="curve" smooth="yes"/>
      <point x="123" y="56"/>
      <point x="173" y="0"/>
    </contour>
  </outline>
</glyph>
<glyph name="twobeng" format="2">
  <advance width="592"/>
  <unicode hex="09E8"/>
  <outline>
    <contour>
      <point x="127" y="539" type="curve" smooth="yes"/>
      <point x="127" y="483"/>
      <point x="173" y="450"/>
      <point x="290" y="427" type="curve" smooth="yes"/>
      <point x="393" y="407"/>
      <point x="421" y="382"/>
      <point x="421" y="332" type="curve" smooth="yes"/>
      <point x="421" y="272"/>
      <point x="375" y="233"/>
      <point x="241" y="233" type="curve" smooth="yes"/>
      <point x="169" y="233"/>
      <point x="126" y="242"/>
      <point x="80" y="256" type="curve"/>
      <point x="65" y="185" type="line"/>
      <point x="253" y="143"/>
      <point x="349" y="104"/>
      <point x="507" y="-26" type="curve"/>
      <point x="553" y="28" type="line"/>
      <point x="469" y="98"/>
      <point x="377" y="153"/>
      <point x="289" y="184" type="curve"/>
      <point x="249" y="175" type="line"/>
      <point x="262" y="171"/>
      <point x="275" y="168"/>
      <point x="289" y="168" type="curve"/>
      <point x="422" y="177"/>
      <point x="500" y="247"/>
      <point x="500" y="335" type="curve" smooth="yes"/>
      <point x="500" y="418"/>
      <point x="454" y="469"/>
      <point x="316" y="495" type="curve" smooth="yes"/>
      <point x="228" y="512"/>
      <point x="211" y="521"/>
      <point x="211" y="549" type="curve" smooth="yes"/>
      <point x="211" y="563"/>
      <point x="217" y="579"/>
      <point x="233" y="596" type="curve"/>
      <point x="170" y="631" type="line"/>
      <point x="141" y="596"/>
      <point x="127" y="568"/>
    </contour>
  </outline>
</glyph>
<glyph name="threebeng" format="2">
  <advance width="592"/>
  <unicode hex="09E9"/>
  <outline>
    <contour>
      <point x="553" y="295" type="curve" smooth="yes"/>
      <point x="553" y="450"/>
      <point x="476" y="579"/>
      <point x="337" y="579" type="curve" smooth="yes"/>
      <point x="280" y="579"/>
      <point x="207" y="551"/>
      <point x="207" y="467" type="curve" smooth="yes"/>
      <point x="207" y="437"/>
      <point x="215" y="402"/>
      <point x="231" y="369" type="curve"/>
      <point x="311" y="390" type="line"/>
      <point x="297" y="417"/>
      <point x="292" y="436"/>
      <point x="292" y="458" type="curve" smooth="yes"/>
      <point x="292" y="490"/>
      <point x="312" y="508"/>
      <point x="347" y="508" type="curve" smooth="yes"/>
      <point x="419" y="508"/>
      <point x="475" y="417"/>
      <point x="475" y="295" type="curve" smooth="yes"/>
      <point x="475" y="194"/>
      <point x="443" y="115"/>
      <point x="342" y="115" type="curve" smooth="yes"/>
      <point x="229" y="115"/>
      <point x="165" y="210"/>
      <point x="105" y="510" type="curve"/>
      <point x="29" y="490" type="line"/>
      <point x="96" y="117"/>
      <point x="204" y="39"/>
      <point x="347" y="39" type="curve" smooth="yes"/>
      <point x="495" y="39"/>
      <point x="553" y="151"/>
    </contour>
  </outline>
</glyph>
<glyph name="sixbeng" format="2">
  <advance width="592"/>
  <unicode hex="09EC"/>
  <outline>
    <contour>
      <point x="347" y="39" type="curve" smooth="yes"/>
      <point x="493" y="39"/>
      <point x="559" y="137"/>
      <point x="559" y="268" type="curve" smooth="yes"/>
      <point x="559" y="328"/>
      <point x="536" y="402"/>
      <point x="499" y="452" type="curve"/>
      <point x="443" y="438" type="line"/>
      <point x="410" y="348"/>
      <point x="380" y="328"/>
      <point x="348" y="328" type="curve" smooth="yes"/>
      <point x="321" y="328"/>
      <point x="312" y="346"/>
      <point x="312" y="379" type="curve" smooth="yes"/>
      <point x="312" y="471" type="line" smooth="yes"/>
      <point x="312" y="511"/>
      <point x="305" y="540"/>
      <point x="286" y="560" type="curve" smooth="yes"/>
      <point x="265" y="581"/>
      <point x="230" y="591"/>
      <point x="175" y="593" type="curve"/>
      <point x="166" y="517" type="line"/>
      <point x="225" y="515"/>
      <point x="235" y="500"/>
      <point x="235" y="451" type="curve" smooth="yes"/>
      <point x="235" y="400" type="line" smooth="yes"/>
      <point x="235" y="328"/>
      <point x="250" y="301"/>
      <point x="270" y="282" type="curve" smooth="yes"/>
      <point x="288" y="265"/>
      <point x="312" y="257"/>
      <point x="340" y="257" type="curve" smooth="yes"/>
      <point x="406" y="257"/>
      <point x="455" y="303"/>
      <point x="489" y="392" type="curve"/>
      <point x="449" y="391" type="line"/>
      <point x="461" y="370"/>
      <point x="483" y="329"/>
      <point x="483" y="271" type="curve" smooth="yes"/>
      <point x="483" y="167"/>
      <point x="428" y="115"/>
      <point x="342" y="115" type="curve" smooth="yes"/>
      <point x="226" y="115"/>
      <point x="152" y="212"/>
      <point x="96" y="475" type="curve"/>
      <point x="21" y="452" type="line"/>
      <point x="96" y="129"/>
      <point x="208" y="39"/>
    </contour>
  </outline>
</glyph>
<glyph name="eightbeng" format="2">
  <advance width="592"/>
  <unicode hex="09EE"/>
  <outline>
    <contour>
      <point x="237" y="0" type="curve" smooth="yes"/>
      <point x="354" y="0"/>
      <point x="448" y="81"/>
      <point x="448" y="213" type="curve" smooth="yes"/>
      <point x="448" y="250"/>
      <point x="438" y="285"/>
      <point x="418" y="312" type="curve"/>
      <point x="398" y="297" type="line"/>
      <point x="414" y="293"/>
      <point x="430" y="292"/>
      <point x="442" y="292" type="curve" smooth="yes"/>
      <point x="504" y="292"/>
      <point x="560" y="316"/>
      <point x="586" y="383" type="curve"/>
      <point x="514" y="418" type="line"/>
      <point x="488" y="370"/>
      <point x="458" y="360"/>
      <point x="408" y="360" type="curve" smooth="yes"/>
      <point x="379" y="360"/>
      <point x="357" y="360"/>
      <point x="318" y="370" type="curve"/>
      <point x="305" y="373"/>
      <point x="284" y="375"/>
      <point x="269" y="375" type="curve" smooth="yes"/>
      <point x="247" y="375"/>
      <point x="208" y="370"/>
      <point x="167" y="355" type="curve"/>
      <point x="167" y="501" type="line" smooth="yes"/>
      <point x="167" y="544"/>
      <point x="159" y="575"/>
      <point x="136" y="595" type="curve" smooth="yes"/>
      <point x="115" y="613"/>
      <point x="82" y="622"/>
      <point x="31" y="624" type="curve"/>
      <point x="22" y="547" type="line"/>
      <point x="81" y="545"/>
      <point x="91" y="530"/>
      <point x="91" y="481" type="curve" smooth="yes"/>
      <point x="91" y="164" type="line" smooth="yes"/>
      <point x="91" y="92"/>
      <point x="108" y="62"/>
      <point x="132" y="38" type="curve" smooth="yes"/>
      <point x="152" y="17"/>
      <point x="185" y="0"/>
    </contour>
    <contour>
      <point x="238" y="71" type="curve" smooth="yes"/>
      <point x="207" y="71"/>
      <point x="194" y="81"/>
      <point x="184" y="92" type="curve" smooth="yes"/>
      <point x="175" y="103"/>
      <point x="167" y="124"/>
      <point x="167" y="168" type="curve" smooth="yes"/>
      <point x="167" y="281" type="line"/>
      <point x="198" y="295"/>
      <point x="230" y="304"/>
      <point x="274" y="304" type="curve" smooth="yes"/>
      <point x="319" y="304"/>
      <point x="369" y="286"/>
      <point x="369" y="212" type="curve" smooth="yes"/>
      <point x="369" y="145"/>
      <point x="326" y="71"/>
    </contour>
  </outline>
</glyph>
<glyph name="ninebeng" format="2">
  <advance width="592"/>
  <unicode hex="09EF"/>
  <outline>
    <contour>
      <point x="174" y="315" type="curve" smooth="yes"/>
      <point x="78" y="315"/>
      <point x="27" y="271"/>
      <point x="27" y="207" type="curve" smooth="yes"/>
      <point x="27" y="182"/>
      <point x="33" y="159"/>
      <point x="44" y="135" type="curve"/>
      <point x="119" y="152" type="line"/>
      <point x="112" y="165"/>
      <point x="108" y="183"/>
      <point x="108" y="196" type="curve" smooth="yes"/>
      <point x="108" y="224"/>
      <point x="127" y="245"/>
      <point x="175" y="245" type="curve" smooth="yes"/>
      <point x="229" y="245"/>
      <point x="257" y="214"/>
      <point x="257" y="169" type="curve" smooth="yes"/>
      <point x="257" y="120"/>
      <point x="221" y="89"/>
      <point x="161" y="68" type="curve"/>
      <point x="183" y="0" type="line"/>
      <point x="197" y="0" type="line" smooth="yes"/>
      <point x="390" y="0"/>
      <point x="558" y="53"/>
      <point x="558" y="216" type="curve" smooth="yes"/>
      <point x="558" y="315"/>
      <point x="516" y="387"/>
      <point x="304" y="447" type="curve" smooth="yes"/>
      <point x="135" y="495"/>
      <point x="119" y="511"/>
      <point x="119" y="547" type="curve" smooth="yes"/>
      <point x="119" y="561"/>
      <point x="126" y="577"/>
      <point x="146" y="596" type="curve"/>
      <point x="83" y="631" type="line"/>
      <point x="48" y="598"/>
      <point x="35" y="566"/>
      <point x="35" y="536" type="curve" smooth="yes"/>
      <point x="35" y="460"/>
      <point x="91" y="427"/>
      <point x="274" y="375" type="curve" smooth="yes"/>
      <point x="437" y="328"/>
      <point x="476" y="286"/>
      <point x="476" y="214" type="curve" smooth="yes"/>
      <point x="476" y="131"/>
      <point x="400" y="85"/>
      <point x="275" y="72" type="curve"/>
      <point x="278" y="62" type="line"/>
      <point x="315" y="95"/>
      <point x="333" y="129"/>
      <point x="333" y="181" type="curve" smooth="yes"/>
      <point x="333" y="259"/>
      <point x="266" y="315"/>
    </contour>
  </outline>
</glyph>
<glyph name="ra1beng" format="2">
  <advance width="596"/>
  <unicode hex="09F0"/>
  <outline>
    <contour>
      <point x="606" y="622" type="line"/>
      <point x="-10" y="622" type="line"/>
      <point x="-10" y="551" type="line"/>
      <point x="424" y="551" type="line"/>
      <point x="424" y="482" type="line"/>
      <point x="447" y="524" type="line"/>
      <point x="301" y="480"/>
      <point x="165" y="416"/>
      <point x="37" y="339" type="curve"/>
      <point x="76" y="243" type="line"/>
      <point x="230" y="218"/>
      <point x="362" y="119"/>
      <point x="424" y="0" type="curve"/>
      <point x="501" y="0" type="line"/>
      <point x="501" y="551" type="line"/>
      <point x="606" y="551" type="line"/>
    </contour>
    <contour>
      <point x="424" y="473" type="line"/>
      <point x="424" y="190" type="line"/>
      <point x="424" y="155"/>
      <point x="425" y="120"/>
      <point x="430" y="86" type="curve"/>
      <point x="438" y="88" type="line"/>
      <point x="382" y="204"/>
      <point x="236" y="279"/>
      <point x="128" y="304" type="curve"/>
      <point x="224" y="361"/>
      <point x="342" y="416"/>
      <point x="445" y="446" type="curve"/>
    </contour>
    <contour>
      <point x="492" y="125" type="curve"/>
      <point x="489" y="222" type="line"/>
      <point x="416" y="336"/>
      <point x="306" y="384"/>
      <point x="194" y="406" type="curve"/>
      <point x="143" y="363" type="line"/>
      <point x="302" y="339"/>
      <point x="425" y="249"/>
    </contour>
  </outline>
</glyph>
<glyph name="rupeemarkbeng" format="2">
  <advance width="589"/>
  <unicode hex="09F2"/>
  <outline>
    <contour>
      <point x="441" y="99" type="curve"/>
      <point x="519" y="126" type="line"/>
      <point x="424" y="360"/>
      <point x="296" y="456"/>
      <point x="102" y="516" type="curve"/>
      <point x="71" y="435" type="line"/>
      <point x="263" y="380"/>
      <point x="357" y="288"/>
    </contour>
  </outline>
</glyph>
<glyph name="rupeesignbeng" format="2">
  <advance width="636"/>
  <unicode hex="09F3"/>
  <outline>
    <contour>
      <point x="595" y="498" type="line"/>
      <point x="75" y="498" type="line"/>
      <point x="75" y="426" type="line"/>
      <point x="172" y="426" type="line"/>
      <point x="172" y="146" type="line" smooth="yes"/>
      <point x="172" y="74"/>
      <point x="187" y="51"/>
      <point x="207" y="32" type="curve" smooth="yes"/>
      <point x="228" y="12"/>
      <point x="259" y="0"/>
      <point x="308" y="0" type="curve" smooth="yes"/>
      <point x="433" y="0"/>
      <point x="560" y="112"/>
      <point x="560" y="236" type="curve" smooth="yes"/>
      <point x="560" y="314"/>
      <point x="510" y="348"/>
      <point x="440" y="348" type="curve" smooth="yes"/>
      <point x="413" y="348"/>
      <point x="387" y="344"/>
      <point x="364" y="338" type="curve"/>
      <point x="374" y="270" type="line"/>
      <point x="389" y="274"/>
      <point x="404" y="276"/>
      <point x="424" y="276" type="curve" smooth="yes"/>
      <point x="464" y="276"/>
      <point x="481" y="258"/>
      <point x="481" y="226" type="curve" smooth="yes"/>
      <point x="481" y="145"/>
      <point x="392" y="69"/>
      <point x="311" y="69" type="curve" smooth="yes"/>
      <point x="262" y="69"/>
      <point x="249" y="87"/>
      <point x="249" y="150" type="curve" smooth="yes"/>
      <point x="249" y="426" type="line"/>
      <point x="595" y="426" type="line"/>
    </contour>
    <contour>
      <point x="125" y="749" type="curve" smooth="yes"/>
      <point x="83" y="749"/>
      <point x="47" y="740"/>
      <point x="7" y="723" type="curve"/>
      <point x="34" y="661" type="line"/>
      <point x="51" y="668"/>
      <point x="78" y="677"/>
      <point x="103" y="677" type="curve" smooth="yes"/>
      <point x="163" y="677"/>
      <point x="172" y="639"/>
      <point x="172" y="570" type="curve" smooth="yes"/>
      <point x="172" y="490" type="line"/>
      <point x="249" y="490" type="line"/>
      <point x="249" y="574" type="line" smooth="yes"/>
      <point x="249" y="653"/>
      <point x="236" y="692"/>
      <point x="212" y="717" type="curve" smooth="yes"/>
      <point x="192" y="738"/>
      <point x="164" y="749"/>
    </contour>
  </outline>
</glyph>
<glyph name="uni09F4" format="2">
  <advance width="589"/>
  <unicode hex="09F4"/>
  <outline>
    <contour>
      <point x="71" y="179" type="curve"/>
      <point x="102" y="98" type="line"/>
      <point x="296" y="159"/>
      <point x="424" y="254"/>
      <point x="519" y="488" type="curve"/>
      <point x="441" y="515" type="line"/>
      <point x="357" y="327"/>
      <point x="263" y="234"/>
    </contour>
  </outline>
</glyph>
<glyph name="uni09F5" format="2">
  <advance width="707"/>
  <unicode hex="09F5"/>
  <outline>
    <contour>
      <point x="207" y="426" type="curve" smooth="yes"/>
      <point x="103" y="426"/>
      <point x="60" y="376"/>
      <point x="60" y="319" type="curve" smooth="yes"/>
      <point x="60" y="292"/>
      <point x="68" y="268"/>
      <point x="77" y="247" type="curve"/>
      <point x="153" y="264" type="line"/>
      <point x="147" y="275"/>
      <point x="141" y="290"/>
      <point x="141" y="308" type="curve" smooth="yes"/>
      <point x="141" y="335"/>
      <point x="159" y="356"/>
      <point x="208" y="356" type="curve" smooth="yes"/>
      <point x="268" y="356"/>
      <point x="290" y="321"/>
      <point x="290" y="281" type="curve" smooth="yes"/>
      <point x="290" y="225"/>
      <point x="265" y="195"/>
      <point x="207" y="175" type="curve"/>
      <point x="235" y="99" type="line"/>
      <point x="430" y="163"/>
      <point x="559" y="252"/>
      <point x="653" y="488" type="curve"/>
      <point x="575" y="515" type="line"/>
      <point x="507" y="365"/>
      <point x="446" y="284"/>
      <point x="333" y="222" type="curve"/>
      <point x="338" y="215" type="line"/>
      <point x="361" y="232"/>
      <point x="366" y="271"/>
      <point x="366" y="293" type="curve" smooth="yes"/>
      <point x="366" y="371"/>
      <point x="299" y="426"/>
    </contour>
  </outline>
</glyph>
<glyph name="uni09F8" format="2">
  <advance width="681"/>
  <unicode hex="09F8"/>
  <outline>
    <contour>
      <point x="55" y="624" type="curve"/>
      <point x="46" y="547" type="line"/>
      <point x="105" y="545"/>
      <point x="115" y="530"/>
      <point x="115" y="481" type="curve" smooth="yes"/>
      <point x="115" y="200" type="line"/>
      <point x="174" y="160" type="line"/>
      <point x="288" y="274"/>
      <point x="387" y="346"/>
      <point x="510" y="396" type="curve"/>
      <point x="490" y="422" type="line"/>
      <point x="490" y="122" type="line" smooth="yes"/>
      <point x="490" y="83"/>
      <point x="496" y="54"/>
      <point x="513" y="35" type="curve" smooth="yes"/>
      <point x="534" y="11"/>
      <point x="569" y="0"/>
      <point x="626" y="-3" type="curve"/>
      <point x="635" y="75" type="line"/>
      <point x="576" y="77"/>
      <point x="567" y="91"/>
      <point x="567" y="141" type="curve"/>
      <point x="567" y="432" type="line"/>
      <point x="507" y="472" type="line"/>
      <point x="372" y="421"/>
      <point x="257" y="348"/>
      <point x="177" y="258" type="curve"/>
      <point x="192" y="239" type="line"/>
      <point x="192" y="500" type="line" smooth="yes"/>
      <point x="192" y="544"/>
      <point x="183" y="575"/>
      <point x="160" y="595" type="curve" smooth="yes"/>
      <point x="139" y="613"/>
      <point x="105" y="622"/>
    </contour>
  </outline>
</glyph>
<glyph name="uni09F9" format="2">
  <advance width="483"/>
  <unicode hex="09F9"/>
  <outline>
    <contour>
      <point x="59" y="330" type="curve" smooth="yes"/>
      <point x="59" y="229"/>
      <point x="135" y="159"/>
      <point x="242" y="159" type="curve" smooth="yes"/>
      <point x="349" y="159"/>
      <point x="425" y="229"/>
      <point x="425" y="330" type="curve" smooth="yes"/>
      <point x="425" y="431"/>
      <point x="348" y="500"/>
      <point x="242" y="500" type="curve" smooth="yes"/>
      <point x="135" y="500"/>
      <point x="59" y="430"/>
    </contour>
    <contour>
      <point x="136" y="330" type="curve" smooth="yes"/>
      <point x="136" y="389"/>
      <point x="179" y="430"/>
      <point x="242" y="430" type="curve" smooth="yes"/>
      <point x="303" y="430"/>
      <point x="348" y="389"/>
      <point x="348" y="330" type="curve" smooth="yes"/>
      <point x="348" y="271"/>
      <point x="303" y="229"/>
      <point x="242" y="229" type="curve" smooth="yes"/>
      <point x="179" y="229"/>
      <point x="136" y="271"/>
    </contour>
  </outline>
</glyph>
<glyph name="issharbeng" format="2">
  <advance width="676"/>
  <unicode hex="09FA"/>
  <outline>
    <contour>
      <point x="298" y="373" type="curve" smooth="yes"/>
      <point x="474" y="373"/>
      <point x="552" y="502"/>
      <point x="615" y="732" type="curve"/>
      <point x="533" y="752" type="line"/>
      <point x="470" y="525"/>
      <point x="414" y="453"/>
      <point x="297" y="453" type="curve" smooth="yes"/>
      <point x="207" y="453"/>
      <point x="164" y="516"/>
      <point x="158" y="624" type="curve"/>
      <point x="76" y="618" type="line"/>
      <point x="87" y="449"/>
      <point x="180" y="373"/>
    </contour>
    <contour>
      <point x="312" y="523" type="curve" smooth="yes"/>
      <point x="343" y="523"/>
      <point x="371" y="546"/>
      <point x="371" y="582" type="curve" smooth="yes"/>
      <point x="371" y="616"/>
      <point x="344" y="641"/>
      <point x="312" y="641" type="curve" smooth="yes"/>
      <point x="278" y="641"/>
      <point x="251" y="616"/>
      <point x="251" y="582" type="curve" smooth="yes"/>
      <point x="251" y="548"/>
      <point x="279" y="523"/>
    </contour>
  </outline>
</glyph>
<glyph name="uni09FB" format="2">
  <advance width="291"/>
  <unicode hex="09FB"/>
  <outline>
    <contour>
      <point x="57" y="249" type="curve" smooth="yes"/>
      <point x="57" y="167"/>
      <point x="108" y="80"/>
      <point x="306" y="-142" type="curve"/>
      <point x="372" y="-88" type="line"/>
      <point x="182" y="112"/>
      <point x="139" y="189"/>
      <point x="139" y="246" type="curve" smooth="yes"/>
      <point x="139" y="274"/>
      <point x="155" y="303"/>
      <point x="222" y="331" type="curve"/>
      <point x="179" y="404" type="line"/>
      <point x="85" y="360"/>
      <point x="57" y="315"/>
    </contour>
  </outline>
</glyph>
<glyph name="uni09FC" format="2">
  <advance width="537"/>
  <unicode hex="09FC"/>
  <outline>
    <contour>
      <point x="482" y="485" type="curve"/>
      <point x="407" y="496" type="line"/>
      <point x="394" y="393"/>
      <point x="350" y="347"/>
      <point x="267" y="347" type="curve" smooth="yes"/>
      <point x="179" y="347"/>
      <point x="144" y="395"/>
      <point x="130" y="495" type="curve"/>
      <point x="55" y="484" type="line"/>
      <point x="69" y="362"/>
      <point x="139" y="276"/>
      <point x="270" y="276" type="curve" smooth="yes"/>
      <point x="401" y="276"/>
      <point x="469" y="362"/>
    </contour>
    <contour>
      <point x="322" y="458" type="curve" smooth="yes"/>
      <point x="322" y="492"/>
      <point x="304" y="510"/>
      <point x="267" y="510" type="curve" smooth="yes"/>
      <point x="231" y="510"/>
      <point x="215" y="487"/>
      <point x="215" y="461" type="curve" smooth="yes"/>
      <point x="215" y="429"/>
      <point x="233" y="407"/>
      <point x="268" y="407" type="curve" smooth="yes"/>
      <point x="299" y="407"/>
      <point x="322" y="425"/>
    </contour>
    <component base="viramabeng" xOffset="382" yOffset="210"/>
  </outline>
</glyph>
<glyph name="uni09FD" format="2">
  <advance width="426"/>
  <unicode hex="09FD"/>
  <outline>
    <contour>
      <point x="213" y="229" type="curve" smooth="yes"/>
      <point x="298" y="229"/>
      <point x="361" y="291"/>
      <point x="361" y="369" type="curve"/>
      <point x="361" y="448"/>
      <point x="298" y="508"/>
      <point x="213" y="508" type="curve" smooth="yes"/>
      <point x="124" y="508"/>
      <point x="64" y="444"/>
      <point x="64" y="369" type="curve" smooth="yes"/>
      <point x="64" y="287"/>
      <point x="131" y="229"/>
    </contour>
    <contour>
      <point x="213" y="295" type="curve" smooth="yes"/>
      <point x="168" y="295"/>
      <point x="134" y="325"/>
      <point x="134" y="369" type="curve" smooth="yes"/>
      <point x="134" y="409"/>
      <point x="164" y="442"/>
      <point x="213" y="442" type="curve" smooth="yes"/>
      <point x="259" y="442"/>
      <point x="291" y="411"/>
      <point x="291" y="369" type="curve"/>
      <point x="291" y="325"/>
      <point x="259" y="295"/>
    </contour>
  </outline>
</glyph>
<glyph name="uni09FE" format="2">
  <unicode hex="09FE"/>
  <outline>
    <contour>
      <point x="-11" y="858" type="curve" smooth="yes"/>
      <point x="-73" y="858"/>
      <point x="-109" y="834"/>
      <point x="-109" y="795" type="curve" smooth="yes"/>
      <point x="-109" y="781"/>
      <point x="-106" y="769"/>
      <point x="-101" y="757" type="curve"/>
      <point x="-47" y="769" type="line"/>
      <point x="-49" y="774"/>
      <point x="-52" y="782"/>
      <point x="-52" y="789" type="curve" smooth="yes"/>
      <point x="-52" y="804"/>
      <point x="-42" y="810"/>
      <point x="-8" y="810" type="curve" smooth="yes"/>
      <point x="28" y="810"/>
      <point x="54" y="793"/>
      <point x="54" y="764" type="curve" smooth="yes"/>
      <point x="54" y="732"/>
      <point x="30" y="716"/>
      <point x="-27" y="716" type="curve" smooth="yes"/>
      <point x="-57" y="716"/>
      <point x="-85" y="719"/>
      <point x="-112" y="728" type="curve"/>
      <point x="-122" y="679" type="line"/>
      <point x="-18" y="658"/>
      <point x="24" y="634"/>
      <point x="113" y="569" type="curve"/>
      <point x="145" y="606" type="line"/>
      <point x="94" y="648"/>
      <point x="35" y="680"/>
      <point x="-13" y="692" type="curve"/>
      <point x="-12" y="671" type="line"/>
      <point x="69" y="675"/>
      <point x="112" y="710"/>
      <point x="112" y="767" type="curve" smooth="yes"/>
      <point x="112" y="820"/>
      <point x="64" y="858"/>
    </contour>
    <contour>
      <point x="16" y="917" type="line"/>
      <point x="-142" y="917" type="line"/>
      <point x="-142" y="869" type="line"/>
      <point x="-41" y="869" type="line"/>
      <point x="-41" y="833" type="line"/>
      <point x="16" y="844" type="line"/>
    </contour>
  </outline>
</glyph>
<glyph name="uni1CD0" format="2">
  <unicode hex="1CD0"/>
  <outline>
    <contour>
      <point x="-430" y="661" type="line"/>
      <point x="-371" y="636" type="line"/>
      <point x="-255" y="849" type="line"/>
      <point x="-131" y="636" type="line"/>
      <point x="-77" y="663" type="line"/>
      <point x="-228" y="910" type="line"/>
      <point x="-289" y="910" type="line"/>
    </contour>
  </outline>
</glyph>
<glyph name="uni1CD2" format="2">
  <unicode hex="1CD2"/>
  <outline>
    <contour>
      <point x="-418" y="789" type="line"/>
      <point x="-418" y="722" type="line"/>
      <point x="-90" y="722" type="line"/>
      <point x="-90" y="789" type="line"/>
    </contour>
  </outline>
</glyph>
<glyph name="uni1CD5" format="2">
  <unicode hex="1CD5"/>
  <outline>
    <contour>
      <point x="-225" y="-107" type="curve"/>
      <point x="-289" y="-107" type="line"/>
      <point x="-291" y="-176"/>
      <point x="-307" y="-204"/>
      <point x="-343" y="-204" type="curve" smooth="yes"/>
      <point x="-376" y="-204"/>
      <point x="-396" y="-185"/>
      <point x="-398" y="-105" type="curve"/>
      <point x="-472" y="-109" type="line"/>
      <point x="-467" y="-232"/>
      <point x="-422" y="-271"/>
      <point x="-350" y="-271" type="curve" smooth="yes"/>
      <point x="-277" y="-271"/>
      <point x="-246" y="-223"/>
    </contour>
    <contour>
      <point x="-221" y="-107" type="curve"/>
      <point x="-285" y="-107" type="line"/>
      <point x="-264" y="-223"/>
      <point x="-233" y="-271"/>
      <point x="-160" y="-271" type="curve" smooth="yes"/>
      <point x="-89" y="-271"/>
      <point x="-43" y="-232"/>
      <point x="-38" y="-109" type="curve"/>
      <point x="-113" y="-105" type="line"/>
      <point x="-114" y="-185"/>
      <point x="-134" y="-204"/>
      <point x="-167" y="-204" type="curve" smooth="yes"/>
      <point x="-203" y="-204"/>
      <point x="-219" y="-176"/>
    </contour>
  </outline>
</glyph>
<glyph name="uni1CD6" format="2">
  <unicode hex="1CD6"/>
  <outline>
    <contour>
      <point x="-426" y="-94" type="line"/>
      <point x="-426" y="-271" type="line"/>
      <point x="-78" y="-271" type="line"/>
      <point x="-78" y="-202" type="line"/>
      <point x="-348" y="-202" type="line"/>
      <point x="-348" y="-94" type="line"/>
    </contour>
  </outline>
</glyph>
<glyph name="uni1CD8" format="2">
  <unicode hex="1CD8"/>
  <outline>
    <contour>
      <point x="-44" y="-88" type="curve"/>
      <point x="-120" y="-62" type="line"/>
      <point x="-142" y="-152"/>
      <point x="-172" y="-202"/>
      <point x="-248" y="-202" type="curve" smooth="yes"/>
      <point x="-319" y="-202"/>
      <point x="-359" y="-158"/>
      <point x="-394" y="-64" type="curve"/>
      <point x="-465" y="-88" type="line"/>
      <point x="-420" y="-214"/>
      <point x="-347" y="-271"/>
      <point x="-251" y="-271" type="curve" smooth="yes"/>
      <point x="-149" y="-271"/>
      <point x="-75" y="-222"/>
    </contour>
  </outline>
</glyph>
<glyph name="uni1CE1" format="2">
  <advance width="456"/>
  <unicode hex="1CE1"/>
  <outline>
    <contour>
      <point x="469" y="794" type="curve"/>
      <point x="516" y="853" type="line"/>
      <point x="466" y="889"/>
      <point x="406" y="917"/>
      <point x="332" y="917" type="curve" smooth="yes"/>
      <point x="226" y="917"/>
      <point x="126" y="859"/>
      <point x="126" y="664" type="curve" smooth="yes"/>
      <point x="126" y="416"/>
      <point x="214" y="157"/>
      <point x="214" y="-128" type="curve" smooth="yes"/>
      <point x="214" y="-214"/>
      <point x="193" y="-329"/>
      <point x="45" y="-329" type="curve" smooth="yes"/>
      <point x="1" y="-329"/>
      <point x="-35" y="-325"/>
      <point x="-80" y="-317" type="curve"/>
      <point x="-85" y="-391" type="line"/>
      <point x="-40" y="-399"/>
      <point x="4" y="-404"/>
      <point x="47" y="-404" type="curve" smooth="yes"/>
      <point x="260" y="-404"/>
      <point x="295" y="-264"/>
      <point x="295" y="-128" type="curve" smooth="yes"/>
      <point x="295" y="183"/>
      <point x="207" y="424"/>
      <point x="207" y="664" type="curve" smooth="yes"/>
      <point x="207" y="818"/>
      <point x="269" y="844"/>
      <point x="341" y="844" type="curve" smooth="yes"/>
      <point x="385" y="844"/>
      <point x="428" y="824"/>
    </contour>
  </outline>
</glyph>
<glyph name="uni1CEA" format="2">
  <advance width="748"/>
  <unicode hex="1CEA"/>
  <outline>
    <contour>
      <point x="372" y="0" type="curve" smooth="yes"/>
      <point x="571" y="0"/>
      <point x="651" y="86"/>
      <point x="651" y="197" type="curve" smooth="yes"/>
      <point x="651" y="273"/>
      <point x="604" y="329"/>
      <point x="560" y="371" type="curve" smooth="yes"/>
      <point x="514" y="414"/>
      <point x="496" y="444"/>
      <point x="496" y="487" type="curve" smooth="yes"/>
      <point x="496" y="538"/>
      <point x="533" y="568"/>
      <point x="581" y="568" type="curve" smooth="yes"/>
      <point x="619" y="568"/>
      <point x="634" y="548"/>
      <point x="634" y="518" type="curve" smooth="yes"/>
      <point x="634" y="484"/>
      <point x="609" y="462"/>
      <point x="550" y="458" type="curve"/>
      <point x="560" y="388" type="line"/>
      <point x="678" y="400"/>
      <point x="708" y="461"/>
      <point x="708" y="514" type="curve" smooth="yes"/>
      <point x="708" y="583"/>
      <point x="665" y="632"/>
      <point x="578" y="632" type="curve" smooth="yes"/>
      <point x="460" y="632"/>
      <point x="418" y="557"/>
      <point x="418" y="496" type="curve" smooth="yes"/>
      <point x="418" y="425"/>
      <point x="438" y="384"/>
      <point x="502" y="324" type="curve" smooth="yes"/>
      <point x="554" y="275"/>
      <point x="571" y="248"/>
      <point x="571" y="200" type="curve" smooth="yes"/>
      <point x="571" y="149"/>
      <point x="529" y="74"/>
      <point x="372" y="74" type="curve" smooth="yes"/>
      <point x="220" y="74"/>
      <point x="178" y="141"/>
      <point x="178" y="197" type="curve" smooth="yes"/>
      <point x="178" y="245"/>
      <point x="196" y="274"/>
      <point x="241" y="317" type="curve" smooth="yes"/>
      <point x="306" y="379"/>
      <point x="331" y="425"/>
      <point x="331" y="489" type="curve" smooth="yes"/>
      <point x="331" y="548"/>
      <point x="296" y="632"/>
      <point x="173" y="632" type="curve" smooth="yes"/>
      <point x="91" y="632"/>
      <point x="40" y="586"/>
      <point x="40" y="520" type="curve" smooth="yes"/>
      <point x="40" y="463"/>
      <point x="73" y="402"/>
      <point x="189" y="389" type="curve"/>
      <point x="199" y="458" type="line"/>
      <point x="140" y="462"/>
      <point x="115" y="484"/>
      <point x="115" y="518" type="curve" smooth="yes"/>
      <point x="115" y="548"/>
      <point x="134" y="568"/>
      <point x="175" y="568" type="curve" smooth="yes"/>
      <point x="218" y="568"/>
      <point x="253" y="538"/>
      <point x="253" y="493" type="curve" smooth="yes"/>
      <point x="253" y="444"/>
      <point x="232" y="415"/>
      <point x="191" y="375" type="curve" smooth="yes"/>
      <point x="135" y="320"/>
      <point x="98" y="277"/>
      <point x="98" y="199" type="curve" smooth="yes"/>
      <point x="98" y="86"/>
      <point x="182" y="0"/>
    </contour>
  </outline>
</glyph>
<glyph name="uni1CED" format="2">
  <unicode hex="1CED"/>
  <outline>
    <contour>
      <point x="-312" y="-106" type="line"/>
      <point x="-84" y="-271" type="line"/>
      <point x="-39" y="-211" type="line"/>
      <point x="-267" y="-46" type="line"/>
    </contour>
  </outline>
</glyph>
<glyph name="uni1CF2" format="2">
  <advance width="514"/>
  <unicode hex="1CF2"/>
  <outline>
    <contour>
      <point x="260" y="292" type="curve" smooth="yes"/>
      <point x="367" y="292"/>
      <point x="442" y="346"/>
      <point x="477" y="484" type="curve"/>
      <point x="398" y="511" type="line"/>
      <point x="376" y="419"/>
      <point x="341" y="364"/>
      <point x="263" y="364" type="curve" smooth="yes"/>
      <point x="193" y="364"/>
      <point x="147" y="411"/>
      <point x="110" y="509" type="curve"/>
      <point x="36" y="484" type="line"/>
      <point x="80" y="357"/>
      <point x="160" y="292"/>
    </contour>
    <contour>
      <point x="253" y="261" type="curve" smooth="yes"/>
      <point x="146" y="261"/>
      <point x="71" y="207"/>
      <point x="36" y="69" type="curve"/>
      <point x="115" y="42" type="line"/>
      <point x="137" y="133"/>
      <point x="172" y="188"/>
      <point x="250" y="188" type="curve" smooth="yes"/>
      <point x="320" y="188"/>
      <point x="366" y="142"/>
      <point x="403" y="43" type="curve"/>
      <point x="477" y="69" type="line"/>
      <point x="433" y="195"/>
      <point x="353" y="261"/>
    </contour>
  </outline>
</glyph>
<glyph name="uni1CF6" format="2">
  <advance width="628"/>
  <unicode hex="1CF6"/>
  <outline>
    <contour>
      <point x="198" y="195" type="curve" smooth="yes"/>
      <point x="287" y="195"/>
      <point x="323" y="251"/>
      <point x="347" y="423" type="curve"/>
      <point x="277" y="423" type="line"/>
      <point x="273" y="305"/>
      <point x="259" y="266"/>
      <point x="202" y="266" type="curve" smooth="yes"/>
      <point x="153" y="266"/>
      <point x="130" y="291"/>
      <point x="126" y="427" type="curve"/>
      <point x="47" y="422" type="line"/>
      <point x="54" y="240"/>
      <point x="108" y="195"/>
    </contour>
    <contour>
      <point x="431" y="195" type="curve" smooth="yes"/>
      <point x="520" y="195"/>
      <point x="575" y="240"/>
      <point x="581" y="422" type="curve"/>
      <point x="502" y="427" type="line"/>
      <point x="498" y="293"/>
      <point x="470" y="266"/>
      <point x="427" y="266" type="curve" smooth="yes"/>
      <point x="372" y="266"/>
      <point x="355" y="305"/>
      <point x="351" y="423" type="curve"/>
      <point x="283" y="423" type="line"/>
      <point x="306" y="251"/>
      <point x="340" y="195"/>
    </contour>
  </outline>
</glyph>
<glyph name="uni1CF7" format="2">
  <advance width="456"/>
  <unicode hex="1CF7"/>
  <outline>
    <contour>
      <point x="469" y="795" type="curve"/>
      <point x="516" y="854" type="line"/>
      <point x="466" y="890"/>
      <point x="406" y="917"/>
      <point x="332" y="917" type="curve" smooth="yes"/>
      <point x="226" y="917"/>
      <point x="126" y="860"/>
      <point x="126" y="668" type="curve" smooth="yes"/>
      <point x="126" y="354"/>
      <point x="167" y="93"/>
      <point x="167" y="-271" type="curve"/>
      <point x="247" y="-271" type="line"/>
      <point x="247" y="93"/>
      <point x="207" y="344"/>
      <point x="207" y="664" type="curve" smooth="yes"/>
      <point x="207" y="819"/>
      <point x="269" y="844"/>
      <point x="341" y="844" type="curve" smooth="yes"/>
      <point x="385" y="844"/>
      <point x="428" y="825"/>
    </contour>
  </outline>
</glyph>
<glyph name="quotedblright.beng" format="2">
  <advance width="500"/>
  <unicode hex="201D"/>
  <outline>
    <contour>
      <point x="415" y="729" type="line"/>
      <point x="318" y="729" type="line"/>
      <point x="308" y="661"/>
      <point x="287" y="563"/>
      <point x="269" y="484" type="curve"/>
      <point x="336" y="484" type="line"/>
      <point x="369" y="557"/>
      <point x="404" y="647"/>
      <point x="422" y="718" type="curve"/>
    </contour>
    <contour>
      <point x="227" y="729" type="line"/>
      <point x="130" y="729" type="line"/>
      <point x="120" y="661"/>
      <point x="99" y="563"/>
      <point x="81" y="484" type="curve"/>
      <point x="148" y="484" type="line"/>
      <point x="181" y="557"/>
      <point x="216" y="647"/>
      <point x="234" y="718" type="curve"/>
    </contour>
  </outline>
</glyph>
<glyph name="uni20B9.beng" format="2">
  <advance width="592"/>
  <unicode hex="20B9"/>
  <outline>
    <contour>
      <point x="514" y="551" type="line"/>
      <point x="514" y="622" type="line"/>
      <point x="92" y="622" type="line"/>
      <point x="92" y="551" type="line"/>
      <point x="158" y="551" type="line" smooth="yes"/>
      <point x="208" y="551"/>
      <point x="234" y="545"/>
      <point x="255" y="529" type="curve" smooth="yes"/>
      <point x="278" y="512"/>
      <point x="292" y="483"/>
      <point x="292" y="437" type="curve" smooth="yes"/>
      <point x="292" y="397"/>
      <point x="282" y="368"/>
      <point x="261" y="348" type="curve" smooth="yes"/>
      <point x="240" y="328"/>
      <point x="211" y="318"/>
      <point x="146" y="318" type="curve" smooth="yes"/>
      <point x="102" y="318" type="line"/>
      <point x="92" y="247" type="line"/>
      <point x="303" y="0" type="line"/>
      <point x="405" y="0" type="line"/>
      <point x="170" y="276" type="line"/>
      <point x="161" y="244" type="line"/>
      <point x="312" y="256"/>
      <point x="373" y="324"/>
      <point x="373" y="439" type="curve" smooth="yes"/>
      <point x="373" y="487"/>
      <point x="357" y="529"/>
      <point x="326" y="551" type="curve"/>
    </contour>
    <contour>
      <point x="92" y="474" type="line"/>
      <point x="92" y="402" type="line"/>
      <point x="514" y="402" type="line"/>
      <point x="514" y="474" type="line"/>
    </contour>
  </outline>
</glyph>
<glyph name="minus.beng" format="2">
  <advance width="592"/>
  <unicode hex="2212"/>
  <outline>
    <contour>
      <point x="70" y="359" type="line"/>
      <point x="70" y="286" type="line"/>
      <point x="521" y="286" type="line"/>
      <point x="521" y="359" type="line"/>
    </contour>
  </outline>
</glyph>
<glyph name="uniA8F1" format="2">
  <unicode hex="A8F1"/>
  <outline>
    <contour>
      <point x="-114" y="962" type="curve" smooth="yes"/>
      <point x="-66" y="962"/>
      <point x="-35" y="990"/>
      <point x="-35" y="1032" type="curve" smooth="yes"/>
      <point x="-35" y="1069"/>
      <point x="-49" y="1094"/>
      <point x="-96" y="1126" type="curve" smooth="yes"/>
      <point x="-135" y="1154"/>
      <point x="-145" y="1162"/>
      <point x="-145" y="1173" type="curve" smooth="yes"/>
      <point x="-145" y="1193"/>
      <point x="-126" y="1194"/>
      <point x="-96" y="1194" type="curve" smooth="yes"/>
      <point x="-45" y="1194" type="line"/>
      <point x="-45" y="1238" type="line"/>
      <point x="-94" y="1238" type="line" smooth="yes"/>
      <point x="-138" y="1238"/>
      <point x="-155" y="1233"/>
      <point x="-169" y="1225" type="curve" smooth="yes"/>
      <point x="-185" y="1215"/>
      <point x="-193" y="1201"/>
      <point x="-193" y="1180" type="curve" smooth="yes"/>
      <point x="-193" y="1156"/>
      <point x="-187" y="1134"/>
      <point x="-138" y="1100" type="curve" smooth="yes"/>
      <point x="-96" y="1070"/>
      <point x="-83" y="1056"/>
      <point x="-83" y="1036" type="curve" smooth="yes"/>
      <point x="-83" y="1018"/>
      <point x="-99" y="1007"/>
      <point x="-119" y="1007" type="curve" smooth="yes"/>
      <point x="-153" y="1007"/>
      <point x="-178" y="1036"/>
      <point x="-199" y="1074" type="curve"/>
      <point x="-240" y="1054" type="line"/>
      <point x="-197" y="981"/>
      <point x="-164" y="962"/>
    </contour>
  </outline>
</glyph>
<glyph name="aulengthmarkshortbeng" format="2">
  <advance width="266"/>
  <outline>
    <contour>
      <point x="171" y="0" type="line"/>
      <point x="171" y="551" type="line"/>
      <point x="276" y="551" type="line"/>
      <point x="276" y="622" type="line"/>
      <point x="-10" y="622" type="line"/>
      <point x="-10" y="551" type="line"/>
      <point x="94" y="551" type="line"/>
      <point x="94" y="0" type="line"/>
    </contour>
    <contour>
      <point x="99" y="622" type="curve"/>
      <point x="171" y="622" type="line"/>
      <point x="169" y="677"/>
      <point x="158" y="712"/>
      <point x="135" y="734" type="curve" smooth="yes"/>
      <point x="106" y="762"/>
      <point x="69" y="771"/>
      <point x="9" y="771" type="curve" smooth="yes"/>
      <point x="-13" y="771" type="line" smooth="yes"/>
      <point x="-70" y="771"/>
      <point x="-100" y="781"/>
      <point x="-119" y="802" type="curve" smooth="yes"/>
      <point x="-133" y="817"/>
      <point x="-138" y="840"/>
      <point x="-138" y="869" type="curve" smooth="yes"/>
      <point x="-138" y="879"/>
      <point x="-137" y="891"/>
      <point x="-134" y="907" type="curve"/>
      <point x="-208" y="912" type="line"/>
      <point x="-211" y="893"/>
      <point x="-213" y="876"/>
      <point x="-213" y="859" type="curve" smooth="yes"/>
      <point x="-213" y="805"/>
      <point x="-195" y="763"/>
      <point x="-159" y="736" type="curve" smooth="yes"/>
      <point x="-126" y="711"/>
      <point x="-85" y="699"/>
      <point x="2" y="699" type="curve" smooth="yes"/>
      <point x="20" y="699" type="line" smooth="yes"/>
      <point x="75" y="699"/>
      <point x="97" y="677"/>
    </contour>
  </outline>
</glyph>
<glyph name="bababeng" format="2">
  <advance width="977"/>
  <outline>
    <contour>
      <point x="611" y="622" type="line"/>
      <point x="-10" y="622" type="line"/>
      <point x="-10" y="551" type="line"/>
      <point x="424" y="551" type="line"/>
      <point x="424" y="482" type="line"/>
      <point x="447" y="524" type="line"/>
      <point x="301" y="480"/>
      <point x="165" y="416"/>
      <point x="37" y="339" type="curve"/>
      <point x="76" y="243" type="line"/>
      <point x="230" y="218"/>
      <point x="363" y="119"/>
      <point x="424" y="0" type="curve"/>
      <point x="501" y="0" type="line"/>
      <point x="501" y="551" type="line"/>
      <point x="611" y="551" type="line"/>
    </contour>
    <contour>
      <point x="424" y="474" type="line"/>
      <point x="424" y="189" type="line" smooth="yes"/>
      <point x="424" y="146"/>
      <point x="426" y="119"/>
      <point x="429" y="88" type="curve"/>
      <point x="438" y="88" type="line"/>
      <point x="382" y="204"/>
      <point x="238" y="280"/>
      <point x="130" y="304" type="curve"/>
      <point x="225" y="362"/>
      <point x="344" y="413"/>
      <point x="445" y="446" type="curve"/>
    </contour>
    <contour>
      <point x="987" y="622" type="line"/>
      <point x="561" y="622" type="line"/>
      <point x="561" y="551" type="line"/>
      <point x="805" y="551" type="line"/>
      <point x="805" y="482" type="line"/>
      <point x="828" y="524" type="line"/>
      <point x="690" y="482"/>
      <point x="562" y="423"/>
      <point x="439" y="352" type="curve"/>
      <point x="457" y="243" type="line"/>
      <point x="611" y="218"/>
      <point x="744" y="119"/>
      <point x="805" y="0" type="curve"/>
      <point x="882" y="0" type="line"/>
      <point x="882" y="551" type="line"/>
      <point x="987" y="551" type="line"/>
    </contour>
    <contour>
      <point x="805" y="474" type="line"/>
      <point x="805" y="189" type="line" smooth="yes"/>
      <point x="805" y="146"/>
      <point x="807" y="119"/>
      <point x="810" y="88" type="curve"/>
      <point x="819" y="88" type="line"/>
      <point x="763" y="204"/>
      <point x="619" y="280"/>
      <point x="511" y="304" type="curve"/>
      <point x="606" y="362"/>
      <point x="725" y="413"/>
      <point x="826" y="446" type="curve"/>
    </contour>
  </outline>
</glyph>
<glyph name="babhabeng" format="2">
  <advance width="701"/>
  <outline>
    <contour>
      <point x="529" y="591" type="line"/>
      <point x="452" y="590" type="line"/>
      <point x="452" y="538" type="line"/>
      <point x="350" y="511"/>
      <point x="234" y="464"/>
      <point x="130" y="415" type="curve"/>
      <point x="167" y="326" type="line"/>
      <point x="284" y="310"/>
      <point x="382" y="262"/>
      <point x="452" y="175" type="curve"/>
      <point x="529" y="175" type="line"/>
    </contour>
    <contour>
      <point x="452" y="465" type="curve"/>
      <point x="452" y="351" type="line"/>
      <point x="452" y="331"/>
      <point x="453" y="293"/>
      <point x="455" y="268" type="curve"/>
      <point x="376" y="335"/>
      <point x="302" y="371"/>
      <point x="204" y="388" type="curve"/>
      <point x="206" y="374" type="line"/>
      <point x="284" y="411"/>
      <point x="368" y="442"/>
    </contour>
    <contour>
      <point x="711" y="622" type="line"/>
      <point x="-10" y="622" type="line"/>
      <point x="-10" y="551" type="line"/>
      <point x="711" y="551" type="line"/>
    </contour>
    <contour>
      <point x="408" y="53" type="curve" smooth="yes"/>
      <point x="487" y="53"/>
      <point x="547" y="99"/>
      <point x="598" y="187" type="curve"/>
      <point x="592" y="223" type="line"/>
      <point x="528" y="213" type="line"/>
      <point x="496" y="148"/>
      <point x="450" y="122"/>
      <point x="410" y="122" type="curve" smooth="yes"/>
      <point x="385" y="122"/>
      <point x="360" y="134"/>
      <point x="360" y="170" type="curve" smooth="yes"/>
      <point x="360" y="191"/>
      <point x="369" y="212"/>
      <point x="378" y="226" type="curve"/>
      <point x="304" y="250" type="line"/>
      <point x="292" y="229"/>
      <point x="281" y="197"/>
      <point x="281" y="168" type="curve" smooth="yes"/>
      <point x="281" y="92"/>
      <point x="335" y="53"/>
    </contour>
    <contour>
      <point x="428" y="-117" type="curve" smooth="yes"/>
      <point x="570" y="-117"/>
      <point x="653" y="-45"/>
      <point x="653" y="65" type="curve" smooth="yes"/>
      <point x="653" y="125"/>
      <point x="631" y="173"/>
      <point x="592" y="223" type="curve"/>
      <point x="532" y="167" type="line"/>
      <point x="559" y="142"/>
      <point x="578" y="107"/>
      <point x="578" y="68" type="curve" smooth="yes"/>
      <point x="578" y="3"/>
      <point x="524" y="-43"/>
      <point x="425" y="-43" type="curve" smooth="yes"/>
      <point x="281" y="-43"/>
      <point x="189" y="35"/>
      <point x="108" y="259" type="curve"/>
      <point x="34" y="234" type="line"/>
      <point x="133" y="-45"/>
      <point x="270" y="-117"/>
    </contour>
  </outline>
</glyph>
<glyph name="badabeng" format="2">
  <advance width="875"/>
  <outline>
    <contour>
      <point x="885" y="622" type="line"/>
      <point x="-10" y="622" type="line"/>
      <point x="-10" y="551" type="line"/>
      <point x="369" y="551" type="line"/>
      <point x="369" y="175" type="line"/>
      <point x="413" y="175" type="line"/>
      <point x="521" y="284"/>
      <point x="622" y="358"/>
      <point x="737" y="405" type="curve"/>
      <point x="725" y="410" type="line"/>
      <point x="702" y="374"/>
      <point x="681" y="303"/>
      <point x="681" y="222" type="curve" smooth="yes"/>
      <point x="681" y="142"/>
      <point x="695" y="70"/>
      <point x="719" y="-7" type="curve"/>
      <point x="794" y="10" type="line"/>
      <point x="769" y="85"/>
      <point x="759" y="140"/>
      <point x="759" y="205" type="curve" smooth="yes"/>
      <point x="759" y="292"/>
      <point x="774" y="352"/>
      <point x="812" y="422" type="curve"/>
      <point x="747" y="486" type="line"/>
      <point x="611" y="436"/>
      <point x="497" y="362"/>
      <point x="417" y="273" type="curve"/>
      <point x="431" y="253" type="line"/>
      <point x="431" y="551" type="line"/>
      <point x="885" y="551" type="line"/>
    </contour>
    <contour>
      <point x="401" y="606" type="line"/>
      <point x="354" y="605" type="line"/>
      <point x="354" y="539" type="line"/>
      <point x="253" y="511"/>
      <point x="140" y="465"/>
      <point x="36" y="416" type="curve"/>
      <point x="74" y="326" type="line"/>
      <point x="183" y="309"/>
      <point x="282" y="268"/>
      <point x="354" y="175" type="curve"/>
      <point x="400" y="175" type="line"/>
    </contour>
    <contour>
      <point x="354" y="500" type="line"/>
      <point x="354" y="351" type="line" smooth="yes"/>
      <point x="354" y="331"/>
      <point x="356" y="293"/>
      <point x="358" y="268" type="curve"/>
      <point x="273" y="340"/>
      <point x="205" y="371"/>
      <point x="105" y="388" type="curve"/>
      <point x="109" y="374" type="line"/>
      <point x="193" y="412"/>
      <point x="287" y="447"/>
      <point x="376" y="471" type="curve"/>
    </contour>
  </outline>
</glyph>
<glyph name="badarabeng" format="2">
  <advance width="875"/>
  <outline>
    <contour>
      <point x="885" y="622" type="line"/>
      <point x="-10" y="622" type="line"/>
      <point x="-10" y="551" type="line"/>
      <point x="369" y="551" type="line"/>
      <point x="369" y="175" type="line"/>
      <point x="413" y="175" type="line"/>
      <point x="522" y="284"/>
      <point x="622" y="358"/>
      <point x="737" y="405" type="curve"/>
      <point x="725" y="410" type="line"/>
      <point x="702" y="375"/>
      <point x="681" y="299"/>
      <point x="681" y="223" type="curve" smooth="yes"/>
      <point x="681" y="149"/>
      <point x="687" y="98"/>
      <point x="698" y="45" type="curve"/>
      <point x="719" y="-59" type="line"/>
      <point x="794" y="-40" type="line"/>
      <point x="769" y="47"/>
      <point x="759" y="104"/>
      <point x="759" y="196" type="curve" smooth="yes"/>
      <point x="759" y="288"/>
      <point x="773" y="351"/>
      <point x="812" y="422" type="curve"/>
      <point x="747" y="486" type="line"/>
      <point x="611" y="436"/>
      <point x="497" y="362"/>
      <point x="417" y="273" type="curve"/>
      <point x="431" y="253" type="line"/>
      <point x="431" y="551" type="line"/>
      <point x="885" y="551" type="line"/>
    </contour>
    <contour>
      <point x="401" y="572" type="line"/>
      <point x="354" y="571" type="line"/>
      <point x="354" y="539" type="line"/>
      <point x="253" y="511"/>
      <point x="140" y="465"/>
      <point x="36" y="416" type="curve"/>
      <point x="74" y="326" type="line"/>
      <point x="183" y="309"/>
      <point x="282" y="268"/>
      <point x="354" y="175" type="curve"/>
      <point x="400" y="175" type="line"/>
    </contour>
    <contour>
      <point x="354" y="500" type="line"/>
      <point x="354" y="351" type="line" smooth="yes"/>
      <point x="354" y="331"/>
      <point x="356" y="293"/>
      <point x="358" y="268" type="curve"/>
      <point x="273" y="340"/>
      <point x="205" y="371"/>
      <point x="105" y="388" type="curve"/>
      <point x="109" y="374" type="line"/>
      <point x="193" y="412"/>
      <point x="287" y="447"/>
      <point x="376" y="471" type="curve"/>
    </contour>
    <contour>
      <point x="731" y="12" type="line"/>
      <point x="717" y="40" type="line"/>
      <point x="676" y="82"/>
      <point x="629" y="100"/>
      <point x="571" y="100" type="curve" smooth="yes"/>
      <point x="485" y="100"/>
      <point x="411" y="73"/>
      <point x="320" y="73" type="curve" smooth="yes"/>
      <point x="242" y="73"/>
      <point x="201" y="103"/>
      <point x="201" y="169" type="curve" smooth="yes"/>
      <point x="201" y="189"/>
      <point x="204" y="207"/>
      <point x="209" y="223" type="curve"/>
      <point x="132" y="232" type="line"/>
      <point x="128" y="217"/>
      <point x="123" y="193"/>
      <point x="123" y="167" type="curve" smooth="yes"/>
      <point x="123" y="44"/>
      <point x="219" y="1"/>
      <point x="323" y="1" type="curve" smooth="yes"/>
      <point x="432" y="1"/>
      <point x="506" y="28"/>
      <point x="585" y="28" type="curve" smooth="yes"/>
      <point x="654" y="28"/>
      <point x="701" y="1"/>
      <point x="719" y="-59" type="curve"/>
    </contour>
  </outline>
</glyph>
<glyph name="badhabeng" format="2">
  <advance width="716"/>
  <outline>
    <contour>
      <point x="458" y="556" type="line"/>
      <point x="381" y="555" type="line"/>
      <point x="381" y="479" type="line"/>
      <point x="398" y="519" type="line"/>
      <point x="290" y="492"/>
      <point x="152" y="436"/>
      <point x="39" y="375" type="curve"/>
      <point x="77" y="286" type="line"/>
      <point x="154" y="277"/>
      <point x="226" y="251"/>
      <point x="284" y="208" type="curve"/>
      <point x="390" y="233" type="line"/>
      <point x="458" y="233" type="line"/>
    </contour>
    <contour>
      <point x="381" y="474" type="line"/>
      <point x="381" y="262" type="line"/>
      <point x="336" y="249" type="line"/>
      <point x="273" y="296"/>
      <point x="206" y="334"/>
      <point x="111" y="349" type="curve"/>
      <point x="118" y="334" type="line"/>
      <point x="199" y="379"/>
      <point x="317" y="423"/>
      <point x="397" y="445" type="curve"/>
    </contour>
    <contour>
      <point x="726" y="622" type="line"/>
      <point x="-10" y="622" type="line"/>
      <point x="-10" y="551" type="line"/>
      <point x="726" y="551" type="line"/>
    </contour>
    <contour>
      <point x="458" y="291" type="line"/>
      <point x="381" y="291" type="line"/>
      <point x="293" y="260"/>
      <point x="182" y="211"/>
      <point x="95" y="159" type="curve"/>
      <point x="131" y="80" type="line"/>
      <point x="227" y="64"/>
      <point x="306" y="34"/>
      <point x="381" y="-43" type="curve"/>
      <point x="458" y="-43" type="line"/>
    </contour>
    <contour>
      <point x="381" y="220" type="curve"/>
      <point x="381" y="111" type="line"/>
      <point x="381" y="93"/>
      <point x="382" y="60"/>
      <point x="384" y="38" type="curve"/>
      <point x="324" y="90"/>
      <point x="260" y="116"/>
      <point x="185" y="134" type="curve"/>
      <point x="174" y="126" type="line"/>
      <point x="240" y="162"/>
      <point x="329" y="202"/>
    </contour>
    <contour>
      <point x="639" y="143" type="curve" smooth="yes"/>
      <point x="639" y="194"/>
      <point x="647" y="253"/>
      <point x="671" y="311" type="curve"/>
      <point x="617" y="366" type="line"/>
      <point x="562" y="352"/>
      <point x="497" y="332"/>
      <point x="436" y="309" type="curve"/>
      <point x="446" y="240" type="line"/>
      <point x="491" y="257"/>
      <point x="547" y="275"/>
      <point x="591" y="287" type="curve"/>
      <point x="589" y="303" type="line"/>
      <point x="570" y="246"/>
      <point x="565" y="202"/>
      <point x="565" y="149" type="curve" smooth="yes"/>
      <point x="565" y="95"/>
      <point x="576" y="36"/>
      <point x="594" y="-24" type="curve"/>
      <point x="664" y="-7" type="line"/>
      <point x="647" y="49"/>
      <point x="639" y="94"/>
    </contour>
  </outline>
</glyph>
